<svg viewBox="0 0 298 224" fill="none" xmlns="http://www.w3.org/2000/svg">
<path d="M42.5398 190.437C51.7033 190.848 60.8668 191.053 70.0303 191.035C70.3842 191.035 70.3842 190.475 70.0303 190.475C60.8668 190.493 51.7033 190.288 42.5398 189.877C42.1859 189.859 42.1859 190.419 42.5398 190.437Z" fill="#E8E8E8"/>
<path d="M70.5889 176.549C72.023 181.944 73.364 187.376 74.5932 192.827C74.6677 193.182 75.2078 193.032 75.1333 192.678C73.8855 187.227 72.5631 181.795 71.129 176.4C71.0359 176.064 70.4957 176.213 70.5889 176.549Z" fill="#E8E8E8"/>
<path d="M95.5466 176.96C95.0252 182.093 94.5037 187.245 94.0008 192.378C93.9636 192.733 94.5223 192.733 94.5595 192.378C95.081 187.245 95.6025 182.093 96.1054 176.96C96.124 176.605 95.5653 176.605 95.5466 176.96Z" fill="#E8E8E8"/>
<path d="M74.7424 193.331C78.0018 193.91 81.2984 194.171 84.6136 194.078C87.7799 193.984 91.2441 193.742 94.2614 192.734C94.5966 192.622 94.4476 192.08 94.1124 192.192C91.1137 193.182 87.7426 193.424 84.6136 193.518C81.3543 193.611 78.0949 193.35 74.8914 192.79C74.5375 192.715 74.3885 193.256 74.7424 193.331Z" fill="#E8E8E8"/>
<path d="M70.8127 176.737C74.6681 177.819 78.8587 177.838 82.8444 177.857C87.1282 177.894 91.4119 177.651 95.6584 177.166C96.0123 177.129 96.0123 176.569 95.6584 176.606C91.5237 177.091 87.3703 177.315 83.2169 177.297C79.1753 177.278 74.8916 177.278 70.9617 176.195C70.6078 176.102 70.4588 176.643 70.8127 176.737Z" fill="#E8E8E8"/>
<path d="M69.2108 174.814C69.248 175.168 69.2853 175.542 69.3225 175.896C69.3411 176.12 69.3411 176.4 69.4343 176.606C69.6578 177.091 70.4028 176.923 70.8311 176.923C71.185 176.923 71.185 176.363 70.8311 176.363C70.6263 176.363 70.4214 176.363 70.1979 176.363C69.9185 176.363 69.9185 176.307 69.8999 176.027C69.8626 175.616 69.8254 175.224 69.7881 174.814C69.7323 174.459 69.1735 174.44 69.2108 174.814Z" fill="#E8E8E8"/>
<path d="M69.5837 175.112C74.24 175.653 78.9148 175.915 83.6083 175.952C85.9178 175.971 88.2273 175.933 90.5555 175.859C91.7102 175.821 92.865 175.765 94.0197 175.709C94.5598 175.691 95.3048 175.504 95.845 175.616C96.4968 175.728 96.4596 176.288 96.5341 176.867C96.59 176.755 96.6645 176.643 96.7203 176.531C96.4782 176.531 96.2361 176.531 95.994 176.531C95.6401 176.456 95.4911 176.997 95.845 177.072C96.2175 177.147 96.4968 177.147 96.8507 177.072C97.0183 177.035 97.0742 176.867 97.037 176.736C96.9438 176.083 97.0183 175.261 96.2361 175.093C95.7705 174.981 95.1931 175.112 94.7088 175.131C94.0942 175.168 93.4982 175.187 92.8836 175.224C90.2761 175.336 87.65 175.411 85.0238 175.411C79.8461 175.411 74.687 175.168 69.5465 174.552C69.2299 174.515 69.2299 175.075 69.5837 175.112Z" fill="#E8E8E8"/>
<path d="M73.625 188.683C75.115 190.643 76.8658 192.342 78.84 193.798C79.138 194.003 79.4174 193.518 79.1194 193.312C77.2197 191.912 75.5248 190.27 74.0907 188.384C73.8858 188.104 73.4015 188.384 73.625 188.683Z" fill="#E8E8E8"/>
<path d="M72.3776 182.989C75.2831 187.189 78.8591 190.866 82.9938 193.872C83.2918 194.077 83.5712 193.592 83.2732 193.386C79.2316 190.437 75.7115 186.816 72.8619 182.709C72.657 182.41 72.1728 182.69 72.3776 182.989Z" fill="#E8E8E8"/>
<path d="M71.2415 177.987C76.2703 183.96 81.8578 189.542 88.5256 193.686C88.8236 193.873 89.1216 193.387 88.8049 193.201C82.1744 189.094 76.6242 183.55 71.6327 177.595C71.4092 177.315 71.018 177.726 71.2415 177.987Z" fill="#E8E8E8"/>
<path d="M76.586 177.67C81.3726 183.252 86.6807 188.553 92.6034 192.921C92.9014 193.126 93.1808 192.641 92.8828 192.436C86.9973 188.105 81.7264 182.804 76.9771 177.278C76.7349 176.998 76.3438 177.39 76.586 177.67Z" fill="#E8E8E8"/>
<path d="M82.6956 178.061C85.9364 182.037 89.6614 185.584 93.7961 188.626C94.0941 188.832 94.3735 188.346 94.0755 188.141C89.978 185.136 86.2903 181.608 83.0868 177.669C82.8633 177.389 82.4721 177.781 82.6956 178.061Z" fill="#E8E8E8"/>
<path d="M87.6865 177.856C89.7725 180.208 92.1566 182.224 94.8013 183.923C95.0993 184.11 95.3787 183.624 95.0807 183.438C92.4732 181.776 90.1264 179.76 88.0777 177.464C87.8355 177.184 87.4444 177.576 87.6865 177.856Z" fill="#E8E8E8"/>
<path d="M61.9101 147.093C63.1208 149.65 63.9403 152.338 64.4059 155.138C64.4245 155.269 64.5549 155.343 64.6666 155.343C64.7784 155.343 65.3744 155.325 65.4116 155.511C65.4303 155.586 65.0578 156.015 65.0205 156.109C64.9088 156.407 64.9088 156.762 65.0205 157.061C65.1695 157.415 65.4489 157.658 65.7841 157.789C65.8959 157.845 66.0263 157.863 66.1566 157.882C66.2684 157.901 66.3801 157.901 66.4919 157.882C66.6409 157.863 66.6223 157.882 66.4546 157.957C66.2684 158.237 66.0076 158.274 65.9331 158.685C65.8773 159.077 66.0635 159.45 66.2125 159.786C66.8271 161.093 67.181 162.474 67.6839 163.837C69.416 168.466 72.7313 172.293 76.4749 175.448C76.7543 175.672 77.1454 175.28 76.866 175.056C73.0106 171.808 69.5836 167.832 67.9633 162.959C67.7584 162.325 67.5721 161.69 67.3486 161.074C67.1624 160.533 66.8085 159.973 66.6409 159.431C66.4546 159.133 66.4733 158.797 66.7154 158.461C66.7899 158.405 66.8644 158.349 66.9389 158.293C66.9948 158.199 67.1065 158.143 67.1624 158.031C67.2369 157.826 67.181 157.639 67.032 157.49C66.7899 157.247 66.4174 157.378 66.1008 157.285C64.8901 156.93 65.8773 156.109 65.9704 155.511C66.1008 154.727 65.1323 154.821 64.6108 154.783C64.7039 154.858 64.797 154.914 64.8715 154.989C64.4059 152.151 63.5491 149.407 62.3199 146.813C62.2454 146.477 61.7611 146.757 61.9101 147.093Z" fill="#E8E8E8"/>
<path d="M62.1152 146.962C68.1684 148.586 73.4765 152.711 77.3319 157.602C81.4294 162.791 83.981 169.026 85.3592 175.466C85.4337 175.821 85.9739 175.671 85.8994 175.317C84.5025 168.783 81.895 162.474 77.7416 157.21C73.8304 152.263 68.4291 148.082 62.2829 146.439C61.9104 146.327 61.7614 146.869 62.1152 146.962Z" fill="#E8E8E8"/>
<path d="M64.3122 149.277C71.725 156.501 77.4428 165.368 80.963 175.13C81.0933 175.466 81.6335 175.317 81.5031 174.981C77.9457 165.144 72.1906 156.184 64.7034 148.885C64.4612 148.624 64.0515 149.016 64.3122 149.277Z" fill="#E8E8E8"/>
<path d="M67.6096 161.019C69.1741 161.187 70.7013 161.541 72.1541 162.12C73.5696 162.68 75.1155 163.389 76.0095 164.678C76.2143 164.976 76.6986 164.696 76.4937 164.398C75.5997 163.109 74.2028 162.381 72.7873 161.784C71.1297 161.075 69.3976 160.645 67.591 160.459C67.2557 160.421 67.2557 160.981 67.6096 161.019Z" fill="#E8E8E8"/>
<path d="M70.3845 150.789C70.3659 152.936 70.7197 155.045 71.4088 157.08C71.5206 157.416 72.0607 157.267 71.949 156.931C71.2785 154.952 70.9432 152.899 70.9432 150.789C70.9432 150.435 70.3845 150.435 70.3845 150.789Z" fill="#E8E8E8"/>
<path d="M80.6097 160.944C81.5224 157.528 84.5582 155.493 87.1471 153.402C89.9036 151.181 92.567 148.81 95.1 146.346C94.951 146.253 94.7834 146.16 94.6344 146.066C93.7962 148.325 93.6286 150.696 93.6659 153.085C93.7031 155.474 94.2432 158.218 93.4796 160.533C93.5727 160.458 93.6659 160.402 93.7404 160.328C93.1444 160.365 92.5484 160.421 91.9524 160.458C91.7661 160.477 91.5799 160.701 91.7102 160.888C92.1386 161.466 92.6415 161.653 92.6229 162.512C92.6229 163.109 92.4739 163.8 92.269 164.36C92.0641 164.938 91.524 165.33 91.3377 165.872C91.1887 166.357 91.5612 166.768 91.5612 167.253C91.5799 168.056 91.0025 168.728 90.5927 169.362C90.2016 169.96 89.8477 170.576 89.5311 171.21C88.8979 172.461 88.395 173.749 88.0225 175.093C87.9294 175.448 88.4695 175.597 88.5626 175.242C89.0282 173.581 89.6987 171.976 90.5741 170.482C91.1701 169.474 92.2876 168.298 92.1572 167.029C92.1014 166.525 91.8406 166.376 92.0641 165.797C92.0827 165.778 92.418 165.33 92.4366 165.293C92.7905 164.714 92.9581 164.061 93.0699 163.408C93.1444 162.922 93.2934 162.325 93.2189 161.84C93.1071 161.149 92.5856 161.093 92.1945 160.57C92.12 160.72 92.0269 160.85 91.9524 161C92.5484 160.962 93.1444 160.906 93.7404 160.869C93.8707 160.85 93.9639 160.794 94.0011 160.664C94.7089 158.498 94.2805 155.978 94.206 153.738C94.1315 151.181 94.2246 148.605 95.1372 146.178C95.249 145.898 94.8579 145.73 94.6716 145.898C91.971 148.53 89.14 151.05 86.1786 153.402C83.6456 155.418 80.9077 157.472 80.0324 160.757C79.9765 161.149 80.5166 161.298 80.6097 160.944Z" fill="#E8E8E8"/>
<path d="M93.032 148.773C91.2068 151.965 89.3443 155.12 87.5936 158.349C85.9546 161.336 84.5018 164.435 83.8127 167.776C83.7382 168.131 84.2783 168.28 84.3528 167.925C85.0606 164.509 86.5692 161.373 88.2454 158.331C89.9589 155.213 91.7655 152.152 93.5163 149.053C93.6839 148.755 93.1996 148.456 93.032 148.773Z" fill="#E8E8E8"/>
<path d="M87.5375 153.963C87.7796 155.027 87.8914 156.091 87.8541 157.174C87.8355 157.529 88.3943 157.529 88.4129 157.174C88.4501 156.035 88.3384 154.934 88.0776 153.814C87.9845 153.459 87.463 153.609 87.5375 153.963Z" fill="#E8E8E8"/>
<path d="M90.5742 150.398C90.7791 151.2 90.8164 151.984 90.7232 152.787C90.686 153.142 91.2447 153.142 91.282 152.787C91.3938 151.928 91.3379 151.088 91.1144 150.248C91.0212 149.912 90.4811 150.062 90.5742 150.398Z" fill="#E8E8E8"/>
<path d="M90.7042 154.112C91.8031 153.459 92.9392 152.88 94.1125 152.395C94.4478 152.264 94.2988 151.723 93.9635 151.853C92.7343 152.357 91.5609 152.955 90.4062 153.627C90.1082 153.813 90.3876 154.299 90.7042 154.112Z" fill="#E8E8E8"/>
<path d="M85.8993 163.482C86.6071 162.884 87.3149 162.306 88.0412 161.746C88.8049 161.148 89.643 160.346 90.5742 159.972C90.9095 159.842 90.7605 159.3 90.4252 159.431C89.5871 159.748 88.898 160.364 88.1902 160.924C87.2776 161.634 86.3836 162.343 85.5082 163.09C85.2288 163.314 85.62 163.706 85.8993 163.482Z" fill="#E8E8E8"/>
<path d="M64.3308 153.011C65.6346 153.141 66.9383 153.272 68.2421 153.384C68.596 153.421 68.596 152.861 68.2421 152.824C66.9383 152.693 65.6346 152.563 64.3308 152.451C63.977 152.413 63.977 152.973 64.3308 153.011Z" fill="#E8E8E8"/>
<path d="M98.5079 190.251C121.845 190.251 145.164 190.251 168.501 190.251C175.075 190.251 181.65 190.251 188.225 190.251C188.578 190.251 188.578 189.691 188.225 189.691C164.887 189.691 141.569 189.691 118.232 189.691C111.657 189.691 105.083 189.691 98.5079 189.691C98.1354 189.691 98.1354 190.251 98.5079 190.251Z" fill="#E8E8E8"/>
<path d="M177.44 144.517C177.44 147.242 177.44 149.968 177.44 152.693C177.44 153.048 177.999 153.048 177.999 152.693C177.999 149.968 177.999 147.242 177.999 144.517C177.999 144.162 177.44 144.162 177.44 144.517Z" fill="#E8E8E8"/>
<path d="M164.59 153.944C173.623 153.944 182.656 153.944 191.689 153.944C192.043 153.944 192.043 153.384 191.689 153.384C182.656 153.384 173.623 153.384 164.59 153.384C164.236 153.384 164.217 153.944 164.59 153.944Z" fill="#E8E8E8"/>
<path d="M170.661 154.093C170.661 156.445 170.661 158.797 170.661 161.167C170.661 161.522 171.22 161.522 171.22 161.167C171.22 158.815 171.22 156.463 171.22 154.093C171.22 153.719 170.661 153.719 170.661 154.093Z" fill="#E8E8E8"/>
<path d="M184.63 153.943C184.63 156.015 184.63 158.106 184.63 160.178C184.63 160.533 185.189 160.533 185.189 160.178C185.189 158.106 185.189 156.015 185.189 153.943C185.189 153.589 184.63 153.589 184.63 153.943Z" fill="#E8E8E8"/>
<path d="M175.783 161.71C182.693 161.71 189.603 161.71 196.513 161.71C196.867 161.71 196.867 161.15 196.513 161.15C189.603 161.15 182.693 161.15 175.783 161.15C175.429 161.15 175.429 161.71 175.783 161.71Z" fill="#E8E8E8"/>
<path d="M160.157 195.663C175.411 195.663 190.665 195.663 205.919 195.663C206.273 195.663 206.273 195.103 205.919 195.103C190.665 195.103 175.411 195.103 160.157 195.103C159.803 195.103 159.803 195.663 160.157 195.663Z" fill="#E8E8E8"/>
<path d="M223.24 190.829C238.215 190.829 253.208 190.829 268.182 190.829C272.391 190.829 276.601 190.829 280.81 190.829C281.164 190.829 281.164 190.269 280.81 190.269C265.835 190.269 250.842 190.269 235.868 190.269C231.659 190.269 227.449 190.269 223.24 190.269C222.886 190.269 222.886 190.829 223.24 190.829Z" fill="#E8E8E8"/>
<path d="M37.5672 200.386C52.9142 200.386 68.2798 200.386 83.6268 200.386C83.9806 200.386 83.9806 199.826 83.6268 199.826C68.2798 199.826 52.9142 199.826 37.5672 199.826C37.2133 199.826 37.2133 200.386 37.5672 200.386Z" fill="#E8E8E8"/>
<path d="M68.5216 205.987C81.0562 205.987 93.5908 205.987 106.125 205.987C106.479 205.987 106.479 205.427 106.125 205.427C93.5908 205.427 81.0562 205.427 68.5216 205.427C68.1491 205.427 68.1491 205.987 68.5216 205.987Z" fill="#E8E8E8"/>
<path d="M259.074 46.3872C259.074 41.1792 259.074 35.9899 259.074 30.7819C259.074 30.4272 258.516 30.4272 258.516 30.7819C258.516 35.9899 258.516 41.1792 258.516 46.3872C258.516 46.7419 259.074 46.7419 259.074 46.3872Z" fill="#E8E8E8"/>
<path d="M258.981 30.6694C265.705 30.6694 272.429 30.6694 279.152 30.6694C279.506 30.6694 279.506 30.1094 279.152 30.1094C272.429 30.1094 265.705 30.1094 258.981 30.1094C258.627 30.1094 258.627 30.6694 258.981 30.6694Z" fill="#E8E8E8"/>
<path d="M278.873 30.4262C278.835 35.7088 278.798 40.9915 278.742 46.2742C278.742 46.6288 279.301 46.6288 279.301 46.2742C279.338 40.9915 279.375 35.7088 279.431 30.4262C279.431 30.0715 278.873 30.0715 278.873 30.4262Z" fill="#E8E8E8"/>
<path d="M259.074 46.6667C265.704 46.6667 272.335 46.6667 278.965 46.6667C279.319 46.6667 279.319 46.1067 278.965 46.1067C272.335 46.1067 265.704 46.1067 259.074 46.1067C258.72 46.1067 258.72 46.6667 259.074 46.6667Z" fill="#E8E8E8"/>
<path d="M259.614 31.8646C259.614 36.2513 259.614 40.6193 259.614 45.006C259.614 45.3606 260.173 45.3606 260.173 45.006C260.173 40.6193 260.173 36.2513 260.173 31.8646C260.173 31.51 259.614 31.51 259.614 31.8646Z" fill="#E8E8E8"/>
<path d="M260.024 32.1437C265.909 32.1437 271.776 32.1437 277.661 32.1437C278.015 32.1437 278.015 31.5837 277.661 31.5837C271.776 31.5837 265.909 31.5837 260.024 31.5837C259.651 31.5837 259.651 32.1437 260.024 32.1437Z" fill="#E8E8E8"/>
<path d="M277.364 31.9945C277.346 36.2879 277.327 40.5812 277.309 44.8932C277.309 45.2479 277.867 45.2479 277.867 44.8932C277.886 40.5999 277.905 36.3065 277.923 31.9945C277.923 31.6398 277.364 31.6398 277.364 31.9945Z" fill="#E8E8E8"/>
<path d="M260.136 45.3601C265.928 45.3601 271.72 45.3601 277.513 45.3601C277.867 45.3601 277.867 44.8 277.513 44.8C271.72 44.8 265.928 44.8 260.136 44.8C259.782 44.8 259.782 45.3601 260.136 45.3601Z" fill="#E8E8E8"/>
<path d="M260.024 41.4963C262.166 40.7496 264.42 41.4216 266.506 42.0376C268.629 42.6536 270.715 43.4003 272.745 44.2589C273.081 44.3896 273.23 43.8483 272.894 43.7176C270.641 42.7656 268.331 41.9629 265.984 41.3096C263.992 40.7683 261.887 40.2456 259.876 40.9549C259.54 41.0669 259.689 41.6083 260.024 41.4963Z" fill="#E8E8E8"/>
<path d="M267.102 42.13C270.622 41.9247 273.918 40.506 277.401 40.114C277.755 40.0767 277.755 39.5167 277.401 39.554C273.918 39.946 270.622 41.346 267.102 41.57C266.729 41.6074 266.729 42.1674 267.102 42.13Z" fill="#E8E8E8"/>
<path d="M273.77 35.2982C272.988 34.8502 273.695 33.3755 274.534 33.7302C274.981 33.9168 275.074 34.4582 274.832 34.8502C274.571 35.2795 274.031 35.3542 273.584 35.2235C273.23 35.1302 273.081 35.6715 273.435 35.7648C274.18 35.9702 275.018 35.7462 275.39 35.0182C275.726 34.3648 275.465 33.5062 274.757 33.2075C273.304 32.5915 272.112 35.0182 273.49 35.7835C273.788 35.9515 274.086 35.4662 273.77 35.2982Z" fill="#E8E8E8"/>
<path d="M268.07 30.2959C268.089 29.9786 268.107 29.6613 268.2 29.3626C268.275 29.1199 268.461 28.5413 268.74 28.4293C269.243 28.2426 269.43 30.0159 269.467 30.3519C269.504 30.7066 270.063 30.7066 270.026 30.3519C269.97 29.6986 269.821 27.6453 268.778 27.7946C268.331 27.8506 268.014 28.3546 267.846 28.7279C267.623 29.2133 267.548 29.7546 267.53 30.2773C267.511 30.6506 268.07 30.6506 268.07 30.2959Z" fill="#E8E8E8"/>
<path d="M271.199 117.376C271.199 119.616 271.199 121.875 271.199 124.115C271.199 124.469 271.758 124.469 271.758 124.115C271.758 121.875 271.758 119.616 271.758 117.376C271.758 117.021 271.199 117.021 271.199 117.376Z" fill="#E8E8E8"/>
<path d="M264.438 124.936C269.504 124.936 274.589 124.936 279.655 124.936C280.009 124.936 280.009 124.376 279.655 124.376C274.589 124.376 269.504 124.376 264.438 124.376C264.084 124.376 264.084 124.936 264.438 124.936Z" fill="#E8E8E8"/>
<path d="M266.58 125.103C266.58 126.167 266.58 127.213 266.58 128.277C266.58 128.631 267.139 128.631 267.139 128.277C267.139 127.213 267.139 126.167 267.139 125.103C267.139 124.749 266.58 124.749 266.58 125.103Z" fill="#E8E8E8"/>
<path d="M274.719 125.272C274.719 126.523 274.719 127.792 274.719 129.043C274.719 129.398 275.278 129.398 275.278 129.043C275.278 127.792 275.278 126.523 275.278 125.272C275.278 124.899 274.719 124.899 274.719 125.272Z" fill="#E8E8E8"/>
<path d="M270.77 129.77C274.29 129.77 277.811 129.77 281.331 129.77C281.685 129.77 281.685 129.21 281.331 129.21C277.811 129.21 274.29 129.21 270.77 129.21C270.416 129.21 270.416 129.77 270.77 129.77Z" fill="#E8E8E8"/>
<path d="M141.904 184.352C147.771 180.376 150.714 178.378 151.477 178.136C153.34 177.538 159.374 175.616 164.645 178.845C168.426 181.16 171.909 186.181 170.456 189.541C169.413 191.93 166.228 192.677 163.341 193.368C159.076 194.376 155.426 193.816 153.377 193.33C152.576 194.114 151.291 195.16 149.484 195.85C146.486 197.008 143.021 196.802 142.854 196.112C142.779 195.757 143.524 195.066 147.138 193.648C146.709 193.181 146.076 192.621 145.182 192.229C142.537 191.016 139.892 192.192 139.39 192.434C141.978 193.946 142.537 194.73 142.407 195.16C142.072 196.242 136.801 196.597 135.385 194.114C135.236 193.872 134.826 193.032 135.162 191.445C135.832 188.533 138.253 186.834 141.904 184.352Z" fill="#161616"/>
<path d="M167.457 188.496C168.053 187.264 170.735 187.562 171.778 187.674C173.119 187.824 174.311 187.954 175.391 188.906C176.211 189.616 177.403 191.165 176.975 192.416C176.583 193.61 175.112 193.517 172.262 194.917C171.778 195.16 167.122 197.456 167.439 198.968C167.569 199.584 168.407 199.565 171.07 200.704C173.38 201.674 174.74 202.272 175.876 203.578C176.434 204.232 177.552 205.52 177.254 206.826C176.695 209.234 171.704 209.645 171.573 209.272C171.462 208.954 174.963 208.077 175 206.434C175.038 205.184 173.082 204.176 171.853 203.522C168.239 201.637 165.8 202.309 164.85 200.498C164.31 199.472 164.608 198.37 164.663 198.165C164.943 197.157 165.725 196.298 169.543 194.376C173.026 192.621 174.572 192.21 174.553 191.426C174.535 190.698 173.194 190.101 172.374 189.896C170.065 189.28 168.37 190.736 167.588 189.914C167.252 189.541 167.271 188.906 167.457 188.496Z" fill="#161616"/>
<path d="M135.646 179.461C136.82 180.339 137.993 181.216 139.167 182.093C140.843 181.925 142.5 181.776 144.177 181.608C145.22 180.6 146.263 179.573 147.306 178.565C147.38 179.2 147.529 180.637 147.585 181.328C148.237 187.544 148.293 188.085 147.902 188.795C146.617 191.091 142.277 192.024 139.781 190.419C138.571 189.635 138.105 188.459 137.23 186.2C136.168 183.475 135.795 181.085 135.646 179.461Z" fill="#161616"/>
<path d="M140.377 185.92C140.098 186.499 139.483 186.853 138.85 186.741C138.682 186.704 138.608 186.984 138.775 187.003C139.539 187.133 140.302 186.76 140.619 186.051C140.694 185.901 140.47 185.752 140.377 185.92Z" fill="white"/>
<path d="M142.965 185.733C143.58 186.33 144.399 186.592 145.237 186.461C145.424 186.442 145.331 186.162 145.163 186.2C144.418 186.312 143.692 186.069 143.151 185.546C143.021 185.416 142.835 185.602 142.965 185.733Z" fill="white"/>
<path d="M141.978 187.507C141.922 187.507 141.885 187.488 141.829 187.488C141.848 187.469 141.848 187.432 141.867 187.413C141.904 187.451 141.96 187.488 141.997 187.525C141.997 187.488 141.978 187.469 141.978 187.432C141.922 187.264 141.662 187.339 141.718 187.507C141.811 187.917 141.96 188.552 141.457 188.757C141.289 188.832 141.364 189.093 141.531 189.019C142.202 188.739 142.127 188.011 141.997 187.413C141.904 187.432 141.811 187.469 141.736 187.488C141.736 187.525 141.755 187.544 141.755 187.581C141.773 187.637 141.829 187.693 141.885 187.693C142.369 187.656 141.978 186.984 141.755 187.376C141.662 187.507 141.885 187.656 141.978 187.507Z" fill="white"/>
<path d="M141.793 187.638C141.886 187.955 141.904 188.31 142.109 188.59C142.277 188.814 142.538 188.926 142.817 188.87C142.985 188.832 142.91 188.571 142.743 188.608C142.221 188.72 142.147 187.899 142.053 187.563C142.016 187.395 141.755 187.47 141.793 187.638Z" fill="white"/>
<path d="M140.898 187.899C140.358 187.656 139.799 187.544 139.203 187.581C139.017 187.6 139.017 187.88 139.203 187.861C139.743 187.824 140.265 187.917 140.749 188.141C140.917 188.216 141.066 187.973 140.898 187.899Z" fill="white"/>
<path d="M140.413 188.271C139.948 188.309 139.538 188.495 139.221 188.813C139.091 188.943 139.296 189.13 139.426 189.018C139.706 188.757 140.041 188.589 140.432 188.551C140.581 188.533 140.581 188.253 140.413 188.271Z" fill="white"/>
<path d="M143.078 187.768C143.618 187.563 144.158 187.488 144.735 187.544C144.922 187.563 144.922 187.283 144.735 187.264C144.139 187.208 143.562 187.301 143.003 187.507C142.836 187.563 142.891 187.843 143.078 187.768Z" fill="white"/>
<path d="M143.45 188.271C143.86 188.215 144.251 188.252 144.642 188.402C144.81 188.458 144.884 188.196 144.717 188.14C144.307 187.991 143.879 187.954 143.45 188.01C143.264 188.01 143.264 188.308 143.45 188.271Z" fill="white"/>
<path d="M139.054 185.098C139.333 184.93 139.669 184.93 139.948 185.098C140.097 185.191 140.246 184.949 140.097 184.855C139.725 184.65 139.296 184.65 138.924 184.855C138.756 184.949 138.905 185.191 139.054 185.098Z" fill="white"/>
<path d="M142.966 184.725C143.245 184.576 143.562 184.538 143.897 184.576C144.065 184.594 144.158 184.333 143.971 184.314C143.58 184.258 143.189 184.314 142.835 184.501C142.649 184.557 142.798 184.8 142.966 184.725Z" fill="white"/>
<path d="M138.514 178.864C139.091 178.621 139.669 178.379 140.228 178.117C140.116 178.043 140.023 177.968 139.911 177.875C139.687 178.584 139.352 179.219 138.905 179.816C138.793 179.965 138.98 180.189 139.147 180.133C139.781 179.891 140.414 179.667 141.047 179.424C141.289 179.331 141.196 178.92 140.935 179.013C140.302 179.256 139.669 179.48 139.036 179.723C139.11 179.835 139.185 179.928 139.278 180.04C139.762 179.424 140.097 178.752 140.339 178.005C140.395 177.819 140.19 177.707 140.023 177.763C139.445 178.005 138.868 178.248 138.309 178.509C138.048 178.621 138.272 178.976 138.514 178.864Z" fill="#161616"/>
<path d="M139.445 175.466C139.836 175.242 140.228 175.093 140.656 175C140.581 174.888 140.507 174.794 140.414 174.682C140.246 175.056 140.041 175.429 139.799 175.765C139.706 175.914 139.836 176.064 139.985 176.082C140.488 176.12 140.954 175.989 141.345 175.69C141.55 175.522 141.345 175.168 141.14 175.336C140.805 175.597 140.432 175.709 140.004 175.672C140.06 175.784 140.116 175.877 140.19 175.989C140.432 175.634 140.637 175.28 140.805 174.906C140.879 174.738 140.749 174.552 140.563 174.589C140.097 174.682 139.65 174.85 139.24 175.093C138.998 175.242 139.203 175.597 139.445 175.466Z" fill="#161616"/>
<path d="M142.519 179.984C141.904 179.368 142.966 179.013 143.077 178.472C143.189 177.837 142.444 177.24 143.282 176.755C143.524 176.624 143.301 176.251 143.077 176.4C142.779 176.568 142.537 176.829 142.463 177.184C142.351 177.781 142.873 178.136 142.426 178.677C142.221 178.939 141.979 179.013 141.904 179.368C141.83 179.723 141.979 180.021 142.221 180.283C142.426 180.469 142.724 180.171 142.519 179.984Z" fill="#161616"/>
<path d="M193.942 126.691C147.25 130.07 100.557 133.43 53.8824 136.809C52.6159 102.873 51.3494 68.9367 50.1016 35.0007C96.9993 34.366 143.897 33.7313 190.795 33.0967C191.838 64.2887 192.881 95.4808 193.942 126.691Z" fill="white" stroke="#161616" stroke-width="3.5" stroke-miterlimit="10"/>
<path d="M89.7732 51.5209C98.825 51.5209 107.895 51.5209 116.947 51.5209C117.301 51.5209 117.301 50.9609 116.947 50.9609C107.895 50.9609 98.825 50.9609 89.7732 50.9609C89.4193 50.9609 89.4193 51.5209 89.7732 51.5209Z" fill="#161616"/>
<path d="M99.9415 53.8166C109.273 53.8166 118.604 53.8166 127.935 53.8166C128.289 53.8166 128.289 53.2566 127.935 53.2566C118.604 53.2566 109.273 53.2566 99.9415 53.2566C99.569 53.2566 99.569 53.8166 99.9415 53.8166Z" fill="#161616"/>
<path d="M55.7632 108.585C56.0984 116.388 56.4337 124.209 56.7689 132.012C56.7875 132.367 57.3463 132.367 57.3277 132.012C56.9924 124.209 56.6572 116.388 56.3219 108.585C56.3033 108.231 55.7445 108.231 55.7632 108.585Z" fill="#161616"/>
<path d="M96.7947 104.03C97.5956 104.03 98.3964 104.03 99.2159 104.03C99.5698 104.03 99.5698 103.47 99.2159 103.47C98.4151 103.47 97.6142 103.47 96.7947 103.47C96.4408 103.47 96.4408 104.03 96.7947 104.03Z" fill="#161616"/>
<path d="M101.32 104.03C103.387 104.03 105.436 104.03 107.504 104.03C107.857 104.03 107.857 103.47 107.504 103.47C105.436 103.47 103.387 103.47 101.32 103.47C100.966 103.47 100.966 104.03 101.32 104.03Z" fill="#161616"/>
<path d="M112.178 103.731C114.637 103.731 117.096 103.731 119.573 103.731C119.927 103.731 119.927 103.171 119.573 103.171C117.114 103.171 114.656 103.171 112.178 103.171C111.825 103.171 111.825 103.731 112.178 103.731Z" fill="#161616"/>
<path d="M100.128 107.95C103.145 107.95 106.163 107.95 109.18 107.95C109.534 107.95 109.534 107.39 109.18 107.39C106.163 107.39 103.145 107.39 100.128 107.39C99.7555 107.39 99.7555 107.95 100.128 107.95Z" fill="#161616"/>
<path d="M104.487 105.84C108.007 105.84 111.527 105.84 115.047 105.84C115.401 105.84 115.401 105.281 115.047 105.281C111.527 105.281 108.007 105.281 104.487 105.281C104.133 105.281 104.133 105.84 104.487 105.84Z" fill="#161616"/>
<path d="M123.186 125.796C129.109 125.796 135.05 125.796 140.973 125.796C141.327 125.796 141.327 125.236 140.973 125.236C135.05 125.236 129.109 125.236 123.186 125.236C122.832 125.236 122.832 125.796 123.186 125.796Z" fill="#161616"/>
<path d="M137.806 127.307C140.917 127.307 144.046 127.307 147.156 127.307C147.51 127.307 147.51 126.747 147.156 126.747C144.046 126.747 140.917 126.747 137.806 126.747C137.453 126.747 137.453 127.307 137.806 127.307Z" fill="#161616"/>
<path d="M145.946 125.03C149.019 125.03 152.074 125.03 155.147 125.03C155.501 125.03 155.501 124.47 155.147 124.47C152.074 124.47 149.019 124.47 145.946 124.47C145.592 124.47 145.592 125.03 145.946 125.03Z" fill="#161616"/>
<path d="M161.628 74.4243C167.308 74.4243 172.989 74.4243 178.67 74.4243C179.023 74.4243 179.023 73.8643 178.67 73.8643C172.989 73.8643 167.308 73.8643 161.628 73.8643C161.274 73.8643 161.274 74.4243 161.628 74.4243Z" fill="#161616"/>
<path d="M156.358 75.3207C158.164 75.3207 159.971 75.3207 161.777 75.3207C162.131 75.3207 162.131 74.7607 161.777 74.7607C159.971 74.7607 158.164 74.7607 156.358 74.7607C155.985 74.7607 155.985 75.3207 156.358 75.3207Z" fill="#161616"/>
<path d="M157.4 76.8327C163.472 76.8327 169.562 76.8327 175.634 76.8327C175.988 76.8327 175.988 76.2727 175.634 76.2727C169.562 76.2727 163.472 76.2727 157.4 76.2727C157.046 76.2727 157.046 76.8327 157.4 76.8327Z" fill="#161616"/>
<path d="M179.881 75.4704C181.036 75.4704 182.19 75.4704 183.345 75.4704C183.699 75.4704 183.699 74.9104 183.345 74.9104C182.19 74.9104 181.036 74.9104 179.881 74.9104C179.508 74.9104 179.508 75.4704 179.881 75.4704Z" fill="#161616"/>
<path d="M175.355 98.2807C177.068 98.2807 178.763 98.2807 180.476 98.2807C180.83 98.2807 180.83 97.7207 180.476 97.7207C178.763 97.7207 177.068 97.7207 175.355 97.7207C174.982 97.7207 174.982 98.2807 175.355 98.2807Z" fill="#161616"/>
<path d="M172.039 99.7924C173.902 99.7924 175.764 99.7924 177.608 99.7924C177.962 99.7924 177.962 99.2324 177.608 99.2324C175.745 99.2324 173.883 99.2324 172.039 99.2324C171.667 99.2324 171.667 99.7924 172.039 99.7924Z" fill="#161616"/>
<path d="M174.74 101.305C178.409 101.305 182.078 101.305 185.747 101.305C186.101 101.305 186.101 100.745 185.747 100.745C182.078 100.745 178.409 100.745 174.74 100.745C174.386 100.745 174.386 101.305 174.74 101.305Z" fill="#161616"/>
<path d="M181.688 99.4933C182.786 99.4933 183.904 99.4933 185.003 99.4933C185.357 99.4933 185.357 98.9333 185.003 98.9333C183.904 98.9333 182.786 98.9333 181.688 98.9333C181.315 98.9333 181.315 99.4933 181.688 99.4933Z" fill="#161616"/>
<path d="M104.97 76.2165C107.578 76.2165 110.167 76.2165 112.774 76.2165C113.128 76.2165 113.128 75.6565 112.774 75.6565C110.167 75.6565 107.578 75.6565 104.97 75.6565C104.617 75.6565 104.617 76.2165 104.97 76.2165Z" fill="#161616"/>
<path d="M110.651 77.8224C114.488 77.8224 118.343 77.8224 122.18 77.8224C122.534 77.8224 122.534 77.2625 122.18 77.2625C118.343 77.2625 114.488 77.2625 110.651 77.2625C110.297 77.2625 110.279 77.8224 110.651 77.8224Z" fill="#161616"/>
<path d="M120.764 75.6752C122.944 75.6752 125.141 75.6752 127.32 75.6752C127.674 75.6752 127.674 75.1152 127.32 75.1152C125.141 75.1152 122.944 75.1152 120.764 75.1152C120.411 75.1152 120.411 75.6752 120.764 75.6752Z" fill="#161616"/>
<path d="M54.1055 45.8827C54.5152 60.0507 54.925 74.2374 55.3347 88.4054C55.4465 92.4374 55.5582 96.4507 55.6886 100.483C55.7072 100.837 56.266 100.837 56.2474 100.483C55.8376 86.3147 55.4279 72.128 55.0181 57.96C54.9063 53.928 54.7946 49.9147 54.6642 45.8827C54.6642 45.528 54.1055 45.528 54.1055 45.8827Z" fill="#161616"/>
<path d="M189.491 92.1954C189.771 101.566 190.05 110.918 190.329 120.289C190.348 120.643 190.907 120.643 190.888 120.289C190.609 110.918 190.329 101.566 190.05 92.1954C190.05 91.8408 189.491 91.8408 189.491 92.1954Z" fill="#161616"/>
<path d="M150.919 87.8999C151.031 89.0386 151.142 90.196 151.236 91.3346C152.316 91.0546 153.378 90.756 154.458 90.476C154.309 89.3373 154.178 88.1799 154.029 87.0413C152.986 87.3213 151.962 87.6199 150.919 87.8999Z" fill="#EC615B"/>
<path d="M150.267 96.6176C151.384 96.4682 152.483 96.3376 153.6 96.1882C153.749 97.5509 153.88 98.9136 154.029 100.276C153.023 100.314 152.017 100.351 151.03 100.388C150.769 99.1189 150.527 97.8682 150.267 96.6176Z" fill="#EC615B"/>
<path d="M154.346 104.888C154.7 106.064 155.053 107.259 155.426 108.435C156.432 107.968 157.437 107.501 158.424 107.035C158.108 105.989 157.773 104.963 157.456 103.917C156.432 104.253 155.389 104.571 154.346 104.888Z" fill="#EC615B"/>
<path d="M80.7207 116.012C80.9628 119.634 81.205 123.255 81.4471 126.858C87.7796 126.447 94.1121 126.055 100.445 125.644C100.556 122.396 100.687 119.13 100.798 115.882C94.1121 115.938 87.4071 115.975 80.7207 116.012Z" fill="#5222D0"/>
<path d="M159.449 42.336C160.18 42.336 160.772 41.8429 160.772 41.2346C160.772 40.6264 160.18 40.1333 159.449 40.1333C158.719 40.1333 158.127 40.6264 158.127 41.2346C158.127 41.8429 158.719 42.336 159.449 42.336Z" fill="#5222D0"/>
<path d="M69.5833 50.5859C70.1901 50.5859 70.6821 50.2599 70.6821 49.8579C70.6821 49.4558 70.1901 49.1299 69.5833 49.1299C68.9764 49.1299 68.4844 49.4558 68.4844 49.8579C68.4844 50.2599 68.9764 50.5859 69.5833 50.5859Z" fill="#EC615B"/>
<path d="M87.0726 71.6977C87.5458 71.6977 87.9294 71.2464 87.9294 70.6897C87.9294 70.1329 87.5458 69.6816 87.0726 69.6816C86.5994 69.6816 86.2158 70.1329 86.2158 70.6897C86.2158 71.2464 86.5994 71.6977 87.0726 71.6977Z" fill="#EC615B"/>
<path opacity="0.21" d="M79.2125 46.5545C79.5478 46.4985 80.1997 49.6158 81.8014 55.2718C83.906 62.7198 85.992 68.7304 87.5007 72.8371C85.2098 74.2558 80.0879 76.9624 73.1036 77.0558C68.1679 77.1118 64.2753 75.8424 61.9658 74.8718C66.4917 75.3758 70.1422 75.2451 72.6938 75.0024C76.7354 74.6291 76.0277 74.1998 79.0822 74.0504C80.3487 73.9944 82.0063 73.9944 83.7012 72.9678C84.3158 72.5944 84.7628 72.1838 85.0608 71.8851C83.8688 69.4211 82.3415 65.7998 81.1123 61.2638C79.1567 53.8905 78.7283 46.6478 79.2125 46.5545Z" fill="#6D6C6C"/>
<path opacity="0.25" d="M96.6646 66.8079C96.9626 69.1785 97.5027 71.8292 98.3967 74.6665C100.948 82.7305 105.251 88.4799 108.491 92.0266C106.554 93.4639 104.152 94.9572 101.265 96.2079C92.5112 99.9972 84.3348 99.4372 79.9579 98.7652C79.7903 97.7759 79.6227 96.7866 79.4551 95.7972C81.3176 95.8532 83.2918 95.8159 85.3592 95.7039C92.7347 95.2372 99.0672 93.5759 104.115 91.7279C102.513 89.0026 101.358 86.6506 100.557 84.8772C98.6202 80.6399 97.186 77.4479 96.6832 73.1359C96.3665 70.5039 96.4969 68.2825 96.6646 66.8079Z" fill="#6D6C6C"/>
<path opacity="0.14" d="M155.873 79.1646C156.059 83.4206 156.506 86.9486 156.898 89.4872C157.81 95.3112 158.481 99.3432 160.865 103.879C162.355 106.698 164.031 108.77 165.242 110.114C163.137 111.925 160.306 113.978 156.674 115.621C147.548 119.783 138.98 118.943 134.976 118.271C134.771 117.357 134.566 116.442 134.361 115.509C134.864 115.546 135.646 115.583 136.596 115.602C139.763 115.677 146.356 115.789 153.918 113.25C156.041 112.541 159.021 111.346 162.373 109.367C161.051 107.594 159.747 105.485 158.611 103.039C154.122 93.3886 155.016 84.0179 155.873 79.1646Z" fill="#6D6C6C"/>
<path opacity="0.18" d="M170.139 37.2952C170.512 39.0312 171.052 41.6818 171.592 44.9858C172.598 51.3698 172.523 53.6845 173.697 57.4552C174.311 59.4152 175.41 62.1965 177.478 65.3699C175.746 66.7885 173.585 68.2632 170.922 69.4952C162.205 73.5458 153.861 72.4072 150.024 71.6045C150.062 70.8579 150.099 70.1112 150.136 69.3832C150.62 69.5139 151.347 69.6819 152.241 69.8312C153.414 70.0179 157.754 70.6525 165.912 68.5992C168.165 68.0392 171.201 67.1432 174.684 65.7058C174.013 64.5112 173.026 62.6445 172.132 60.2552C169.525 53.3298 169.543 47.3192 169.581 44.2205C169.599 42.5218 169.711 40.1512 170.139 37.2952Z" fill="#6D6C6C"/>
<path d="M58.7995 45.49C56.9556 55.2713 58.8181 65.1646 60.6806 74.7966C60.7551 75.1513 61.2953 75.002 61.2208 74.6473C59.3769 65.1273 57.533 55.3273 59.3396 45.6393C59.3955 45.3033 58.8554 45.1353 58.7995 45.49Z" fill="#161616"/>
<path d="M59.3208 45.4153C61.9841 47.2073 65.2063 47.5246 68.3539 47.3006C71.9485 47.0393 75.5059 46.274 79.0633 45.6766C79.4171 45.6206 79.2681 45.0793 78.9143 45.1353C75.5059 45.6953 72.0975 46.4233 68.6519 46.7033C65.5043 46.9646 62.2821 46.722 59.6001 44.9113C59.3021 44.7246 59.0228 45.21 59.3208 45.4153Z" fill="#161616"/>
<path d="M78.6909 46.069C79.2124 54.9916 80.5534 64.101 85.0607 71.941C85.2469 72.2583 85.7312 71.9783 85.5449 71.661C81.0935 63.8956 79.7711 54.8796 79.2496 46.069C79.231 45.7143 78.6723 45.7143 78.6909 46.069Z" fill="#161616"/>
<path d="M61.1467 74.9454C65.3746 76.1774 69.9191 75.4307 74.2214 75.076C78.0395 74.7587 82.137 74.6094 85.415 72.3694C85.713 72.1641 85.4337 71.6788 85.1357 71.8841C81.839 74.1427 77.7043 74.2174 73.8676 74.5347C69.7328 74.8707 65.3746 75.5614 61.2957 74.3854C60.9418 74.3107 60.7928 74.852 61.1467 74.9454Z" fill="#161616"/>
<path d="M68.2986 49.9702C67.9261 49.8022 68.3358 49.4475 68.5593 49.3915C68.8387 49.3168 69.3788 49.2795 69.5092 49.5968C69.6023 49.8395 69.4533 50.1568 69.2298 50.2502C68.8759 50.4182 68.4848 50.2128 68.2427 49.9702C67.9819 49.7088 67.5908 50.1008 67.8516 50.3622C68.3172 50.8288 69.0808 51.0715 69.6582 50.6422C70.1238 50.3062 70.2914 49.5595 69.9003 49.1115C69.4533 48.6075 68.5034 48.6635 68.0006 49.0368C67.5536 49.3728 67.4604 50.1755 68.0378 50.4368C68.3544 50.6048 68.6338 50.1195 68.2986 49.9702Z" fill="#161616"/>
<path d="M75.7667 75.0207C74.4257 81.834 75.8598 88.722 77.3125 95.4047C77.387 95.7593 77.9271 95.61 77.8526 95.2553C76.4185 88.6847 75.003 81.89 76.3068 75.17C76.3813 74.8153 75.8412 74.666 75.7667 75.0207Z" fill="#161616"/>
<path d="M83.4588 67.8712C87.7611 67.0499 92.1194 66.7512 96.4776 66.9192C96.3845 66.8259 96.2914 66.7325 96.1983 66.6392C95.3229 75.6365 99.1597 84.2045 103.816 91.6525C104.002 91.9512 104.486 91.6712 104.3 91.3725C99.6998 83.9992 95.8816 75.5432 96.757 66.6392C96.7756 66.4899 96.608 66.3592 96.4776 66.3592C92.0635 66.1912 87.6494 66.5085 83.3098 67.3299C82.9559 67.4045 83.1049 67.9459 83.4588 67.8712Z" fill="#161616"/>
<path d="M77.6111 95.7973C86.6629 96.8613 95.845 95.4986 104.226 91.9146C104.561 91.7653 104.263 91.2986 103.947 91.4293C95.6773 94.976 86.5511 96.2826 77.6111 95.2373C77.2572 95.2 77.2572 95.76 77.6111 95.7973Z" fill="#161616"/>
<path d="M86.9601 70.1681C86.9601 70.1494 87.0159 70.0561 87.0159 70.0188C87.0346 69.9441 87.0904 69.8694 87.1463 69.8134C87.2581 69.7201 87.3884 69.6454 87.5374 69.6268C87.8168 69.5894 88.0776 69.7388 88.1521 70.0188C88.2079 70.2428 88.1148 70.5414 87.8541 70.5788C87.612 70.6161 87.3884 70.4481 87.3512 70.2054C87.2953 69.8508 86.7552 70.0001 86.8111 70.3548C86.9042 71.0081 87.7423 71.3254 88.2825 71.0081C88.8785 70.6534 88.8412 69.7388 88.3383 69.3094C87.7796 68.8428 86.8483 69.0854 86.5317 69.7201C86.3827 70.0374 86.3827 70.4668 86.7366 70.6534C87.0159 70.8028 87.4257 70.6721 87.5002 70.3174C87.5561 69.9628 87.0159 69.8134 86.9601 70.1681Z" fill="#161616"/>
<path d="M60.6437 55.6443C65.598 56.335 70.515 55.3083 75.2644 53.9457C75.6182 53.8523 75.4692 53.311 75.1153 53.4043C70.4591 54.7297 65.6352 55.775 60.7927 55.103C60.4389 55.047 60.2899 55.5883 60.6437 55.6443Z" fill="#161616"/>
<path d="M61.575 59.3036C64.1452 59.5836 66.7155 59.3222 69.1926 58.5382C69.5278 58.4262 69.3975 57.8849 69.0436 57.9969C66.6223 58.7622 64.108 59.0049 61.575 58.7435C61.2211 58.7062 61.2211 59.2662 61.575 59.3036Z" fill="#161616"/>
<path d="M61.575 63.821C66.492 64.3996 71.4462 64.045 76.2142 62.7943C76.5681 62.701 76.4191 62.1596 76.0652 62.253C71.3345 63.5036 66.4361 63.8396 61.575 63.261C61.2211 63.205 61.2211 63.765 61.575 63.821Z" fill="#161616"/>
<path d="M79.9757 92.4745C84.9113 92.6985 89.8469 92.1012 94.5776 90.6825C94.9129 90.5891 94.7825 90.0478 94.4286 90.1411C89.7351 91.5412 84.874 92.1385 79.9757 91.9145C79.6032 91.8958 79.6032 92.4558 79.9757 92.4745Z" fill="#161616"/>
<path d="M80.9256 88.1994C83.1233 88.1248 85.3211 87.9568 87.5188 87.7141C87.8727 87.6768 87.8727 87.1168 87.5188 87.1541C85.3211 87.3968 83.1419 87.5648 80.9256 87.6395C80.5717 87.6581 80.5717 88.2181 80.9256 88.1994Z" fill="#161616"/>
<path d="M82.7136 80.5086C84.1664 80.6953 85.675 80.3219 87.1092 80.1166C88.6923 79.8739 90.2568 79.6499 91.8399 79.4072C92.1938 79.3512 92.0448 78.8099 91.6909 78.8659C90.2382 79.0899 88.7668 79.3139 87.314 79.5192C85.8054 79.7432 84.2409 80.1539 82.7136 79.9486C82.3598 79.8926 82.3598 80.4526 82.7136 80.5086Z" fill="#161616"/>
<path d="M148.534 38.6581C146.504 48.6448 146.299 58.9115 147.92 68.9728C147.976 69.3275 148.516 69.1781 148.46 68.8235C146.858 58.8741 147.082 48.6821 149.074 38.8074C149.149 38.4528 148.609 38.3035 148.534 38.6581Z" fill="#161616"/>
<path d="M149.168 38.7887C155.929 37.2394 162.913 36.9221 169.805 37.8554C170.158 37.9114 170.307 37.3701 169.954 37.3141C162.969 36.3621 155.892 36.6794 149.019 38.2474C148.684 38.3407 148.833 38.8821 149.168 38.7887Z" fill="#161616"/>
<path d="M169.637 37.3512C169.432 46.9645 169.562 57.1192 174.423 65.7245C174.61 66.0419 175.075 65.7619 174.908 65.4445C170.102 56.9325 169.991 46.8712 170.196 37.3512C170.214 36.9965 169.655 36.9965 169.637 37.3512Z" fill="#161616"/>
<path d="M148.348 69.2713C150.434 69.906 152.669 69.9433 154.83 69.962C157.158 69.9806 159.486 69.8313 161.814 69.514C166.266 68.9166 170.605 67.7033 174.759 65.9486C175.094 65.8179 174.796 65.3326 174.479 65.4633C170.326 67.218 165.949 68.4126 161.479 68.9913C159.393 69.2526 157.288 69.402 155.184 69.3833C152.967 69.3833 150.639 69.3646 148.516 68.7113C148.144 68.6366 148.013 69.178 148.348 69.2713Z" fill="#161616"/>
<path d="M159.747 39.3867C159.114 39.6107 158.834 40.3387 159.058 40.9547C159.318 41.6454 160.119 41.8134 160.715 41.4027C161.293 40.992 161.479 40.1707 160.92 39.648C160.436 39.2 159.598 39.1814 159.151 39.6667C158.909 39.928 159.3 40.32 159.542 40.0587C160.101 39.4614 161.2 40.3014 160.436 40.8987C160.138 41.1227 159.71 41.1227 159.579 40.7307C159.486 40.432 159.579 40.0214 159.896 39.9094C160.231 39.7974 160.082 39.256 159.747 39.3867Z" fill="#161616"/>
<path d="M148.814 47.3381C153.898 47.4688 158.964 47.3754 164.03 47.0395C164.384 47.0208 164.384 46.4608 164.03 46.4795C158.964 46.8155 153.88 46.9275 148.814 46.7781C148.441 46.7781 148.441 47.3381 148.814 47.3381Z" fill="#161616"/>
<path d="M149.316 50.1754C151.216 50.2501 153.116 50.3248 154.997 50.3994C155.351 50.4181 155.351 49.8581 154.997 49.8394C153.097 49.7648 151.198 49.6901 149.316 49.6154C148.944 49.5968 148.944 50.1568 149.316 50.1754Z" fill="#161616"/>
<path d="M148.796 54.1333C153.582 54.3946 158.425 54.6186 163.137 53.5733C163.491 53.4986 163.342 52.9573 162.988 53.032C158.313 54.0586 153.526 53.8346 148.796 53.5733C148.442 53.5546 148.442 54.1146 148.796 54.1333Z" fill="#161616"/>
<path d="M79.3618 114.818C78.9334 118.551 78.7844 122.303 78.9148 126.055C78.9334 126.41 79.4921 126.41 79.4735 126.055C79.3431 122.303 79.4921 118.551 79.9205 114.818C79.9578 114.463 79.399 114.463 79.3618 114.818Z" fill="#161616"/>
<path d="M79.5476 115.042C86.1781 115.042 92.8273 114.948 99.4578 114.743C99.8116 114.724 99.8116 114.164 99.4578 114.183C92.8273 114.388 86.1781 114.482 79.5476 114.482C79.1938 114.482 79.1938 115.042 79.5476 115.042Z" fill="#161616"/>
<path d="M99.4018 114.483C99.4577 117.731 99.5135 120.96 99.5694 124.208C99.5694 124.563 100.128 124.563 100.128 124.208C100.072 120.96 100.016 117.731 99.9605 114.483C99.9605 114.128 99.3832 114.128 99.4018 114.483Z" fill="#161616"/>
<path d="M78.8584 125.645C78.8956 126.858 81.0003 126.317 81.6894 126.279C83.6637 126.149 85.6379 126.018 87.5935 125.869C91.5979 125.589 95.6023 125.327 99.6066 125.047C99.9605 125.029 99.9605 124.469 99.6066 124.487C96.1983 124.711 92.8085 124.954 89.4001 125.178C87.7798 125.29 86.1594 125.402 84.539 125.514C84.0548 125.551 79.4171 125.999 79.3985 125.645C79.4171 125.29 78.8584 125.29 78.8584 125.645Z" fill="#161616"/>
<path d="M81.0567 117.562C85.5267 117.357 89.9967 117.525 94.4294 118.085C94.7833 118.122 94.7833 117.562 94.4294 117.525C89.9967 116.965 85.5267 116.797 81.0567 117.002C80.6842 117.021 80.6842 117.581 81.0567 117.562Z" fill="#161616"/>
<path d="M81.2244 120.399C83.7201 120.212 86.2345 120.007 88.7303 119.82C89.0841 119.801 89.0841 119.241 88.7303 119.26C86.2345 119.447 83.7201 119.652 81.2244 119.839C80.8705 119.857 80.8705 120.417 81.2244 120.399Z" fill="#161616"/>
<path d="M82.0622 123.256C85.6568 122.789 89.5681 121.837 93.1813 122.491C93.5352 122.547 93.6842 122.024 93.3303 121.949C89.6426 121.277 85.7313 122.211 82.0622 122.696C81.7269 122.752 81.7083 123.312 82.0622 123.256Z" fill="#161616"/>
<path d="M130.506 83.047C127.544 93.6124 127.917 104.924 131.549 115.284C131.661 115.62 132.201 115.471 132.089 115.135C128.494 104.868 128.122 93.6684 131.046 83.1964C131.139 82.8417 130.599 82.6924 130.506 83.047Z" fill="#161616"/>
<path d="M130.878 83.2338C139.166 83.1965 147.417 82.1138 155.444 80.0045C155.798 79.9112 155.649 79.3698 155.295 79.4632C147.324 81.5538 139.129 82.6365 130.878 82.6738C130.506 82.6738 130.506 83.2338 130.878 83.2338Z" fill="#161616"/>
<path d="M155.296 79.6691C154.96 84.8584 155.184 90.0851 156.115 95.2184C156.581 97.8131 157.139 100.408 158.164 102.834C159.188 105.242 160.604 107.426 162.261 109.424C162.485 109.704 162.895 109.312 162.652 109.032C160.958 106.997 159.523 104.738 158.518 102.274C157.568 99.9224 157.046 97.4024 156.618 94.9197C155.724 89.8984 155.519 84.7651 155.836 79.6691C155.873 79.3144 155.314 79.3144 155.296 79.6691Z" fill="#161616"/>
<path d="M131.623 115.584C142.165 116.331 153.172 115.136 162.41 109.685C162.727 109.499 162.447 109.013 162.131 109.2C152.948 114.613 142.053 115.752 131.623 115.024C131.269 114.987 131.269 115.547 131.623 115.584Z" fill="#161616"/>
<path d="M142.836 84.9137C142.519 84.3724 143.152 83.7004 143.692 84.1298C144.27 84.5964 143.655 85.3431 143.041 85.1004C142.705 84.9697 142.556 85.5111 142.892 85.6417C143.394 85.8471 144.009 85.6231 144.307 85.1751C144.642 84.6711 144.493 84.0364 144.028 83.6818C143.022 82.8791 141.755 84.1298 142.351 85.1937C142.538 85.5111 143.022 85.2311 142.836 84.9137Z" fill="#161616"/>
<path d="M131.064 91.3544C136.633 91.261 142.202 90.869 147.752 90.197C148.106 90.1597 148.106 89.5997 147.752 89.637C142.221 90.3277 136.652 90.701 131.064 90.7944C130.71 90.813 130.71 91.373 131.064 91.3544Z" fill="#161616"/>
<path d="M149.745 87.6021C149.913 88.4608 150.081 89.3381 150.248 90.1968C150.323 90.5514 150.863 90.4021 150.788 90.0474C150.621 89.1888 150.453 88.3114 150.285 87.4528C150.23 87.0981 149.689 87.2475 149.745 87.6021Z" fill="#161616"/>
<path d="M150.118 87.5279C151.142 87.3786 152.167 87.2292 153.21 87.0612C153.563 87.0052 153.414 86.4639 153.061 86.5199C152.036 86.6693 151.012 86.8186 149.969 86.9866C149.615 87.0426 149.764 87.5839 150.118 87.5279Z" fill="#161616"/>
<path d="M153.042 86.8929C153.191 87.6956 153.322 88.4983 153.471 89.2823C153.526 89.6369 154.067 89.4876 154.011 89.1329C153.862 88.3303 153.731 87.5276 153.582 86.7436C153.526 86.4076 152.986 86.5569 153.042 86.8929Z" fill="#161616"/>
<path d="M150.714 90.6262C151.813 90.4022 152.855 90.1035 153.898 89.6929C154.234 89.5622 154.085 89.0209 153.749 89.1515C152.706 89.5435 151.645 89.8609 150.565 90.0849C150.211 90.1595 150.36 90.7009 150.714 90.6262Z" fill="#161616"/>
<path d="M150.807 88.1628C151.012 88.6295 151.292 89.0028 151.701 89.3202C151.85 89.4322 152.13 89.4322 152.167 89.1895C152.316 88.1815 152.67 87.2855 153.266 86.4455C153.471 86.1469 152.987 85.8669 152.782 86.1655C152.167 87.0242 151.776 87.9948 151.627 89.0402C151.776 89.0028 151.944 88.9655 152.093 88.9095C151.739 88.6295 151.478 88.2935 151.292 87.8642C151.143 87.5469 150.658 87.8268 150.807 88.1628Z" fill="#161616"/>
<path d="M151.012 96.1701C150.714 97.5141 150.844 98.8207 151.384 100.071C151.533 100.407 151.999 100.109 151.869 99.7914C151.384 98.6901 151.291 97.4954 151.552 96.3194C151.626 95.9647 151.086 95.8154 151.012 96.1701Z" fill="#161616"/>
<path d="M151.384 96.3571C152.502 96.1704 153.619 96.0024 154.737 95.8157C154.625 95.7037 154.513 95.5917 154.402 95.4797C154.215 96.6744 154.346 97.8131 154.812 98.9331C154.942 99.2691 155.482 99.1198 155.352 98.7838C154.923 97.7758 154.774 96.7117 154.942 95.6291C154.979 95.4051 154.83 95.2557 154.607 95.2931C153.489 95.4611 152.372 95.6477 151.254 95.8344C150.882 95.8717 151.031 96.4131 151.384 96.3571Z" fill="#161616"/>
<path d="M151.627 100.09C152.856 100.052 154.029 99.8096 155.184 99.3989C155.519 99.2683 155.37 98.7269 155.035 98.8576C153.936 99.2683 152.8 99.4923 151.627 99.5296C151.273 99.5296 151.273 100.09 151.627 100.09Z" fill="#161616"/>
<path d="M151.794 97.4961C151.962 97.9815 152.241 98.3175 152.688 98.5788C152.893 98.6908 153.08 98.5415 153.117 98.3361C153.229 97.3468 153.489 96.3948 153.899 95.4801C154.048 95.1628 153.564 94.8641 153.415 95.2001C152.968 96.2081 152.688 97.2535 152.558 98.3361C152.707 98.2615 152.837 98.1681 152.986 98.0935C152.67 97.9068 152.484 97.6828 152.353 97.3281C152.223 97.0108 151.683 97.1601 151.794 97.4961Z" fill="#161616"/>
<path d="M152.167 104.831C152.297 106.082 152.632 107.258 153.191 108.378C153.34 108.695 153.824 108.415 153.675 108.098C153.173 107.071 152.856 105.97 152.744 104.831C152.688 104.476 152.13 104.476 152.167 104.831Z" fill="#161616"/>
<path d="M152.428 104.775C153.862 104.906 155.203 104.645 156.488 104.01C156.357 103.954 156.208 103.898 156.078 103.842C156.32 104.981 156.823 105.97 157.605 106.847C157.847 107.109 158.239 106.717 157.996 106.455C157.289 105.653 156.842 104.757 156.618 103.711C156.581 103.525 156.357 103.469 156.208 103.543C155.016 104.122 153.75 104.346 152.428 104.234C152.074 104.197 152.074 104.757 152.428 104.775Z" fill="#161616"/>
<path d="M153.693 108.583C155.146 108.042 156.58 107.463 157.977 106.828C158.312 106.679 158.014 106.194 157.698 106.343C156.338 106.959 154.941 107.519 153.544 108.042C153.209 108.172 153.358 108.714 153.693 108.583Z" fill="#161616"/>
<path d="M153.396 105.765C153.843 106.157 154.867 107.501 155.388 106.511C155.63 106.063 155.575 105.447 155.724 104.943C155.947 104.234 156.32 103.581 156.804 103.021C157.027 102.741 156.636 102.349 156.413 102.629C155.891 103.245 155.482 103.917 155.239 104.701C155.128 105.055 155.035 105.429 154.979 105.802C154.904 106.269 154.774 106.157 154.42 105.933C154.196 105.783 153.992 105.559 153.787 105.373C153.526 105.13 153.135 105.522 153.396 105.765Z" fill="#161616"/>
<path d="M131.567 100.481C136.782 100.425 141.979 99.9961 147.119 99.1748C147.473 99.1188 147.324 98.5775 146.97 98.6335C141.867 99.4361 136.726 99.8655 131.567 99.9028C131.213 99.9215 131.213 100.481 131.567 100.481Z" fill="#161616"/>
<path d="M130.971 92.9031C134.343 92.9965 137.695 92.8845 141.048 92.6045C141.401 92.5672 141.401 92.0072 141.048 92.0445C137.695 92.3245 134.324 92.4178 130.971 92.3432C130.618 92.3245 130.618 92.8845 130.971 92.9031Z" fill="#161616"/>
<path d="M131.772 101.583C135.311 101.751 138.85 101.621 142.351 101.173C142.705 101.135 142.705 100.575 142.351 100.613C138.831 101.042 135.292 101.191 131.772 101.023C131.418 101.005 131.418 101.565 131.772 101.583Z" fill="#161616"/>
<path d="M143.544 100.911C144.549 100.93 145.537 100.799 146.505 100.482C146.84 100.37 146.691 99.8285 146.356 99.9405C145.443 100.239 144.512 100.37 143.544 100.351C143.19 100.351 143.19 100.911 143.544 100.911Z" fill="#161616"/>
<path d="M133.672 108.602C137.918 108.341 142.146 107.949 146.356 107.37C146.709 107.314 146.709 106.754 146.356 106.81C142.146 107.37 137.918 107.781 133.672 108.042C133.299 108.061 133.299 108.621 133.672 108.602Z" fill="#161616"/>
<path d="M134.156 109.908C135.553 109.908 136.95 109.908 138.347 109.908C138.701 109.908 138.701 109.348 138.347 109.348C136.95 109.348 135.553 109.348 134.156 109.348C133.802 109.348 133.802 109.908 134.156 109.908Z" fill="#161616"/>
<path d="M135.367 111.16C137.546 111.029 139.725 110.824 141.904 110.563C143.655 110.339 145.536 110.245 147.045 109.219C147.343 109.013 147.063 108.528 146.765 108.733C145.182 109.816 143.059 109.872 141.215 110.077C139.278 110.301 137.323 110.469 135.386 110.6C135.013 110.619 134.994 111.179 135.367 111.16Z" fill="#161616"/>
<path d="M156.636 96.0766C160.026 95.9086 163.397 95.4606 166.731 94.7513C166.619 94.6953 166.508 94.6206 166.396 94.5646C167.96 99.2313 170.27 103.581 173.231 107.519C173.436 107.799 173.939 107.519 173.716 107.239C170.791 103.357 168.501 99.0446 166.936 94.434C166.88 94.2846 166.75 94.21 166.601 94.2473C163.323 94.9566 160.008 95.386 156.655 95.554C156.264 95.5353 156.264 96.0953 156.636 96.0766Z" fill="#161616"/>
<path d="M157.214 111.831C157.716 112.541 158.126 113.287 158.48 114.09C158.517 114.202 158.685 114.258 158.797 114.221C161.535 113.306 164.235 112.298 166.88 111.159C168.221 110.581 169.543 109.983 170.866 109.349C171.499 109.05 172.132 108.733 172.747 108.415C173.119 108.229 173.548 108.117 173.678 107.706C173.715 107.594 173.659 107.445 173.548 107.389C173.38 107.295 173.287 107.295 173.119 107.389C173.008 107.445 172.952 107.594 172.989 107.706C172.989 107.725 173.008 107.743 173.008 107.762C173.101 108.117 173.641 107.967 173.548 107.613C173.548 107.594 173.529 107.575 173.529 107.557C173.492 107.669 173.436 107.762 173.399 107.874C173.361 107.874 173.306 107.874 173.268 107.874C173.231 107.762 173.175 107.669 173.138 107.557C173.026 107.893 171.853 108.247 171.536 108.415C171.015 108.677 170.493 108.919 169.953 109.181C168.705 109.778 167.439 110.338 166.154 110.879C163.695 111.925 161.181 112.858 158.648 113.698C158.759 113.735 158.853 113.791 158.964 113.829C158.629 113.026 158.201 112.279 157.698 111.57C157.493 111.253 157.009 111.533 157.214 111.831Z" fill="#161616"/>
<path d="M160.455 97.532C160.417 97.2893 160.865 97.0653 161.032 97.2333C161.256 97.4573 160.883 97.868 160.622 97.7747C160.287 97.644 160.138 98.1853 160.473 98.316C161.274 98.6147 162.057 97.4573 161.442 96.8413C161.163 96.5613 160.734 96.58 160.399 96.748C160.045 96.9347 159.859 97.2893 159.933 97.6813C159.97 98.036 160.511 97.868 160.455 97.532Z" fill="#161616"/>
<path d="M77.927 82.5991C79.9943 82.6364 82.0803 82.5431 84.1291 82.2631C86.271 81.9644 88.3942 81.3484 90.5733 81.4417C90.9272 81.4604 90.9272 80.9004 90.5733 80.8817C88.5805 80.8071 86.6435 81.3111 84.6878 81.6097C82.4528 81.9644 80.1806 82.0951 77.9083 82.0391C77.5731 82.0391 77.5731 82.5991 77.927 82.5991Z" fill="#161616"/>
<path d="M78.2254 76.4214C81.3916 76.6641 84.5579 76.3841 87.631 75.5814C87.9849 75.4881 87.8359 74.9467 87.482 75.0401C84.4461 75.8241 81.3544 76.1041 78.2254 75.8614C77.8715 75.8427 77.8715 76.4027 78.2254 76.4214Z" fill="#161616"/>
<path d="M149.895 60.7035C149.578 62.7569 149.317 64.9782 150.603 66.7702C150.807 67.0689 151.292 66.7889 151.087 66.4902C149.895 64.8289 150.156 62.7569 150.435 60.8529C150.491 60.4982 149.951 60.3489 149.895 60.7035Z" fill="#161616"/>
<path d="M150.062 60.6844C154.495 60.8524 158.927 60.4231 163.248 59.3964C163.137 59.3404 163.025 59.2658 162.913 59.2098C163.304 61.1324 164.049 62.9245 165.092 64.5671C165.279 64.8658 165.763 64.5858 165.577 64.2871C164.552 62.6818 163.844 60.9271 163.453 59.0604C163.416 58.9111 163.248 58.8364 163.118 58.8738C158.853 59.8818 154.476 60.3111 150.081 60.1431C149.708 60.1058 149.708 60.6658 150.062 60.6844Z" fill="#161616"/>
<path d="M151.067 66.7507C155.873 66.6014 160.622 65.892 165.241 64.6227C165.595 64.5293 165.446 63.988 165.092 64.0813C160.51 65.3507 155.817 66.06 151.067 66.1907C150.695 66.2093 150.695 66.7694 151.067 66.7507Z" fill="#161616"/>
<path d="M216.739 197.139C216.739 199.248 216.739 201.339 216.739 203.448C201.839 209.365 198.803 211.475 199.027 212.24C199.083 212.427 199.474 212.987 207.296 212.072C215.044 211.157 221.321 209.832 225.679 208.749C224.916 204.437 224.133 200.125 223.37 195.813C221.153 196.261 218.937 196.709 216.739 197.139Z" fill="#161616"/>
<path d="M223.426 107.856C222.998 108.659 222.849 109.312 222.811 109.462C220.148 120.811 216.665 127.512 214.393 140.672C210.053 166.022 213.797 194.824 214.151 197.531C215.343 198.054 217.634 198.838 220.558 198.726C223.128 198.614 225.121 197.848 226.257 197.307C225.829 189.038 226.257 178.827 229.107 167.571C232.589 153.776 237.004 149.203 240.971 133.075C243.913 121.128 247.322 107.222 241.436 103.096C236.929 99.8857 226.369 102.238 223.426 107.856Z" fill="#EC615B"/>
<path opacity="0.2" d="M233.726 113.811C230.746 127.437 227.971 141.96 225.624 157.323C223.407 171.771 221.75 185.603 220.521 198.744C222.402 198.352 224.264 197.96 226.145 197.568C225.903 191.763 226.164 186.816 226.536 183.027C226.983 178.323 228.12 167.365 232.683 156.427C233.279 155.027 234.042 153.328 235.29 150.136C237.395 144.853 238.922 140.336 239.611 138.208C242.852 128.053 244.472 116.275 244.975 112.392C241.213 112.84 237.469 113.325 233.726 113.811Z" fill="#6D6C6C"/>
<path opacity="0.19" d="M239.872 137.536C232.571 147.075 229.162 155.717 227.449 161.523C225.884 166.805 225.195 171.472 224.301 177.52C223.035 186.107 222.551 193.349 222.346 198.501C223.575 198.203 224.786 197.885 226.015 197.587C225.81 190.363 226.313 184.184 226.927 179.368C227.672 173.656 228.529 167.029 231.509 159.059C232.589 156.165 233.111 155.344 235.569 149.091C237.469 144.2 238.922 140.187 239.872 137.536Z" fill="#6D6C6C"/>
<path d="M256.969 194.993C258.012 197.588 259.073 200.182 260.116 202.796C251.363 208.377 247.228 211.625 247.694 212.577C248.271 213.753 255.833 211.42 270.379 205.614C268.833 200.574 267.287 195.553 265.741 190.513C262.817 192.006 259.893 193.5 256.969 194.993Z" fill="#161616"/>
<path d="M249.779 108.08C254.343 112.262 254.194 118.123 254.771 127.83C254.771 127.83 256.186 151.705 260.936 170.894C262.128 175.691 264.288 183.139 268.293 192.062C267.622 192.921 265.797 195.011 262.593 196.113C259.315 197.233 256.522 196.635 255.479 196.355C249.779 186.611 245.738 178.305 243.13 172.555C231.043 146.011 230.074 132.03 230.074 124.731C230.074 117.227 230.205 108.23 235.773 105.224C239.964 102.966 246.11 104.72 249.779 108.08Z" fill="#EC615B"/>
<path opacity="0.15" d="M236.854 110.937C238.921 118.907 241.156 127.009 243.54 135.222C249.761 156.539 256.522 176.681 263.618 195.571C264.307 195.217 265.145 194.731 266.002 194.078C266.877 193.406 267.566 192.734 268.088 192.137C267.119 189.878 265.778 186.611 264.363 182.598C262.221 176.457 258.738 165.163 256.931 150.118C255.199 135.67 254.324 128.446 254.398 123.891C254.454 120.139 254.789 112.505 249.947 108.398C248.941 107.558 247.954 107.054 247.265 106.755C243.782 108.155 240.318 109.555 236.854 110.937Z" fill="#6D6C6C"/>
<path opacity="0.22" d="M254.622 128.745C253.765 137.425 253.486 149.055 255.572 162.495C257.676 176.009 261.494 187.041 264.94 195.068C266.002 194.191 267.063 193.313 268.125 192.417C266.858 189.412 265.201 185.231 263.543 180.116C260.358 170.279 258.98 162.607 257.788 155.719C256.577 148.663 255.311 139.535 254.622 128.745Z" fill="#6D6C6C"/>
<path d="M167.42 39.8896C166.675 40.263 165.651 40.9163 164.85 42.0363C164.422 42.615 163.9 43.3803 163.826 44.463C163.807 44.8923 163.751 45.8256 164.347 46.4416C164.515 46.6283 164.962 46.983 167.16 46.9083C169.115 46.8336 170.102 46.7963 170.605 46.2736C171.574 45.2656 171.22 43.3616 170.605 42.223C169.637 40.4123 167.737 39.9643 167.42 39.8896Z" fill="white" stroke="#161616" stroke-width="2" stroke-miterlimit="10"/>
<path d="M178.67 44.5752C181.296 47.5805 185.506 49.3725 193.235 52.5645C202.976 56.5965 207.856 58.6125 213.629 59.3218C219.869 60.0872 223.203 59.2845 224.357 61.3192C225.866 63.9512 222.327 68.8792 218.677 73.0045C215.957 72.4072 213.145 71.6605 210.24 70.6898C194.315 65.4072 182.805 56.1112 175.243 48.3832C174.293 48.5885 172.673 48.7938 170.829 48.2338C169.246 47.7672 167.011 46.5725 167.141 45.6205C167.309 44.4632 171.35 44.2578 171.593 44.2392C170.363 43.7352 168.594 42.8765 166.676 41.4765C166.117 41.0658 162.913 38.6952 163.304 37.9485C163.64 37.2952 166.545 38.1912 169.283 39.0312C171.779 39.7965 173.511 40.3378 175.411 41.6445C177.236 42.8765 178.298 44.1458 178.67 44.5752Z" fill="white" stroke="#161616" stroke-width="2" stroke-miterlimit="10"/>
<path d="M165.781 40.0952C166.228 40.5992 166.321 41.2712 166.713 41.7939C167.048 42.2606 167.532 42.5966 168.035 42.8766C169.543 43.7166 171.145 44.4072 172.691 45.1725C172.952 45.3032 173.287 44.9485 173.026 44.7246C172.225 44.0339 171.369 43.4179 170.475 42.8579C170.177 42.6712 169.879 43.1566 170.195 43.3432C171.052 43.8846 171.872 44.4632 172.635 45.1165C172.747 44.9672 172.859 44.8179 172.97 44.6686C171.499 43.9592 170.028 43.2686 168.575 42.5032C167.886 42.1486 167.271 41.7379 166.917 41.0286C166.675 40.5432 166.545 40.0766 166.172 39.6659C165.93 39.4419 165.539 39.8339 165.781 40.0952Z" fill="white"/>
<path d="M167.234 42.0558C168.091 42.4291 168.911 42.9144 169.656 43.4931C169.935 43.7171 170.326 43.3251 170.047 43.1011C169.265 42.4851 168.426 41.9811 167.514 41.5704C167.178 41.4211 166.899 41.9064 167.234 42.0558Z" fill="white"/>
<path d="M165.037 39.7599C165.745 40.8985 166.676 41.8319 167.775 42.5785C168.073 42.7839 168.352 42.2985 168.054 42.0932C167.03 41.4025 166.173 40.5252 165.521 39.4612C165.335 39.1812 164.851 39.4612 165.037 39.7599Z" fill="white"/>
<path d="M165.874 41.2901C166.247 41.7941 166.657 42.2608 167.122 42.6714C167.458 42.9701 168.929 44.0341 168.165 44.5754C168.016 44.6688 168.165 44.9114 168.314 44.8181C168.836 44.4634 168.631 43.8288 168.314 43.3994C168.072 43.0821 167.737 42.8394 167.42 42.5594C166.936 42.1301 166.508 41.6634 166.117 41.1594C166.005 40.9914 165.763 41.1408 165.874 41.2901Z" fill="#161616"/>
<path d="M165.484 43.2318C166.043 43.9971 167.104 45.0797 168.147 44.7624C168.315 44.7064 168.24 44.4451 168.073 44.5011C167.179 44.7811 166.192 43.7544 165.726 43.1011C165.614 42.9518 165.372 43.0824 165.484 43.2318Z" fill="#161616"/>
<path d="M164.664 44.5379C165.278 45.3779 166.172 45.8632 167.215 45.9192C167.401 45.9379 167.401 45.6579 167.215 45.6392C166.284 45.5832 165.464 45.1352 164.906 44.3885C164.794 44.2392 164.552 44.3885 164.664 44.5379Z" fill="#161616"/>
<path d="M164.068 46.2176C164.944 47.1323 166.396 47.151 167.272 46.2176C167.402 46.087 167.197 45.8816 167.067 46.0123C166.303 46.8336 165.037 46.815 164.273 46.0123C164.143 45.8816 163.938 46.087 164.068 46.2176Z" fill="#161616"/>
<path d="M164.255 39.7223C166.322 41.085 167.812 43.381 170.401 43.829C170.568 43.8663 170.662 43.5863 170.475 43.5676C167.924 43.1383 166.434 40.8423 164.404 39.4983C164.236 39.3677 164.106 39.6103 164.255 39.7223Z" fill="#161616"/>
<path opacity="0.2" d="M164.031 45.8259C163.36 44.9113 163.919 42.9513 165.539 41.1033C167.365 42.1673 169.171 43.2499 170.996 44.3139C170.661 44.3139 167.718 44.3513 167.514 45.2659C167.476 45.4153 167.514 45.6393 167.793 45.9566C168.724 46.4046 170.289 47.0019 172.3 47.0579C173.343 47.0766 174.256 46.9459 174.964 46.7779C178.763 50.6233 185.449 56.4286 195.283 60.6473C203.925 64.3433 211.673 65.4073 216.795 65.7059C216.628 67.9086 216.46 70.0926 216.292 72.2953C207.855 70.0553 196.42 65.7993 185.058 57.2499C181.184 54.3379 177.869 51.3326 175.038 48.4393C172.431 48.8686 170.81 48.4206 169.786 47.8979C168.91 47.4499 168.352 46.8899 167.197 46.7966C166.433 46.7406 165.781 46.9273 164.943 46.5166C164.85 46.4793 164.31 46.1993 164.031 45.8259Z" fill="#6D6C6C"/>
<path opacity="0.14" d="M188.02 59.0044C190.627 60.4044 193.644 61.8231 197.09 63.0364C204.596 65.7057 211.394 66.5457 216.59 66.7324C216.516 68.6364 216.46 70.5591 216.385 72.4631C210.984 71.1937 204.205 68.9724 197.015 64.9404C193.57 63.0177 190.59 60.9831 188.02 59.0044Z" fill="#6D6C6C"/>
<path d="M217.466 64.3256C216.404 66.7336 216.348 68.7309 216.255 72.3149C216.181 75.0216 216.367 77.9336 217.82 85.5869C219.589 94.8456 220.427 96.3389 220.706 101.248C220.93 105.094 220.632 108.248 220.353 110.339C222.699 111.627 226.629 113.382 231.77 113.774C240.859 114.464 247.582 110.451 249.892 108.92C250.171 103.059 250.451 97.1789 250.749 91.3176C249.724 86.3149 248.514 82.3949 247.638 79.8189C244.882 71.6989 242.311 67.8536 243.95 63.7842C244.863 61.5256 246.67 60.1442 247.918 59.3789C247.042 58.7069 237.86 51.8936 227.84 55.4216C226.797 55.7762 220.204 58.1096 217.466 64.3256Z" fill="white" stroke="#161616" stroke-width="2" stroke-miterlimit="10"/>
<path opacity="0.19" d="M227.803 55.4021C230.596 59.8821 232.161 63.8394 233.055 66.6021C233.055 66.6021 237.432 79.9301 234.228 97.8127C233.539 101.621 232.31 107.034 229.889 113.231C230.82 113.437 231.937 113.605 233.204 113.661C233.204 113.661 235.16 113.754 237.357 113.474C240.039 113.119 244.64 111.682 250.06 108.919C250.153 102.666 250.246 96.4314 250.339 90.1781C248.961 84.8954 247.564 80.6581 246.521 77.6901C244.007 70.6154 242.237 67.2927 243.69 63.7834C244.64 61.4874 246.577 60.0687 248.085 59.2474C246.111 57.9407 242.461 55.9061 237.469 55.1221C233.353 54.4874 229.963 54.9354 227.803 55.4021Z" fill="#6D6C6C"/>
<path opacity="0.11" d="M230.354 54.9734C233.353 58.6694 236.855 64.0641 239.015 71.1761C245.143 91.4854 235.067 109.293 232.738 113.195C234.694 113.176 236.985 113.008 239.481 112.523C243.932 111.664 247.489 110.133 250.041 108.771C250.134 102.947 250.227 97.1227 250.32 91.3174C248.737 85.9227 247.247 80.8081 245.217 73.8641C243.839 69.1041 242.759 65.2027 244.789 62.0854C245.776 60.5734 247.154 59.7334 248.197 59.2481C242.256 57.8107 236.296 56.3921 230.354 54.9734Z" fill="#6D6C6C"/>
<path d="M228.975 93.1089C228.919 89.1142 228.882 85.1382 228.826 81.1435C238.381 80.6582 247.935 80.1728 257.509 79.6875C257.844 83.3835 258.179 87.0795 258.533 90.7755C248.68 91.5595 238.828 92.3249 228.975 93.1089Z" fill="white" stroke="#161616" stroke-width="2" stroke-miterlimit="10"/>
<path d="M226.07 91.802C226.07 90.346 226.07 88.89 226.07 87.434C238.344 86.5194 250.618 85.5861 262.892 84.6714C262.985 86.4634 263.078 88.274 263.19 90.066C250.823 90.626 238.437 91.2234 226.07 91.802Z" fill="white" stroke="#161616" stroke-width="2" stroke-miterlimit="10"/>
<path d="M227.095 85.2314C227.244 87.378 227.393 89.506 227.523 91.6527C238.884 90.738 250.227 89.8047 261.588 88.89C261.681 86.9487 261.774 85.0074 261.886 83.0474C250.283 83.7754 238.679 84.5034 227.095 85.2314Z" fill="white" stroke="#161616" stroke-width="2" stroke-miterlimit="10"/>
<path d="M224.319 90.0469C224.655 98.5589 224.99 107.071 225.344 115.583C238.009 114.164 250.674 112.764 263.339 111.346C263.73 102.983 264.121 94.6202 264.512 86.2576C251.102 87.5269 237.711 88.7776 224.319 90.0469Z" fill="white" stroke="#161616" stroke-width="2" stroke-miterlimit="10"/>
<path d="M226.48 93.3698C232.235 92.6045 237.99 92.0632 243.782 91.7272C244.043 91.7085 244.043 91.2979 243.782 91.2979C237.99 91.6338 232.216 92.1752 226.48 92.9405C226.219 92.9778 226.219 93.4072 226.48 93.3698Z" fill="#161616"/>
<path d="M232.906 94.5087C237.32 93.9487 241.734 93.3701 246.167 92.8101C246.427 92.7727 246.427 92.3621 246.167 92.3807C241.752 92.9407 237.338 93.5194 232.906 94.0794C232.645 94.1354 232.645 94.5461 232.906 94.5087Z" fill="#161616"/>
<path d="M254.119 106.456C254.045 107.632 254.045 108.827 254.157 110.003C254.175 110.264 254.603 110.264 254.585 110.003C254.473 108.827 254.455 107.632 254.548 106.456C254.566 106.195 254.138 106.195 254.119 106.456Z" fill="#161616"/>
<path d="M254.306 106.494C256.615 106.55 258.906 106.419 261.197 106.12C261.123 106.046 261.048 105.971 260.992 105.915C260.955 106.998 260.992 108.062 261.067 109.126C261.085 109.387 261.514 109.387 261.495 109.126C261.402 108.062 261.383 106.979 261.421 105.915C261.421 105.803 261.328 105.691 261.216 105.71C258.925 106.008 256.634 106.12 254.325 106.083C254.027 106.064 254.027 106.475 254.306 106.494Z" fill="#161616"/>
<path d="M254.473 110.339C256.764 110.376 259.017 110.133 261.252 109.629C261.513 109.573 261.401 109.163 261.141 109.219C258.943 109.704 256.727 109.947 254.473 109.909C254.212 109.909 254.212 110.32 254.473 110.339Z" fill="#161616"/>
<path d="M255.349 107.8C256.764 107.893 258.161 107.818 259.577 107.594C259.837 107.557 259.726 107.146 259.465 107.184C258.105 107.408 256.727 107.464 255.349 107.37C255.088 107.352 255.088 107.781 255.349 107.8Z" fill="#161616"/>
<path d="M256.243 108.975C257.714 108.938 259.129 108.658 260.526 108.154C260.768 108.061 260.675 107.65 260.415 107.743C259.074 108.247 257.677 108.509 256.243 108.565C255.982 108.546 255.963 108.975 256.243 108.975Z" fill="#161616"/>
<path opacity="0.2" d="M230.335 114.612C230.67 106.735 231.005 98.8575 231.322 90.9615C242.199 90.0841 253.095 89.2255 263.972 88.3481C263.73 95.8148 263.469 103.281 263.227 110.748C252.257 112.036 241.305 113.324 230.335 114.612Z" fill="#6D6C6C"/>
<path opacity="0.2" d="M259.875 83.2532C259.931 85.4185 259.819 87.9945 259.26 90.8505C257.882 97.8692 254.567 102.928 252.313 105.784C253.84 107.819 255.367 109.853 256.913 111.888C252.238 112.429 247.564 112.971 242.889 113.512C243.634 104.963 244.379 96.4132 245.124 87.8825C244.882 86.7625 244.621 85.6425 244.379 84.5225C249.538 84.0745 254.716 83.6638 259.875 83.2532Z" fill="#6D6C6C"/>
<path d="M246.911 58.8744C250.804 58.3517 255.442 67.3117 257.285 73.7517C259.409 81.1624 258.477 87.5651 257.714 90.9438C256.224 97.5704 253.132 102.237 251.195 104.757C251.493 105.746 252.182 108.434 251.046 111.384C249.37 115.696 244.825 117.768 244.471 117.376C244.36 117.245 244.583 116.704 246.353 114.669C245.98 115.061 243.298 117.73 240.281 117.096C239.759 116.984 239.107 116.853 238.735 116.33C237.859 115.061 239.312 112.186 242.404 108.994C239.033 109.834 238.139 109.61 237.971 109.237C237.543 108.341 240.988 105.802 242.236 104.869C244.08 103.506 245.738 102.573 246.874 101.994C250.059 95.3678 249.891 90.1971 249.612 87.7704C249.202 84.1864 247.861 80.2851 247.6 79.5384C246.855 77.3917 246.502 76.9064 245.012 73.0424C242.609 66.8451 242.609 65.7811 242.702 64.9597C243.037 62.4957 244.695 59.1731 246.911 58.8744Z" fill="white" stroke="#161616" stroke-width="2" stroke-miterlimit="10"/>
<path d="M238.809 115.808C240.877 114.632 242.683 113.12 244.192 111.291C244.415 111.011 244.024 110.619 243.801 110.899C242.329 112.691 240.56 114.184 238.53 115.341C238.213 115.491 238.493 115.976 238.809 115.808Z" fill="#161616"/>
<path d="M240.634 117.059C242.683 115.995 244.434 114.52 245.849 112.691C246.073 112.411 245.589 112.131 245.365 112.411C244.024 114.165 242.311 115.565 240.355 116.573C240.038 116.741 240.318 117.227 240.634 117.059Z" fill="#161616"/>
<path opacity="0.17" d="M245.346 59.7701C241.64 62.9995 256.763 77.1675 254.175 93.2582C252.405 104.29 245.067 111.496 245.067 111.496C243.018 113.549 239.163 116.069 239.628 116.946C239.964 117.581 242.292 117.002 243.13 116.741C244.713 116.256 245.812 115.434 246.427 114.893C245.495 115.938 244.434 117.226 244.657 117.488C244.974 117.824 247.619 116.442 249.276 114.501C252.144 111.141 251.735 106.474 251.455 104.57C252.126 103.693 253.001 102.461 253.895 100.893C254.715 99.4928 257.08 95.1248 258.104 89.1888C259.911 78.6795 256.205 70.3915 254.715 67.1435C253.374 64.2501 251.101 59.4528 247.656 59.2475C247.209 59.1915 246.073 59.1355 245.346 59.7701Z" fill="#6D6C6C"/>
<path opacity="0.22" d="M257.9 88.8906C256.894 91.8213 255.702 94.9013 254.287 98.1306C253.281 100.427 252.257 102.573 251.214 104.608C250.692 106.288 249.705 108.808 247.749 111.403C245.701 114.128 243.447 115.789 241.938 116.741C242.367 116.76 242.888 116.723 243.466 116.573C244.918 116.237 245.887 115.435 246.371 114.949C245.812 115.659 245.235 116.349 244.676 117.059C245.123 116.984 245.831 116.853 246.613 116.499C250.711 114.651 251.568 109.629 251.623 109.293C251.772 108.379 251.866 106.811 251.307 104.869C252.648 103.283 254.343 100.912 255.702 97.72C257.211 94.2106 257.714 91.056 257.9 88.8906Z" fill="#6D6C6C"/>
<path d="M213.182 46.592C210.183 50.0266 212.251 54.824 212.53 55.4773C213.573 57.904 216.274 61.3573 219.701 61.0773C222.197 60.8533 223.78 58.744 224.171 58.184C226.927 54.208 226.015 46.6106 221.359 44.6506C218.788 43.568 215.249 44.2026 213.182 46.592Z" fill="#5222D0"/>
<path d="M220.744 49.6541C220.874 51.1288 222.42 51.4461 223.463 53.8728C224.208 55.6274 224.208 57.3448 224.078 58.5768C225.288 58.6888 227.523 58.7448 230.056 57.7741C232.049 57.0088 233.446 55.9074 234.284 55.1421C233.893 54.2648 233.316 52.9768 232.627 51.4461C229.647 44.9314 229.162 44.3714 228.436 44.0914C225.53 42.9901 220.502 46.9101 220.744 49.6541Z" fill="white" stroke="#161616" stroke-width="2" stroke-miterlimit="10"/>
<path d="M210.016 30.3712C209.383 31.2672 208.992 32.3685 208.936 37.0912C208.898 41.1232 209.122 44.8005 209.494 48.0672C210.333 47.5818 211.171 47.0965 212.009 46.6112C212.381 47.5258 213.015 48.7765 214.095 49.9898C216.237 52.3978 218.844 53.2192 219.999 53.5178C221.21 53.2192 224.227 52.2858 226.518 49.4298C228.026 47.5258 228.511 45.6405 228.622 45.2112C229.311 42.3925 228.641 40.0592 228.287 39.0885C228.734 38.8832 229.423 38.4912 229.945 37.7818C231.044 36.2885 231.342 33.6192 229.982 32.7232C228.976 32.0512 227.188 32.4432 225.847 33.8245C225.549 33.1338 225.084 32.1818 224.339 31.1925C224.152 30.9498 222.755 29.1205 221.042 28.1685C217.745 26.2645 212.288 27.1605 210.016 30.3712Z" fill="white" stroke="#161616" stroke-width="2" stroke-miterlimit="10"/>
<path d="M208.656 36.2323C207.911 36.1017 206.533 35.7097 205.881 34.571C204.763 32.6483 206.402 29.7177 206.812 28.9897C207.147 28.3737 208.041 26.899 211.841 24.2297C214.728 22.195 216.18 21.187 217.745 20.7017C223.295 19.0403 228.38 21.915 229.33 22.4563C231.322 23.595 232.589 24.827 233.595 25.7977C235.141 27.291 236.873 29.0083 238.81 30.987C243.783 37.4457 245.533 43.3443 246.241 46.8723C247.042 50.867 247.861 54.9364 245.477 57.3257C243.093 59.715 238.735 59.2297 236.072 58.091C232.365 56.5044 230.782 53.1443 229.553 50.5497C227.467 46.107 227.337 41.851 227.542 39.0883C229.404 38.547 230.354 36.7923 229.926 35.467C229.59 34.4217 228.342 33.3763 227.057 33.7497C226.07 34.0297 225.362 35.0563 225.418 36.251C224.524 36.2323 222.14 36.027 219.868 34.3097C218.21 33.059 217.372 31.5657 216.981 30.7443C215.957 30.875 213.908 31.2483 211.841 32.7417C210.109 33.9363 209.14 35.3737 208.656 36.2323Z" fill="#5222D0"/>
<path opacity="0.24" d="M220.986 39.7981C223.221 42.5047 223.929 45.3607 223.929 45.3607C224.655 48.5714 223.612 51.2967 223.146 52.3981C224.32 51.5021 225.512 50.6061 226.685 49.7101C227.505 52.4354 228.306 55.142 229.125 57.8674C229.74 57.8114 231.006 57.5874 232.273 56.6914C233.241 56.0007 233.819 55.198 234.135 54.694C232.627 53.2941 229.74 50.1954 228.417 45.3234C227.784 42.9714 227.691 40.8807 227.765 39.3127C229.46 38.6221 230.336 36.9607 229.982 35.5794C229.721 34.5714 228.697 33.3581 227.374 33.5447C226.275 33.7127 225.363 34.7954 225.381 36.1207C224.543 36.1207 222.569 36.0274 220.502 34.7767C218.36 33.4887 217.335 31.6967 216.944 30.9314C217.037 34.5154 218.136 36.5874 219.123 37.8194C219.775 38.6594 220.073 38.6967 220.986 39.7981Z" fill="#6D6C6C"/>
<path d="M212.325 39.0134C212.12 39.7601 212.139 40.5254 212.418 41.2534C212.511 41.5147 212.865 41.5334 212.958 41.2534C213.182 40.5814 213.182 39.8721 212.977 39.2001C212.865 38.8641 212.325 38.9947 212.437 39.3494C212.623 39.9467 212.604 40.5254 212.418 41.1227C212.604 41.1227 212.772 41.1227 212.958 41.1227C212.716 40.4881 212.679 39.8347 212.865 39.1814C212.958 38.8081 212.437 38.6587 212.325 39.0134Z" fill="#161616"/>
<path d="M211.655 37.856C212.139 37.5573 212.735 37.6133 213.145 38.0053C213.406 38.248 213.797 37.856 213.536 37.6133C212.959 37.0533 212.065 36.9413 211.375 37.3707C211.077 37.5573 211.357 38.0427 211.655 37.856Z" fill="#161616"/>
<path d="M213.666 42.5983C214.02 42.5983 214.02 42.0383 213.666 42.0383C213.294 42.0383 213.294 42.5983 213.666 42.5983Z" fill="#161616"/>
<path d="M214.896 40.9731C214.896 40.9918 214.896 41.0104 214.896 41.0291C214.896 41.1784 215.026 41.3091 215.175 41.3091C215.324 41.3091 215.454 41.1784 215.454 41.0291C215.454 41.0104 215.454 40.9918 215.454 40.9731C215.454 40.8238 215.324 40.6931 215.175 40.6931C215.026 40.6931 214.896 40.8051 214.896 40.9731Z" fill="#161616"/>
<path d="M214.951 42.3737C215.305 42.3737 215.305 41.8137 214.951 41.8137C214.597 41.8137 214.597 42.3737 214.951 42.3737Z" fill="#161616"/>
<path d="M207.278 39.8717C207.054 40.6184 207.073 41.3838 207.334 42.1118C207.427 42.3731 207.781 42.3731 207.874 42.1118C208.097 41.4398 208.116 40.7304 207.93 40.0584C207.837 39.7037 207.296 39.8531 207.39 40.2077C207.557 40.8051 207.539 41.3838 207.334 41.9624C207.52 41.9624 207.688 41.9624 207.874 41.9624C207.65 41.3278 207.613 40.6744 207.818 40.0211C207.911 39.6664 207.371 39.5171 207.278 39.8717Z" fill="#161616"/>
<path d="M206.961 38.4719C207.352 38.2665 207.892 38.3599 208.153 38.7332C208.358 39.0132 208.842 38.7332 208.637 38.4532C208.171 37.8372 207.37 37.6319 206.681 37.9865C206.365 38.1545 206.644 38.6399 206.961 38.4719Z" fill="#161616"/>
<path d="M213.238 48.6273C214.672 48.3659 215.92 47.6006 216.851 46.4619C217.019 46.2566 216.721 45.9579 216.553 46.1633C215.678 47.2459 214.504 47.9553 213.126 48.2166C212.865 48.2726 212.977 48.6833 213.238 48.6273Z" fill="#161616"/>
<path d="M216.143 46.2005C216.478 46.3125 216.757 46.4805 216.999 46.7231C217.186 46.9098 217.484 46.6111 217.297 46.4245C216.999 46.1258 216.645 45.9205 216.254 45.7898C215.994 45.7151 215.882 46.1258 216.143 46.2005Z" fill="#161616"/>
<path opacity="0.45" d="M227.746 21.7844C230.111 25.0698 233.147 29.7177 236.034 35.6537C239.089 41.9257 241.324 46.6484 239.592 48.5151C237.301 50.9977 229.385 47.0591 228.119 46.4057C228.379 48.1044 229.031 50.8111 230.95 53.5177C231.918 54.8804 233.613 57.2884 236.742 58.4084C238.623 59.0804 240.299 59.043 240.951 58.987C241.827 58.931 242.832 58.8564 243.931 58.259C243.931 58.259 245.365 57.4937 246.334 55.9257C247.805 53.5364 247.023 50.3071 245.98 46.2564C244.732 41.4031 243.056 38.1737 241.417 34.9817C241.007 34.1977 240.523 33.2831 239.741 32.2191C238.958 31.1364 238.381 30.5577 235.96 28.2244C232.365 24.7338 231.806 24.2298 230.726 23.5018C229.534 22.6804 228.472 22.1391 227.746 21.7844Z" fill="#371B9B"/>
<path opacity="0.43" d="M223.258 53.5356C223.407 53.965 223.742 55.1783 223.258 56.5223C222.532 58.5196 220.52 59.1916 220.204 59.285C217.913 60.0316 215.026 58.8556 213.089 56.2983C213.35 56.9703 213.927 58.165 215.119 59.2103C215.715 59.733 217.335 61.133 219.626 60.965C220.017 60.9276 222.532 60.741 223.686 58.557C224.525 57.0076 224.338 55.0663 223.258 53.5356Z" fill="#371B9B"/>
</svg>
