<svg viewBox="0 0 299 224" fill="none" xmlns="http://www.w3.org/2000/svg">
<path d="M92.8109 182.673C109.91 182.673 127.008 182.673 144.107 182.673C161.15 182.673 178.192 182.673 195.216 182.673C204.848 182.673 214.499 182.673 224.131 182.673C224.485 182.673 224.485 182.113 224.131 182.113C207.032 182.113 189.934 182.113 172.835 182.113C155.792 182.113 138.75 182.113 121.726 182.113C112.094 182.113 102.443 182.113 92.8109 182.113C92.4563 182.113 92.4563 182.673 92.8109 182.673Z" fill="#E8E8E8"/>
<path d="M227.584 171.062C227.434 176.438 227.976 181.814 229.208 187.06C229.282 187.414 229.824 187.265 229.749 186.91C228.536 181.721 227.994 176.401 228.162 171.062C228.144 170.708 227.584 170.708 227.584 171.062Z" fill="#E8E8E8"/>
<path d="M249.816 171.491C250.338 176.457 250.021 181.478 248.882 186.331C248.808 186.686 249.33 186.835 249.424 186.481C250.581 181.571 250.917 176.513 250.376 171.491C250.338 171.137 249.778 171.137 249.816 171.491Z" fill="#E8E8E8"/>
<path d="M229.432 187.582C235.891 189.225 242.723 189.001 249.051 186.91C249.387 186.798 249.238 186.257 248.902 186.369C242.648 188.422 235.947 188.665 229.582 187.041C229.227 186.966 229.078 187.507 229.432 187.582Z" fill="#E8E8E8"/>
<path d="M227.845 171.323C235.107 172.872 242.629 172.835 249.872 171.23C250.227 171.155 250.077 170.614 249.723 170.688C242.573 172.275 235.144 172.294 227.995 170.782C227.64 170.707 227.491 171.248 227.845 171.323Z" fill="#E8E8E8"/>
<path d="M232.269 171.529C231.299 169.345 232.176 166.676 232.904 164.529C233.651 162.308 234.715 160.199 236.021 158.257C235.872 158.276 235.723 158.295 235.573 158.313C236.003 158.799 236.469 159.135 237.048 159.415C237.272 159.508 237.515 159.359 237.459 159.097C237.235 158.089 236.843 157.1 237.291 156.092C237.608 155.383 238.056 154.673 238.429 154.001C238.299 154.039 238.168 154.076 238.037 154.095C238.429 154.337 238.821 154.561 239.213 154.804C239.475 154.972 239.699 154.655 239.605 154.412C239.213 153.553 238.952 152.695 239.493 151.836C239.811 151.313 240.221 150.847 240.576 150.361C241.36 149.316 242.181 148.271 243.003 147.244C244.571 145.284 246.195 143.38 247.875 141.513C247.725 141.495 247.576 141.476 247.427 141.457C249.816 144.593 251.328 148.345 251.739 152.265C251.944 154.151 251.888 156.092 251.552 157.959C251.384 158.911 251.141 159.844 250.843 160.759C250.787 160.945 250.712 161.132 250.656 161.3C250.451 161.823 250.115 162.047 249.573 162.159C249.2 162.233 248.995 162.177 248.677 162.42C248.528 162.532 248.491 162.719 248.621 162.868C249.032 163.297 249.2 163.372 249.051 163.951C248.957 164.324 248.733 164.716 248.565 165.089C248.229 165.836 247.856 166.564 247.464 167.273C246.661 168.729 245.747 170.111 244.72 171.417C244.496 171.697 244.888 172.089 245.112 171.809C247.091 169.271 248.659 166.489 249.835 163.503C249.872 163.409 249.835 163.297 249.76 163.223C249.517 162.98 249.275 162.719 249.013 162.476C248.995 162.625 248.976 162.775 248.957 162.924C249.387 162.625 249.872 162.831 250.32 162.644C250.675 162.513 250.861 162.252 251.011 161.916C251.421 161.039 251.683 160.031 251.907 159.097C252.373 157.044 252.523 154.935 252.373 152.844C252.056 148.625 250.507 144.537 247.931 141.177C247.837 141.047 247.632 140.972 247.483 141.121C245.411 143.417 243.413 145.788 241.509 148.215C240.651 149.297 239.736 150.38 238.989 151.556C238.317 152.62 238.635 153.628 239.101 154.711C239.232 154.58 239.363 154.449 239.493 154.319C239.101 154.076 238.709 153.852 238.317 153.609C238.187 153.535 238 153.572 237.925 153.703C237.459 154.561 236.731 155.513 236.469 156.465C236.245 157.305 236.712 158.407 236.899 159.228C237.029 159.116 237.179 159.023 237.309 158.911C236.768 158.668 236.339 158.351 235.947 157.903C235.816 157.753 235.592 157.809 235.499 157.959C234.043 160.124 232.904 162.495 232.12 164.996C231.448 167.161 230.795 169.625 231.747 171.791C231.933 172.127 232.419 171.847 232.269 171.529Z" fill="#E8E8E8"/>
<path d="M247.464 145.75C246.718 154.206 240.931 160.982 238.523 168.934C238.411 169.288 238.952 169.419 239.064 169.083C241.472 161.075 247.278 154.28 248.024 145.75C248.062 145.376 247.483 145.395 247.464 145.75Z" fill="#E8E8E8"/>
<path d="M240.407 150.248C241.005 153.328 241.695 156.37 242.479 159.394C242.573 159.749 243.114 159.6 243.021 159.245C242.237 156.221 241.546 153.16 240.949 150.098C240.893 149.744 240.351 149.893 240.407 150.248Z" fill="#E8E8E8"/>
<path d="M246.717 152.226C248.341 151.05 249.741 149.65 250.955 148.026C251.179 147.746 250.693 147.466 250.469 147.746C249.331 149.277 247.987 150.621 246.437 151.741C246.157 151.965 246.437 152.45 246.717 152.226Z" fill="#E8E8E8"/>
<path d="M244.981 144.238C245.485 145.843 245.784 147.803 247.016 149.017C247.277 149.278 247.669 148.867 247.408 148.625C246.269 147.486 245.97 145.563 245.504 144.089C245.41 143.753 244.869 143.902 244.981 144.238Z" fill="#E8E8E8"/>
<path d="M231.149 171.379C230.01 170.483 229.32 169.232 228.741 167.926C228.088 166.395 227.528 164.827 227.024 163.24C226.072 160.198 225.381 157.062 224.97 153.907C224.13 147.299 224.802 140.616 224 133.99C223.832 134.046 223.645 134.083 223.477 134.139C225.568 138.843 230.458 141.662 234.528 144.462C234.49 144.331 234.453 144.2 234.434 144.07C233.874 144.872 233.314 145.675 232.754 146.478C232.624 146.664 232.792 146.907 232.997 146.907C233.725 146.907 234.36 146.814 235.05 146.571C234.938 146.534 234.845 146.478 234.733 146.44C235.424 147.504 236.114 148.568 236.805 149.632C236.824 149.52 236.842 149.408 236.842 149.296C236.506 149.614 236.226 149.968 235.946 150.36C235.853 150.491 235.946 150.752 236.114 150.771C237.645 150.995 238.186 152.451 238.578 153.758C238.69 154.094 239.232 153.963 239.12 153.608C238.653 152.134 237.981 150.472 236.264 150.23C236.32 150.36 236.376 150.51 236.432 150.64C236.674 150.267 236.917 150.006 237.234 149.707C237.328 149.632 237.346 149.464 237.272 149.371C236.581 148.307 235.89 147.243 235.2 146.179C235.144 146.086 235.013 146.011 234.882 146.048C234.248 146.254 233.632 146.366 232.978 146.347C233.053 146.496 233.146 146.627 233.221 146.776C233.781 145.974 234.341 145.171 234.901 144.368C234.994 144.238 234.92 144.07 234.808 143.976C230.813 141.232 226.016 138.488 223.962 133.859C223.85 133.616 223.402 133.728 223.44 134.008C224.261 140.878 223.533 147.822 224.504 154.672C224.97 157.976 225.736 161.224 226.8 164.379C227.658 166.936 228.554 170.054 230.738 171.79C231.037 171.995 231.429 171.603 231.149 171.379Z" fill="#E8E8E8"/>
<path d="M223.59 134.55C225.102 138.732 226.371 143.137 228.406 147.113C229.414 149.073 230.515 150.996 231.467 152.993C232.494 155.158 233.408 157.361 234.342 159.545C234.472 159.881 234.957 159.582 234.827 159.265C233.95 157.174 233.054 155.084 232.102 153.03C231.168 151.014 230.086 149.092 229.04 147.132C226.95 143.137 225.662 138.657 224.112 134.42C224 134.065 223.459 134.214 223.59 134.55Z" fill="#E8E8E8"/>
<path d="M224.299 148.736C226.315 148.979 228.518 149.091 230.049 150.603C230.31 150.864 230.702 150.453 230.441 150.211C228.798 148.605 226.465 148.456 224.299 148.195C223.945 148.139 223.945 148.699 224.299 148.736Z" fill="#E8E8E8"/>
<path d="M229.694 141.176C229.358 142.389 229.134 143.64 229.04 144.909C228.966 145.992 228.835 147.261 229.208 148.307C229.32 148.643 229.862 148.493 229.75 148.157C229.395 147.168 229.526 145.936 229.6 144.891C229.694 143.677 229.918 142.483 230.235 141.307C230.328 140.971 229.787 140.821 229.694 141.176Z" fill="#E8E8E8"/>
<path d="M225.568 158.909C227.024 158.946 228.424 158.965 229.842 159.357C231.242 159.749 232.624 160.16 234.024 160.57C234.378 160.664 234.528 160.122 234.173 160.029C232.68 159.6 231.205 159.133 229.693 158.741C228.33 158.386 226.968 158.405 225.568 158.368C225.213 158.33 225.213 158.89 225.568 158.909Z" fill="#E8E8E8"/>
<path d="M245.989 170.857C247.239 170.689 248.471 170.689 249.722 170.857C249.666 170.726 249.61 170.577 249.554 170.446C249.442 170.614 248.322 170.633 248.098 170.651C247.594 170.726 247.071 170.801 246.567 170.913C246.493 170.931 245.989 170.987 245.97 171.043C246.007 170.95 246.754 170.969 246.866 170.969C247.407 170.969 247.949 171.025 248.49 171.062C248.49 170.875 248.49 170.689 248.49 170.502C248.023 170.483 247.613 170.539 247.146 170.67C246.847 170.745 246.903 171.211 247.221 171.211C247.949 171.211 248.602 171.062 249.311 170.875C249.666 170.782 249.517 170.241 249.162 170.334C248.527 170.502 247.893 170.651 247.221 170.651C247.239 170.838 247.277 171.025 247.295 171.193C247.687 171.081 248.079 171.043 248.49 171.043C248.845 171.043 248.845 170.502 248.49 170.483C247.669 170.446 246.474 170.147 245.727 170.614C245.429 170.801 244.999 171.286 245.391 171.585C245.559 171.715 245.746 171.641 245.951 171.622C246.511 171.51 247.053 171.379 247.613 171.286C248.266 171.174 249.573 171.342 250.021 170.726C250.114 170.595 250.021 170.334 249.853 170.315C248.546 170.129 247.277 170.129 245.97 170.297C245.634 170.334 245.634 170.894 245.989 170.857Z" fill="#E8E8E8"/>
<path d="M228.088 171.212C228.349 171.137 228.61 171.081 228.872 171.062C229.002 171.062 229.114 171.044 229.245 171.062C229.301 171.062 229.562 171.044 229.581 171.062C229.562 170.969 229.525 170.876 229.506 170.782C229.506 170.801 229.488 170.82 229.488 170.82C229.6 170.764 229.712 170.689 229.824 170.633C229.805 170.633 229.786 170.633 229.786 170.633C229.842 170.689 229.917 170.764 229.973 170.82C229.973 170.801 229.973 170.782 229.954 170.782C229.861 170.428 229.338 170.577 229.413 170.932C229.413 170.95 229.413 170.969 229.432 170.969C229.45 171.062 229.544 171.137 229.618 171.156C229.637 171.156 229.656 171.156 229.656 171.156C229.805 171.193 229.936 171.118 229.992 170.969C229.992 170.95 230.01 170.932 230.01 170.932C230.048 170.838 230.01 170.726 229.936 170.652C229.73 170.446 229.282 170.484 229.021 170.484C228.648 170.484 228.256 170.558 227.901 170.652C227.602 170.764 227.752 171.305 228.088 171.212Z" fill="#E8E8E8"/>
<path d="M228.517 174.963C235.331 176.139 242.405 176.699 249.125 174.683C249.461 174.571 249.331 174.048 248.976 174.141C242.368 176.12 235.387 175.579 228.667 174.421C228.312 174.365 228.163 174.907 228.517 174.963Z" fill="#E8E8E8"/>
<path d="M251.981 182.635C263.946 182.635 275.93 182.635 287.896 182.635C288.25 182.635 288.25 182.075 287.896 182.075C275.93 182.075 263.946 182.075 251.981 182.075C251.608 182.075 251.608 182.635 251.981 182.635Z" fill="#E8E8E8"/>
<path d="M242.928 194.637C254.203 194.637 265.496 194.637 276.771 194.637C277.126 194.637 277.126 194.077 276.771 194.077C265.496 194.077 254.203 194.077 242.928 194.077C242.573 194.077 242.573 194.637 242.928 194.637Z" fill="#E8E8E8"/>
<path d="M248.062 194.582C246.718 195.702 245.374 196.803 244.048 197.923C243.768 198.147 244.16 198.539 244.44 198.315C245.784 197.195 247.128 196.094 248.454 194.974C248.734 194.75 248.323 194.339 248.062 194.582Z" fill="#E8E8E8"/>
<path d="M244.216 198.52C244.571 198.52 244.571 197.96 244.216 197.96C243.862 197.96 243.862 198.52 244.216 198.52Z" fill="#E8E8E8"/>
<path d="M249.909 197.96C238.541 197.96 227.173 197.96 215.805 197.96C215.45 197.96 215.45 198.52 215.805 198.52C227.173 198.52 238.541 198.52 249.909 198.52C250.264 198.52 250.264 197.96 249.909 197.96Z" fill="#E8E8E8"/>
<path d="M215.749 203.747C217.765 202.067 219.837 200.461 221.965 198.912C222.245 198.707 221.984 198.221 221.685 198.427C219.52 199.995 217.41 201.637 215.357 203.336C215.077 203.579 215.469 203.971 215.749 203.747Z" fill="#E8E8E8"/>
<path d="M45.808 193.556C58.9867 193.556 72.1653 193.556 85.344 193.556C89.0773 193.556 92.8107 193.556 96.544 193.556C96.8987 193.556 96.8987 192.996 96.544 192.996C83.3653 192.996 70.1867 192.996 57.008 192.996C53.2747 192.996 49.5413 192.996 45.808 192.996C45.4533 192.996 45.4533 193.556 45.808 193.556Z" fill="#E8E8E8"/>
<path d="M52.6958 198.427C54.4692 196.915 56.2612 195.403 58.0345 193.891C58.3145 193.649 57.9038 193.257 57.6425 193.499C55.8692 195.011 54.0772 196.523 52.3038 198.035C52.0238 198.259 52.4345 198.67 52.6958 198.427Z" fill="#E8E8E8"/>
<path d="M46.2748 198.969C58.5201 198.969 70.7655 198.969 83.0108 198.969C83.3655 198.969 83.3655 198.409 83.0108 198.409C70.7655 198.409 58.5201 198.409 46.2748 198.409C45.9201 198.409 45.9201 198.969 46.2748 198.969Z" fill="#E8E8E8"/>
<path d="M78.7359 198.857C77.3359 200.425 75.8986 201.956 74.4426 203.486C74.1999 203.747 74.5919 204.139 74.8346 203.878C76.2906 202.347 77.7092 200.817 79.1279 199.249C79.3892 198.988 78.9786 198.596 78.7359 198.857Z" fill="#E8E8E8"/>
<path d="M69.1791 204.382C79.9498 204.382 90.7017 204.382 101.472 204.382C101.827 204.382 101.827 203.822 101.472 203.822C90.7017 203.822 79.9498 203.822 69.1791 203.822C68.8244 203.822 68.8244 204.382 69.1791 204.382Z" fill="#E8E8E8"/>
<path d="M61.5443 184.166C66.099 184.166 70.6537 184.166 75.227 184.166C75.5817 184.166 75.5817 183.606 75.227 183.606C70.6724 183.606 66.1177 183.606 61.5443 183.606C61.1897 183.606 61.1897 184.166 61.5443 184.166Z" fill="#E8E8E8"/>
<path d="M78.6804 185.996C80.0804 185.996 81.499 185.996 82.899 185.996C83.2536 185.996 83.2536 185.436 82.899 185.436C81.499 185.436 80.0804 185.436 78.6804 185.436C78.3071 185.436 78.3071 185.996 78.6804 185.996Z" fill="#E8E8E8"/>
<path d="M68.5439 86.1854C68.5439 89.2281 68.5439 92.2894 68.5439 95.3321C68.5439 95.6868 69.1039 95.6868 69.1039 95.3321C69.1039 92.2894 69.1039 89.2281 69.1039 86.1854C69.1039 85.8308 68.5439 85.8308 68.5439 86.1854Z" fill="#E8E8E8"/>
<path d="M59.1547 95.7788C66.6587 95.7788 74.1627 95.7788 81.6667 95.7788C82.0213 95.7788 82.0213 95.2188 81.6667 95.2188C74.1627 95.2188 66.6587 95.2188 59.1547 95.2188C58.8 95.2188 58.8 95.7788 59.1547 95.7788Z" fill="#E8E8E8"/>
<path d="M74.8721 96.04C74.8721 98.392 74.8721 100.725 74.8721 103.077C74.8721 103.432 75.4321 103.432 75.4321 103.077C75.4321 100.725 75.4321 98.392 75.4321 96.04C75.4321 95.6667 74.8721 95.6667 74.8721 96.04Z" fill="#E8E8E8"/>
<path d="M68.656 104.049C74.6293 104.049 80.6213 104.049 86.5947 104.049C86.9493 104.049 86.9493 103.489 86.5947 103.489C80.6213 103.489 74.6293 103.489 68.656 103.489C68.2826 103.489 68.2826 104.049 68.656 104.049Z" fill="#E8E8E8"/>
<path d="M219.296 79.6322C219.296 80.3789 219.296 81.1069 219.296 81.8535C219.296 82.2082 219.856 82.2082 219.856 81.8535C219.856 81.1069 219.856 80.3789 219.856 79.6322C219.856 79.2775 219.296 79.2775 219.296 79.6322Z" fill="#E8E8E8"/>
<path d="M219.744 80.0798C232.586 80.0798 245.429 80.0798 258.272 80.0798C258.626 80.0798 258.626 79.5198 258.272 79.5198C245.429 79.5198 232.586 79.5198 219.744 79.5198C219.389 79.5198 219.389 80.0798 219.744 80.0798Z" fill="#E8E8E8"/>
<path d="M220.08 82.1335C232.811 82.1335 245.542 82.1335 258.254 82.1335C258.609 82.1335 258.609 81.5735 258.254 81.5735C245.523 81.5735 232.792 81.5735 220.08 81.5735C219.726 81.5735 219.726 82.1335 220.08 82.1335Z" fill="#E8E8E8"/>
<path d="M258.179 79.6322C258.104 80.3975 258.141 81.1629 258.272 81.9282C258.328 82.2829 258.869 82.1335 258.813 81.7789C258.683 81.0695 258.664 80.3415 258.739 79.6322C258.776 79.2775 258.216 79.2775 258.179 79.6322Z" fill="#E8E8E8"/>
<path d="M222.376 79.6502C222.376 74.4422 222.376 69.2342 222.376 64.0263C222.376 63.6716 221.816 63.6716 221.816 64.0263C221.816 69.2342 221.816 74.4422 221.816 79.6502C221.816 80.0236 222.376 80.0236 222.376 79.6502Z" fill="#E8E8E8"/>
<path d="M222.376 64.1206C223.962 63.486 225.642 63.5793 227.117 64.4566C227.434 64.6433 227.714 64.1579 227.397 63.9713C225.81 63.038 223.925 62.8886 222.227 63.5793C221.891 63.71 222.04 64.2513 222.376 64.1206Z" fill="#E8E8E8"/>
<path d="M227.023 64.3256C227.023 69.3282 227.023 74.3496 227.023 79.3522C227.023 79.7069 227.583 79.7069 227.583 79.3522C227.583 74.3496 227.583 69.3282 227.583 64.3256C227.583 63.9709 227.023 63.9709 227.023 64.3256Z" fill="#E8E8E8"/>
<path d="M227.659 68.5066C228.798 68.0399 229.992 68.1146 231.056 68.7679C231.374 68.9546 231.654 68.4693 231.336 68.2826C230.16 67.5733 228.779 67.4426 227.51 67.9653C227.174 68.0959 227.323 68.6373 227.659 68.5066Z" fill="#E8E8E8"/>
<path d="M230.944 68.7494C230.944 72.2587 230.944 75.7494 230.944 79.2588C230.944 79.6134 231.504 79.6134 231.504 79.2588C231.504 75.7494 231.504 72.2587 231.504 68.7494C231.504 68.3947 230.944 68.3947 230.944 68.7494Z" fill="#E8E8E8"/>
<path d="M222.451 68.4138C224.038 68.0591 225.606 68.1711 227.136 68.7125C227.472 68.8245 227.622 68.2832 227.286 68.1711C225.662 67.5925 223.982 67.5178 222.302 67.8725C221.966 67.9471 222.115 68.4885 222.451 68.4138Z" fill="#E8E8E8"/>
<path d="M227.267 74.8913C228.462 74.574 229.656 74.5367 230.87 74.798C231.224 74.8726 231.374 74.3313 231.019 74.2567C229.712 73.9767 228.424 73.9953 227.118 74.35C226.782 74.4433 226.912 74.9846 227.267 74.8913Z" fill="#E8E8E8"/>
<path d="M238 79.465C238 78.4197 238 77.3743 238 76.329C238 75.9743 237.44 75.9743 237.44 76.329C237.44 77.3743 237.44 78.4197 237.44 79.465C237.44 79.8197 238 79.8197 238 79.465Z" fill="#E8E8E8"/>
<path d="M237.72 76.496C243.787 76.496 249.835 76.496 255.902 76.496C256.256 76.496 256.256 75.936 255.902 75.936C249.835 75.936 243.787 75.936 237.72 75.936C237.347 75.936 237.347 76.496 237.72 76.496Z" fill="#E8E8E8"/>
<path d="M256.089 76.7958C256.443 76.7958 256.443 76.2358 256.089 76.2358C255.715 76.2358 255.715 76.7958 256.089 76.7958Z" fill="#E8E8E8"/>
<path d="M255.809 76.5153C255.809 77.4673 255.809 78.4193 255.809 79.3713C255.809 79.7259 256.369 79.7259 256.369 79.3713C256.369 78.4193 256.369 77.4673 256.369 76.5153C256.369 76.1606 255.809 76.1606 255.809 76.5153Z" fill="#E8E8E8"/>
<path d="M241.528 76.1226C241.528 75.1333 241.528 74.1626 241.528 73.1732C241.528 72.8186 240.968 72.8186 240.968 73.1732C240.968 74.1626 240.968 75.1333 240.968 76.1226C240.968 76.4773 241.528 76.4773 241.528 76.1226Z" fill="#E8E8E8"/>
<path d="M241.247 73.3601C247.202 73.3601 253.157 73.3601 259.13 73.3601C259.485 73.3601 259.485 72.8 259.13 72.8C253.175 72.8 247.221 72.8 241.247 72.8C240.893 72.8 240.893 73.3601 241.247 73.3601Z" fill="#E8E8E8"/>
<path d="M258.944 73.0801C258.944 73.9014 258.944 74.7227 258.944 75.5441C258.944 75.8987 259.504 75.8987 259.504 75.5441C259.504 74.7227 259.504 73.9014 259.504 73.0801C259.504 72.7067 258.944 72.7067 258.944 73.0801Z" fill="#E8E8E8"/>
<path d="M255.696 76.59C256.779 76.59 257.861 76.59 258.944 76.59C259.299 76.59 259.299 76.03 258.944 76.03C257.861 76.03 256.779 76.03 255.696 76.03C255.323 76.03 255.323 76.59 255.696 76.59Z" fill="#E8E8E8"/>
<path d="M258.907 75.5629C258.87 75.7682 258.87 75.9549 258.926 76.1416C258.963 76.2909 259.131 76.3842 259.262 76.3282C259.411 76.2909 259.504 76.1229 259.448 75.9922C259.43 75.8989 259.411 75.7869 259.43 75.7122C259.448 75.5629 259.392 75.3949 259.243 75.3762C259.112 75.3389 258.926 75.4135 258.907 75.5629Z" fill="#E8E8E8"/>
<path d="M245.504 73.2118C245.747 74.1638 245.803 75.1345 245.672 76.1238C245.635 76.4785 246.195 76.4785 246.232 76.1238C246.363 75.0971 246.288 74.0704 246.045 73.0624C245.952 72.7264 245.411 72.8758 245.504 73.2118Z" fill="#E8E8E8"/>
<path d="M249.723 76.4586C249.853 77.3919 249.779 78.3066 249.555 79.2026C249.461 79.5573 250.003 79.7066 250.096 79.3519C250.358 78.3439 250.414 77.3359 250.264 76.3092C250.227 75.9546 249.685 76.1039 249.723 76.4586Z" fill="#E8E8E8"/>
<path d="M246.064 99.1767C246.064 100.651 246.064 102.107 246.064 103.582C246.064 103.937 246.624 103.937 246.624 103.582C246.624 102.107 246.624 100.651 246.624 99.1767C246.624 98.8034 246.064 98.8034 246.064 99.1767Z" fill="#E8E8E8"/>
<path d="M241.733 103.657C245.466 103.657 249.199 103.657 252.933 103.657C253.288 103.657 253.288 103.097 252.933 103.097C249.199 103.097 245.466 103.097 241.733 103.097C241.378 103.097 241.378 103.657 241.733 103.657Z" fill="#E8E8E8"/>
<path d="M235.368 40.8622C235.368 44.2222 235.368 47.6008 235.368 50.9608C235.368 51.3155 235.928 51.3155 235.928 50.9608C235.928 47.6008 235.928 44.2222 235.928 40.8622C235.928 40.5075 235.368 40.5075 235.368 40.8622Z" fill="#E8E8E8"/>
<path d="M236.078 40.843C240.334 40.843 244.571 40.843 248.827 40.843C249.182 40.843 249.182 40.283 248.827 40.283C244.571 40.283 240.334 40.283 236.078 40.283C235.723 40.283 235.723 40.843 236.078 40.843Z" fill="#E8E8E8"/>
<path d="M248.845 40.7682C248.845 44.0162 248.845 47.2642 248.845 50.4935C248.845 50.8482 249.405 50.8482 249.405 50.4935C249.405 47.2455 249.405 43.9975 249.405 40.7682C249.405 40.4135 248.845 40.4135 248.845 40.7682Z" fill="#E8E8E8"/>
<path d="M235.574 51.277C240.091 51.277 244.608 51.277 249.126 51.277C249.48 51.277 249.48 50.717 249.126 50.717C244.608 50.717 240.091 50.717 235.574 50.717C235.219 50.717 235.219 51.277 235.574 51.277Z" fill="#E8E8E8"/>
<path d="M236.618 42.0187C236.618 44.576 236.618 47.1147 236.618 49.672C236.618 50.0267 237.178 50.0267 237.178 49.672C237.178 47.1147 237.178 44.576 237.178 42.0187C237.178 41.664 236.618 41.664 236.618 42.0187Z" fill="#E8E8E8"/>
<path d="M237.03 42.2429C240.52 42.2429 244.03 42.2429 247.52 42.2429C247.875 42.2429 247.875 41.6829 247.52 41.6829C244.03 41.6829 240.52 41.6829 237.03 41.6829C236.675 41.6829 236.675 42.2429 237.03 42.2429Z" fill="#E8E8E8"/>
<path d="M247.314 42.0187C247.314 44.3893 247.314 46.7413 247.314 49.112C247.314 49.4667 247.874 49.4667 247.874 49.112C247.874 46.7413 247.874 44.3893 247.874 42.0187C247.874 41.664 247.314 41.664 247.314 42.0187Z" fill="#E8E8E8"/>
<path d="M237.03 49.9523C240.502 49.9523 243.974 49.9523 247.464 49.9523C247.819 49.9523 247.819 49.3923 247.464 49.3923C243.992 49.3923 240.52 49.3923 237.03 49.3923C236.675 49.3923 236.675 49.9523 237.03 49.9523Z" fill="#E8E8E8"/>
<path d="M243.637 46.5918C242.162 45.4718 244.365 43.1384 245.392 44.5384C246.344 45.8078 244.794 47.3384 243.469 46.6291C243.152 46.4611 242.872 46.9464 243.189 47.1144C244.048 47.5811 245.186 47.4504 245.802 46.6478C246.437 45.8451 246.362 44.5758 245.56 43.9038C244.72 43.2131 243.525 43.6798 242.946 44.4638C242.33 45.3224 242.517 46.4424 243.357 47.0771C243.656 47.2824 243.917 46.7971 243.637 46.5918Z" fill="#E8E8E8"/>
<path d="M241.865 49.3551C241.79 47.8804 243.601 47.3204 244.739 47.3204C246.139 47.3204 246.587 48.5711 247.166 49.6351C247.334 49.9524 247.819 49.6724 247.651 49.3551C247.259 48.6457 246.886 47.7124 246.232 47.1897C245.635 46.7231 244.889 46.7417 244.179 46.8164C242.873 46.9657 241.211 47.7684 241.305 49.3551C241.323 49.7097 241.883 49.7097 241.865 49.3551Z" fill="#E8E8E8"/>
<path d="M237.272 48.0105C237.683 47.2451 239.195 47.5438 239.755 47.8424C240.334 48.1598 240.67 48.6825 240.819 49.3171C240.894 49.6718 241.435 49.5224 241.36 49.1678C241.136 48.1971 240.464 47.4318 239.494 47.1144C238.672 46.8531 237.272 46.8344 236.806 47.7118C236.619 48.0478 237.104 48.3278 237.272 48.0105Z" fill="#E8E8E8"/>
<path d="M238.355 46.6298C237.739 46.6112 237.888 45.6965 238.149 45.3792C238.485 44.9685 239.157 44.9125 239.549 45.3045C239.867 45.6032 239.96 46.1632 239.699 46.5178C239.512 46.7792 239.232 46.8352 238.933 46.8352C238.821 46.8352 238.355 46.8538 238.28 46.7605C238.075 46.4618 237.589 46.7418 237.795 47.0405C238.019 47.3765 238.485 47.3952 238.859 47.3952C239.307 47.4138 239.736 47.3018 240.053 46.9658C240.651 46.3125 240.445 45.2112 239.736 44.7258C238.971 44.2218 237.907 44.5018 237.515 45.3232C237.179 46.0512 237.421 47.1525 238.355 47.1712C238.728 47.2085 238.728 46.6485 238.355 46.6298Z" fill="#E8E8E8"/>
<path d="M124.115 90.4778C124.993 91.1872 126.075 90.8885 126.897 90.1978C128.054 89.2458 128.633 87.6218 128.857 86.1845C129.435 82.5258 127.961 79.0538 127.382 75.5072C126.337 68.9179 129.211 61.8619 134.55 57.9045C137.145 55.9632 141.419 53.8912 140.411 49.9152C140.318 49.5605 139.777 49.7099 139.87 50.0645C140.822 53.8539 136.417 55.7765 134.009 57.6059C131.843 59.2672 130.089 61.4139 128.838 63.8219C127.606 66.1552 126.859 68.7499 126.654 71.3819C126.411 74.5738 127.251 77.5418 127.942 80.6218C128.353 82.4885 128.614 84.4485 128.259 86.3525C128.091 87.2298 127.793 88.0885 127.326 88.8538C126.803 89.6752 125.553 90.9445 124.507 90.1045C124.246 89.8618 123.835 90.2538 124.115 90.4778Z" fill="#E8E8E8"/>
<path d="M140.206 49.6902C138.096 49.7836 136.248 48.1409 136.36 45.9756C136.472 43.7169 139.142 41.6263 141.4 42.2236C143.416 42.7649 144.966 44.9862 144.462 47.0582C143.958 49.1302 141.624 49.5782 139.832 49.8769C139.478 49.9329 139.627 50.4742 139.982 50.4182C142.296 50.0449 144.984 49.2236 145.134 46.4236C145.246 44.1462 143.211 41.6823 140.878 41.5889C138.414 41.4769 135.931 43.4929 135.8 45.9942C135.688 48.4582 137.797 50.3622 140.206 50.2689C140.56 50.2316 140.56 49.6716 140.206 49.6902Z" fill="#E8E8E8"/>
<path d="M137.443 48.2351C138.339 45.9764 143.118 45.603 143.678 48.2911C143.753 48.6457 144.294 48.4964 144.219 48.1417C143.529 44.8564 137.985 45.3417 136.902 48.0857C136.771 48.4217 137.313 48.5524 137.443 48.2351Z" fill="#E8E8E8"/>
<path d="M140.243 45.7154C139.851 45.4354 139.702 44.8941 139.963 44.4834C140.262 43.9794 140.896 43.9234 141.382 44.1848C141.755 44.3901 141.83 44.8568 141.606 45.2114C141.326 45.6408 140.728 45.6968 140.262 45.5848C139.907 45.5101 139.758 46.0514 140.112 46.1261C140.859 46.2941 141.755 46.1261 142.128 45.3981C142.464 44.7448 142.222 43.9608 141.55 43.6434C140.803 43.3074 139.907 43.4568 139.478 44.1848C139.048 44.8754 139.328 45.7341 139.963 46.1821C140.262 46.4248 140.542 45.9394 140.243 45.7154Z" fill="#E8E8E8"/>
<path d="M148.158 39.9663C150.118 34.7769 155.756 32.1262 161.001 31.7716C164.473 31.5289 167.945 32.0702 171.342 32.7236C174.553 33.3582 177.894 34.3662 181.18 34.2542C183.886 34.1609 186.668 33.0409 187.937 30.5209C188.105 30.2036 187.62 29.9236 187.452 30.2409C185.977 33.1529 182.58 33.8996 179.574 33.6569C176.065 33.3769 172.612 32.3316 169.158 31.7529C163.558 30.8196 157.585 30.6889 152.601 33.8436C150.342 35.2809 148.55 37.2969 147.598 39.8169C147.486 40.1529 148.027 40.3023 148.158 39.9663Z" fill="#E8E8E8"/>
<path d="M190.195 30.2036C195.123 30.2036 200.07 30.2036 204.998 30.2036C205.352 30.2036 205.352 29.6436 204.998 29.6436C200.07 29.6436 195.123 29.6436 190.195 29.6436C189.822 29.6436 189.822 30.2036 190.195 30.2036Z" fill="#E8E8E8"/>
<path d="M189.989 29.6063C189.112 28.7476 190.064 27.2916 190.755 26.6383C191.595 25.8169 192.752 25.4996 193.872 25.9476C193.965 25.9849 194.152 25.9289 194.189 25.8169C194.861 24.2489 196.448 23.1103 198.184 23.1849C199.995 23.2596 201.525 24.6223 201.973 26.3396C202.011 26.5076 202.235 26.6009 202.384 26.5076C203.205 26.0036 204.046 26.6009 204.382 27.3663C204.68 28.0756 204.606 28.8783 204.531 29.6436C204.494 29.9983 205.054 29.9983 205.091 29.6436C205.203 28.5236 205.278 27.1983 204.382 26.3396C203.747 25.7423 202.87 25.5556 202.123 26.0223C202.254 26.0783 202.403 26.1343 202.533 26.1903C202.029 24.3236 200.424 22.8303 198.464 22.6436C196.448 22.4383 194.507 23.6889 193.723 25.5369C193.835 25.4996 193.928 25.4436 194.04 25.4063C192.547 24.8089 190.979 25.4436 190.008 26.6756C189.28 27.5903 188.645 29.065 189.635 30.017C189.859 30.2596 190.251 29.8676 189.989 29.6063Z" fill="#E8E8E8"/>
<path d="M200.611 32.3504C202.907 32.089 204.251 34.497 204.605 36.4384C204.979 38.4357 204.624 40.433 204.419 42.4304C204.101 45.4357 204.307 49.057 207.163 50.8117C207.461 50.9984 207.76 50.513 207.443 50.3264C203.541 47.937 205.165 42.617 205.315 38.9584C205.427 36.177 204.325 31.3797 200.611 31.7904C200.256 31.8277 200.256 32.3877 200.611 32.3504Z" fill="#E8E8E8"/>
<path d="M210.262 47.6571C208.582 51.8945 206.921 56.1318 205.241 60.3505C205.11 60.6865 205.652 60.8358 205.782 60.4998C207.462 56.2625 209.124 52.0251 210.804 47.8065C210.934 47.4705 210.393 47.3398 210.262 47.6571Z" fill="#E8E8E8"/>
<path d="M210.523 48.012C213.435 47.8627 216.329 47.9373 219.222 48.2733C219.129 48.1613 219.035 48.0307 218.961 47.9187C217.579 52.3427 216.459 56.8227 215.563 61.3587C215.489 61.7133 216.03 61.8627 216.105 61.508C217.001 56.972 218.139 52.492 219.502 48.068C219.558 47.8813 219.409 47.732 219.241 47.7133C216.347 47.3773 213.454 47.3027 210.542 47.452C210.169 47.4707 210.169 48.0307 210.523 48.012Z" fill="#E8E8E8"/>
<path d="M205.371 60.8918C207.089 60.9664 208.787 61.0598 210.505 61.1718C212.166 61.2651 213.94 61.2278 215.508 61.8625C215.844 61.9931 215.993 61.4518 215.657 61.3211C214.164 60.7051 212.465 60.7424 210.878 60.6491C209.049 60.5371 207.219 60.4438 205.371 60.3504C205.017 60.3131 205.017 60.8731 205.371 60.8918Z" fill="#E8E8E8"/>
<path d="M210.785 49.8777C212.577 49.9151 214.369 50.0457 216.142 50.2884C216.497 50.3444 216.646 49.8031 216.292 49.7471C214.462 49.4857 212.633 49.3364 210.785 49.2991C210.412 49.2991 210.412 49.8591 210.785 49.8777Z" fill="#E8E8E8"/>
<path d="M210.243 51.1464C211.251 51.109 212.259 51.1277 213.267 51.221C213.621 51.2584 213.621 50.6984 213.267 50.661C212.259 50.5677 211.251 50.5304 210.243 50.5864C209.888 50.605 209.888 51.165 210.243 51.1464Z" fill="#E8E8E8"/>
<path d="M209.011 53.6668C211.158 53.5362 213.193 53.3495 215.302 53.8722C215.657 53.9655 215.806 53.4242 215.451 53.3308C213.286 52.8082 211.214 52.9762 209.011 53.1068C208.638 53.1255 208.638 53.6855 209.011 53.6668Z" fill="#E8E8E8"/>
<path d="M209.104 55.3097C210.336 55.2164 211.568 55.2164 212.8 55.3284C213.155 55.3657 213.155 54.8057 212.8 54.7684C211.568 54.6564 210.336 54.6564 209.104 54.7497C208.749 54.787 208.731 55.347 209.104 55.3097Z" fill="#E8E8E8"/>
<path d="M208.134 57.4758C209.814 57.3639 211.457 57.4198 213.118 57.6438C213.473 57.6998 213.473 57.1399 213.118 57.0839C211.457 56.8599 209.796 56.8039 208.134 56.9159C207.779 56.9345 207.779 57.4945 208.134 57.4758Z" fill="#E8E8E8"/>
<path d="M115.249 32.4248C115.995 33.4328 117.078 33.8435 118.179 34.3475C119.486 34.9448 120.681 35.7475 121.652 36.8115C123.854 39.1821 124.582 42.3741 124.638 45.5288C124.769 51.4461 122.772 57.6435 125.46 63.2435C125.609 63.5608 126.094 63.2808 125.945 62.9635C123.126 57.0648 125.628 50.4568 125.142 44.2595C124.937 41.5715 124.172 38.9395 122.436 36.8488C121.614 35.8595 120.606 35.0008 119.486 34.3661C118.235 33.6568 116.611 33.3395 115.734 32.1448C115.529 31.8648 115.043 32.1448 115.249 32.4248Z" fill="#E8E8E8"/>
<path d="M108.864 24.5288C108.379 23.9128 108.416 23.4834 108.976 23.2408C109.219 23.1101 109.462 23.0168 109.742 22.9608C110.096 22.8861 110.488 22.8674 110.862 22.8861C111.982 22.9421 113.12 23.2408 113.064 24.6034C113.008 26.2088 112.71 27.7954 112.318 29.3448C111.907 30.9314 111.403 32.4808 110.862 34.0301C110.75 34.3661 110.656 34.7581 110.488 35.0754C110.152 35.6541 109.63 35.6354 109.07 35.6354C108.379 35.6354 107.502 35.7288 106.83 35.5421C106.083 35.3368 105.915 34.5901 106.643 34.1048C106.979 33.8808 107.446 33.8434 107.838 33.8434C108.342 33.8434 108.79 33.9554 109.219 33.6194C110.04 32.9848 110.171 31.2674 110.358 30.3528C110.638 29.0274 111.104 27.4034 111.011 26.0594C110.936 25.0328 109.928 24.9954 109.2 24.5661C108.883 24.3794 108.603 24.8648 108.92 25.0514C109.499 25.3874 110.339 25.4248 110.451 26.1901C110.582 27.0861 110.208 28.2994 110.04 29.1954C109.872 30.0541 109.686 30.9128 109.462 31.7528C109.294 32.3874 109.219 33.1528 108.379 33.3208C108.043 33.3954 107.632 33.2834 107.278 33.3394C106.382 33.4701 105.504 34.1048 105.635 35.1128C105.803 36.3821 107.315 36.1581 108.248 36.1954C109.406 36.2328 110.563 36.4008 111.086 35.1688C111.739 33.6381 112.206 31.9581 112.654 30.3714C113.12 28.7288 113.475 27.0301 113.606 25.3314C113.718 24.0061 113.774 22.9421 112.299 22.5874C111.011 22.2701 109.238 22.1208 108.23 23.1661C107.558 23.8568 107.726 25.2194 108.883 25.1261C109.219 25.0514 109.219 24.4914 108.864 24.5288Z" fill="#E8E8E8"/>
<path d="M106.606 26.5261C106.587 26.5074 106.568 26.4887 106.55 26.4701C106.475 26.3954 106.363 26.3767 106.27 26.3954C105.728 26.5821 105.523 27.4594 105.374 27.9447C105.112 28.8407 105.056 29.7554 105.187 30.6887C105.224 31.0434 105.784 31.0434 105.747 30.6887C105.672 30.0354 105.654 29.4007 105.766 28.7474C105.822 28.4114 106.4 27.1047 106.195 26.9181C106.456 27.1794 106.848 26.7874 106.606 26.5261Z" fill="#E8E8E8"/>
<path d="M104.721 24.4721C103.004 26.6561 101.902 29.2881 102.63 32.0881C102.724 32.4427 103.265 32.2934 103.172 31.9387C102.5 29.3627 103.545 26.8801 105.113 24.8641C105.337 24.5841 104.945 24.1921 104.721 24.4721Z" fill="#E8E8E8"/>
<path d="M102.369 21.9524C99.5126 25.7044 98.1686 30.4457 98.654 35.1497C98.6913 35.5044 99.2513 35.5044 99.214 35.1497C98.7473 30.5391 100.035 25.9284 102.854 22.2324C103.059 21.9524 102.574 21.6724 102.369 21.9524Z" fill="#E8E8E8"/>
<path d="M98.3923 41.0304C96.9549 41.7211 95.6109 42.6731 94.5469 43.8678C93.4643 45.0998 93.1283 46.4251 92.9603 48.0304C92.5869 51.7078 91.2243 55.7397 87.5283 57.2891C87.1923 57.4197 87.3416 57.9611 87.6776 57.8304C90.6269 56.5984 92.3443 53.7984 93.0723 50.7744C93.5016 48.9638 93.2963 46.8171 94.2483 45.1931C95.2189 43.5318 96.9736 42.3184 98.6723 41.4971C99.0083 41.3664 98.7283 40.8811 98.3923 41.0304Z" fill="#E8E8E8"/>
<path d="M79.6324 67.2C78.4004 67.2373 77.0004 66.7146 76.5524 65.4453C76.0297 63.952 77.1497 62.496 78.3444 61.7306C80.659 60.2373 83.7764 59.6586 86.4644 59.6213C87.8271 59.6026 89.3764 59.6213 90.5711 60.3493C92.1017 61.2826 92.3631 63.0373 91.1684 64.3626C89.3577 66.3786 86.2404 66.584 83.7391 66.7706C83.3844 66.7893 83.3844 67.3493 83.7391 67.3306C86.2404 67.144 89.0404 66.92 91.0564 65.24C92.9044 63.7093 93.0351 61.1706 90.8697 59.8453C88.6297 58.4826 85.2137 58.9306 82.7871 59.4533C80.4537 59.9573 77.2617 60.872 76.2164 63.28C75.1337 65.744 77.2057 67.7973 79.6697 67.7226C80.0057 67.7413 80.0057 67.1813 79.6324 67.2Z" fill="#E8E8E8"/>
<path d="M79.5386 67.4235C79.0719 68.1702 78.6239 68.9168 78.1573 69.6449C78.0079 69.8875 78.3066 70.1489 78.5493 70.0369C79.6879 69.4208 80.9199 69.0288 82.0772 68.4875C82.7119 68.2075 83.3279 67.8715 83.9252 67.4981C84.1305 67.3675 84.3732 67.2928 84.4292 67.0315C84.4665 66.9008 84.3919 66.7141 84.2425 66.6955C84.2239 66.6955 84.2052 66.6955 84.1865 66.6768C84.0559 66.6581 83.8692 66.7141 83.8505 66.8635C83.8505 66.8821 83.8505 66.8821 83.8505 66.9008C83.7759 67.2555 84.3172 67.4048 84.3919 67.0501C84.3919 67.0315 84.3919 67.0315 84.3919 67.0128C84.2799 67.0688 84.1679 67.1435 84.0559 67.1995C84.0745 67.1995 84.0932 67.1995 84.1119 67.2181C84.0559 67.1061 83.9812 66.9941 83.9252 66.8821C83.8692 67.0688 82.8239 67.4981 82.5999 67.6288C82.0399 67.9275 81.4612 68.1702 80.8639 68.4128C79.9866 68.7675 79.1279 69.1035 78.3066 69.5515C78.4373 69.6822 78.5679 69.8129 78.6986 69.9435C79.1653 69.1968 79.6132 68.4502 80.0799 67.7221C80.2106 67.4048 79.7252 67.1248 79.5386 67.4235Z" fill="#E8E8E8"/>
<path d="M80.155 64.1949C80.1363 64.1575 80.1363 64.0829 80.1923 64.0829C80.3417 64.0829 80.1737 64.2695 80.155 64.2882C80.0617 64.3442 79.7444 64.4189 79.763 64.2322C79.7817 64.0082 80.211 63.7655 80.2857 64.1015C80.3043 64.1949 80.2297 64.3069 80.1363 64.3255C80.0803 64.3442 80.043 64.3442 80.0057 64.3069C79.987 64.2882 79.9497 64.2695 79.987 64.2695C80.3417 64.2882 80.3417 63.7282 79.987 63.7095C79.6137 63.6722 79.3337 64.0642 79.427 64.4189C79.5204 64.7735 79.931 64.9602 80.267 64.8669C80.603 64.7735 80.8643 64.4749 80.8643 64.1202C80.8643 63.7655 80.5843 63.4669 80.267 63.3922C79.5764 63.2242 78.8484 64.2322 79.4457 64.7362C79.931 65.1469 80.9017 64.7735 80.8457 64.0829C80.8083 63.7095 80.3977 63.4109 80.0243 63.5415C79.651 63.6722 79.5017 64.1389 79.6884 64.4749C79.8377 64.7922 80.323 64.5122 80.155 64.1949Z" fill="#E8E8E8"/>
<path d="M84.2804 63.6913C84.2617 63.5793 84.2057 63.43 84.3177 63.3367C84.3737 63.2807 84.467 63.2807 84.5417 63.2807C84.7284 63.318 84.691 63.5233 84.5604 63.6167C84.4857 63.6727 84.411 63.6727 84.3551 63.598C84.2991 63.5233 84.3177 63.5047 84.3737 63.4673C84.4111 63.4487 84.2991 63.4673 84.3924 63.4487C84.6164 63.4113 84.2431 63.6727 84.2991 63.486C84.1871 63.8407 84.7284 63.9714 84.8404 63.6353C84.9337 63.2993 84.6164 62.9633 84.2804 63.0193C83.8884 63.094 83.7951 63.5607 84.0377 63.8407C84.2617 64.102 84.6724 64.046 84.8404 63.7473C85.0084 63.4487 84.8964 63.0567 84.5604 62.9447C84.2244 62.8327 83.8511 63.038 83.7764 63.374C83.6831 63.7473 83.9444 64.1207 84.3177 64.214C84.9897 64.3634 85.5497 63.4487 85.0644 62.9447C84.8217 62.702 84.4297 62.6833 84.1311 62.814C83.7204 63.0193 83.7017 63.4487 83.7764 63.8407C83.7951 64.1954 84.3364 64.046 84.2804 63.6913Z" fill="#E8E8E8"/>
<path d="M88.4244 62.4408C88.4991 62.4408 88.5738 62.4594 88.6671 62.4594V62.4408C88.6858 62.4221 88.6858 62.3848 88.7044 62.3661C88.7231 62.3288 88.7791 62.2914 88.8164 62.2728C88.9098 62.2354 89.0031 62.2354 89.0591 62.3288C89.1338 62.4781 89.0031 62.7581 88.8164 62.6461C88.7044 62.5714 88.6858 62.3848 88.8538 62.4221C88.8911 62.4221 88.9098 62.4408 88.9284 62.4594C88.9284 62.4594 88.9284 62.4968 88.9284 62.4594C88.9284 62.4221 88.9284 62.4781 88.9098 62.4781C88.8538 62.5154 88.8351 62.5528 88.7791 62.5154C88.6484 62.4221 88.4618 62.4968 88.3871 62.6088C88.3124 62.7581 88.3684 62.9074 88.4804 63.0008C89.0218 63.3927 89.7498 62.6088 89.3204 62.0861C88.9284 61.6195 88.0884 61.9181 88.1258 62.5341C88.1444 62.8514 88.3871 63.1314 88.6858 63.2061C88.9844 63.2807 89.3018 63.1314 89.4698 62.8701C89.8431 62.2914 89.3204 61.4888 88.6298 61.7128C88.3124 61.8248 88.0324 62.1421 88.0698 62.4968C88.1071 62.8888 88.6671 63.0941 88.8724 62.7021C89.0591 62.4034 88.5924 62.1234 88.4244 62.4408Z" fill="#E8E8E8"/>
<path d="M99.6989 46.1635C101.995 44.8942 103.992 43.2142 105.654 41.1795C105.878 40.8995 105.486 40.5075 105.262 40.7875C103.638 42.7848 101.678 44.4275 99.4189 45.6781C99.1016 45.8461 99.3816 46.3315 99.6989 46.1635Z" fill="#E8E8E8"/>
<path d="M127.625 46.6484C127.214 49.0003 127.046 51.371 127.158 53.7603C127.177 54.115 127.737 54.115 127.718 53.7603C127.606 51.427 127.755 49.0937 128.166 46.7977C128.222 46.443 127.681 46.2937 127.625 46.6484Z" fill="#E8E8E8"/>
<path d="M124.768 101.211C124.768 98.3554 126.112 95.6488 128.408 93.9314C128.688 93.7261 128.408 93.2408 128.128 93.4461C125.664 95.2754 124.227 98.1314 124.227 101.211C124.208 101.566 124.768 101.566 124.768 101.211Z" fill="#E8E8E8"/>
<path d="M156.035 176.588C156.333 179.276 156.8 182.225 157.547 185.417C158.555 189.729 159.843 193.5 161.131 196.673C160.776 196.99 159.712 197.83 158.144 197.942C157.155 198.017 156.371 197.774 155.923 197.606C155.251 195.273 154.597 192.846 154 190.326C152.768 185.137 151.872 180.19 151.219 175.58C152.843 175.916 154.448 176.252 156.035 176.588Z" fill="#191919"/>
<path d="M197.942 174.832C197.699 177.501 197.288 180.469 196.598 183.661C195.627 188.179 194.339 192.099 193.032 195.403C193.219 195.571 194.283 196.579 195.926 196.504C197.344 196.448 198.259 195.608 198.483 195.403C198.912 193.144 199.323 190.867 199.734 188.589C200.63 183.605 201.432 178.696 202.198 173.843C200.779 174.16 199.36 174.496 197.942 174.832Z" fill="#191919"/>
<path d="M164.565 167.385C164.994 170.241 165.498 173.19 166.077 176.214C166.917 180.601 167.869 184.782 168.877 188.74C168.448 189.001 167.589 189.43 166.413 189.505C165.424 189.561 164.64 189.337 164.192 189.169C163.632 186.518 163.09 183.83 162.549 181.142C161.56 176.158 160.645 171.249 159.768 166.396C161.373 166.713 162.96 167.049 164.565 167.385Z" fill="#191919"/>
<path d="M190.904 166.825C190.401 169.644 189.953 172.593 189.561 175.655C189.019 179.873 188.646 183.905 188.422 187.751C188.739 187.956 189.486 188.385 190.55 188.441C191.688 188.479 192.528 188.031 192.846 187.844C192.659 185.641 192.584 183.196 192.696 180.583C192.92 174.777 193.984 169.775 195.16 165.836C193.742 166.153 192.323 166.489 190.904 166.825Z" fill="#191919"/>
<path d="M224.075 104.365C227.341 110.189 224.821 116.629 218.699 132.627C215.749 140.317 210.355 154.448 202.739 174.589C195.253 177.315 182.859 180.675 167.533 179.611C158.629 178.995 151.163 177.072 145.507 175.093C144.667 173.581 141.755 167.925 143.939 162.437C145.152 159.395 147.597 157.211 152.787 154.635C157.901 152.096 166.917 148.531 180.021 147.877C174.888 122.323 183.68 101.379 197.363 96.5441C206.341 93.3895 219.576 96.3575 224.075 104.365Z" fill="white" stroke="#191919" stroke-width="2" stroke-miterlimit="10"/>
<path d="M222.879 106.476C217.466 113.327 216.234 122.529 214.162 130.761C211.941 139.572 209.383 148.364 205.557 156.633C203.448 161.169 200.965 165.537 197.997 169.569C197.792 169.868 198.277 170.148 198.482 169.849C203.69 162.756 207.368 154.711 210.205 146.423C213.079 137.985 214.983 129.287 217.223 120.681C218.493 115.791 220.117 110.9 223.29 106.887C223.495 106.588 223.103 106.196 222.879 106.476Z" fill="#191919"/>
<path d="M145.619 171.042C158.07 175.616 171.64 176.96 184.744 174.925C188.496 174.347 192.211 173.488 195.851 172.368C196.187 172.256 196.056 171.715 195.702 171.827C183.008 175.747 169.382 176.344 156.39 173.581C152.787 172.816 149.222 171.771 145.768 170.501C145.432 170.37 145.283 170.912 145.619 171.042Z" fill="#191919"/>
<path d="M189.448 156.37C192.584 157.397 195.253 159.469 197.045 162.269C197.232 162.568 197.717 162.288 197.531 161.989C195.664 159.077 192.883 156.912 189.597 155.829C189.243 155.717 189.093 156.258 189.448 156.37Z" fill="#191919"/>
<path d="M133.298 180.544C134.791 182.784 136.285 185.043 137.759 187.283C128.202 195.87 126.97 198.315 127.679 198.912C129.098 200.088 139.271 194.862 140.317 194.32C144.106 192.379 146.962 190.494 148.866 189.15C148.194 187.32 147.298 185.267 146.066 183.102C144.442 180.246 142.65 177.838 140.951 175.878C138.394 177.408 135.837 178.976 133.298 180.544Z" fill="#191919"/>
<path d="M189.149 136.547C189.821 138.003 190.53 140.075 190.642 142.576C190.81 146.347 189.578 149.352 188.645 151.088C188.141 151.742 187.245 152.824 185.92 154C185.92 154 182.914 156.651 178.136 158.686C173.264 160.776 159.096 163.296 139.851 163.782C140.411 166.171 141.419 169.102 143.211 172.256C144.2 173.992 145.282 175.523 146.346 176.848C145.637 177.782 143.621 180.152 139.608 181.646C135.744 183.083 132.197 182.915 130.797 182.803C128.781 180.955 126.709 178.752 124.787 176.12C119.131 168.336 117.805 160.814 117.562 155.979C118.962 154.971 121.016 153.59 123.704 152.115C129.304 149.035 134.437 147.355 138.656 146.104C145.917 143.976 152.861 142.502 168.84 139.795C173.842 138.955 180.768 137.798 189.149 136.547Z" fill="white" stroke="#191919" stroke-width="2" stroke-miterlimit="10"/>
<path opacity="0.19" d="M171.416 139.757C170.875 143.323 169.344 147.952 164.603 150.827C159.992 153.627 156.128 152.488 146.888 154.728C140.243 156.333 131.451 158.461 129.006 163.184C126.448 168.149 131.283 175.149 139.739 180.899C140.448 180.805 141.344 180.619 142.296 180.245C144.742 179.275 145.936 177.688 146.384 176.997C145.302 175.691 144.182 174.179 143.155 172.443C141.214 169.195 140.168 166.171 139.571 163.725C149.464 163.315 157.771 162.456 164.08 161.635C171.678 160.645 176.942 159.656 181.963 156.819C186.163 154.448 187.843 152.115 188.44 151.219C190.251 148.475 190.4 145.973 190.475 144.573C190.662 141.157 189.542 138.376 188.608 136.621C182.878 137.667 177.147 138.712 171.416 139.757Z" fill="#6C6D6D"/>
<path opacity="0.19" d="M188.795 137.014C188.421 140.486 187.096 145.974 181.813 150.304C178.565 152.974 175.075 154.168 161.373 157.864C155.325 159.488 148.008 161.411 139.683 163.502C150.267 163.39 158.872 162.512 165.051 161.672C171.453 160.795 174.589 160.03 177.837 158.63C180.917 157.304 187.133 154.616 189.672 148.96C192.117 143.472 189.653 138.544 188.795 137.014Z" fill="#6C6D6D"/>
<path opacity="0.22" d="M139.739 163.781C139.664 166.245 139.776 169.064 140.243 172.162C140.691 175.224 141.419 177.968 142.203 180.357C142.838 179.984 143.566 179.48 144.275 178.864C145.134 178.117 145.768 177.408 146.235 176.792C145.152 175.373 144.051 173.73 143.024 171.882C141.363 168.896 140.374 166.133 139.739 163.781Z" fill="#6C6D6D"/>
<path d="M138.881 191.259C140.318 194.077 141.737 196.896 143.174 199.733C133.99 210.523 132.796 213.584 133.486 214.331C134.849 215.824 144.63 209.235 145.638 208.563C149.278 206.117 152.041 203.747 153.87 202.067C153.217 199.771 152.358 197.195 151.164 194.451C149.614 190.867 147.878 187.843 146.254 185.36C143.79 187.339 141.326 189.299 138.881 191.259Z" fill="#191919"/>
<path d="M192.566 135.968C193.219 137.816 193.891 140.392 194.003 143.546C194.171 148.288 192.977 152.058 192.081 154.242C191.595 155.064 190.737 156.426 189.467 157.92C189.467 157.92 186.593 161.261 182.001 163.818C177.315 166.432 163.689 169.624 145.209 170.221C145.75 173.226 146.702 176.904 148.438 180.861C149.39 183.045 150.435 184.968 151.462 186.629C150.79 187.805 148.849 190.773 144.985 192.658C141.27 194.469 137.873 194.264 136.51 194.096C134.569 191.781 132.571 189 130.742 185.696C125.291 175.914 124.022 166.45 123.798 160.384C125.142 159.133 127.121 157.378 129.697 155.53C135.091 151.666 140.001 149.538 144.07 147.97C151.033 145.301 157.734 143.453 173.097 140.037C177.838 138.973 184.521 137.536 192.566 135.968Z" fill="white" stroke="#191919" stroke-width="2" stroke-miterlimit="10"/>
<path opacity="0.19" d="M175.523 140C175.001 144.48 173.526 150.286 168.971 153.907C164.547 157.435 160.814 155.998 151.947 158.816C145.563 160.832 137.107 163.52 134.755 169.456C132.291 175.691 136.939 184.502 145.059 191.707C145.75 191.595 146.609 191.352 147.523 190.886C149.875 189.672 151.014 187.675 151.443 186.798C150.398 185.155 149.315 183.251 148.326 181.067C146.459 176.979 145.451 173.19 144.891 170.11C154.411 169.587 162.382 168.523 168.467 167.496C175.785 166.264 180.825 165.014 185.659 161.448C189.691 158.462 191.315 155.531 191.875 154.411C193.611 150.958 193.761 147.822 193.835 146.067C194.003 141.774 192.939 138.283 192.043 136.08C186.537 137.368 181.03 138.675 175.523 140Z" fill="#6C6D6D"/>
<path opacity="0.19" d="M192.212 136.547C191.857 140.896 190.588 147.803 185.51 153.254C182.374 156.614 179.033 158.107 165.873 162.755C160.049 164.808 153.03 167.216 145.022 169.848C155.196 169.699 163.484 168.616 169.42 167.552C175.58 166.451 178.604 165.499 181.702 163.744C184.67 162.064 190.625 158.704 193.089 151.574C195.422 144.667 193.052 138.488 192.212 136.547Z" fill="#6C6D6D"/>
<path opacity="0.22" d="M145.078 170.202C145.003 173.3 145.115 176.847 145.563 180.73C146.011 184.594 146.683 188.028 147.449 191.015C148.065 190.53 148.755 189.914 149.446 189.13C150.267 188.196 150.883 187.3 151.331 186.535C150.286 184.743 149.222 182.69 148.251 180.356C146.646 176.623 145.675 173.132 145.078 170.202Z" fill="#6C6D6D"/>
<path d="M137.816 106.96C137.462 106.792 136.752 106.475 136.771 106.12C136.808 105.542 138.731 105.15 140.168 105.168C141.139 105.168 142.931 105.374 145.021 106.83C143.061 107.446 140.168 108.006 137.816 106.96Z" fill="white" stroke="#191919" stroke-width="2" stroke-miterlimit="10"/>
<path d="M182.71 82.7497C179.163 82.283 175.971 87.603 175.672 88.0883C174.59 89.9363 174.459 91.1683 173.712 94.547C171.902 102.779 170.931 106.96 168.243 109.48C165.816 111.739 162.979 112.28 162.232 112.392C159.04 112.896 156.147 111.702 150.51 109.294C145.75 107.259 145.171 106.512 142.576 106.214C141.251 106.064 137.387 105.635 134.83 108.118C133.187 109.704 132.459 112.243 133.056 112.766C133.822 113.438 136.958 111.067 136.995 111.123C137.014 111.16 136.062 111.608 135.278 112.579C134.886 113.046 134.214 114.054 134.456 114.315C134.886 114.838 137.518 111.664 140.411 112.224C142.39 112.598 142.763 114.39 145.059 114.726C146.403 114.931 147.579 114.52 148.326 114.166C149.632 115.584 151.76 117.6 154.84 119.243C156.67 120.214 163.128 123.555 171.025 121.614C179.406 119.56 183.624 113.008 184.95 110.955C185.696 109.779 191.184 101.006 188.534 91.1683C188.067 89.5817 186.368 83.235 182.71 82.7497Z" fill="white" stroke="#191919" stroke-width="2" stroke-miterlimit="10"/>
<path opacity="0.25" d="M182.336 82.8056C181.123 83.4402 183.475 87.8456 183.176 94.1549C182.896 100.222 180.302 104.702 179.144 106.755C177.576 109.499 175.504 113.083 171.379 115.416C165.835 118.552 158.966 118.086 154.075 115.958C152.619 115.323 151.144 113.27 147.934 112.019C146.534 111.478 145.432 111.254 144.144 110.992C140.99 110.376 138.19 109.816 135.595 111.123C134.363 111.758 133.336 112.728 133.411 112.859C133.486 112.99 134.923 112.262 136.192 111.571C134.662 113.606 134.419 114.184 134.531 114.296C134.662 114.408 135.128 113.979 136.323 113.307C137.611 112.598 138.544 112.094 139.683 112.187C140.262 112.243 140.71 112.43 140.971 112.542C141.998 112.99 142.24 113.512 143.267 114.035C143.902 114.352 144.424 114.483 144.704 114.539C145.302 114.67 146.534 114.838 148.158 114.259C149.576 115.752 156.091 122.36 165.63 122.23C170.539 122.155 174.142 120.326 175.56 119.598C183.344 115.547 186.443 108.36 187.227 106.382C189.654 100.259 190.512 91.1869 186.07 85.4936C185.006 84.1122 183.176 82.3762 182.336 82.8056Z" fill="#6C6D6D"/>
<path d="M133.392 112.765C134.12 111.682 135.072 110.823 136.211 110.207C136.454 110.077 136.23 109.722 136.006 109.853C134.811 110.506 133.803 111.421 133.038 112.559C132.87 112.783 133.243 112.989 133.392 112.765Z" fill="#191919"/>
<path d="M133.617 110.358C134.345 109.219 135.521 108.622 136.697 108.043C136.939 107.931 136.734 107.558 136.491 107.689C135.241 108.286 134.009 108.939 133.243 110.153C133.113 110.377 133.467 110.582 133.617 110.358Z" fill="#191919"/>
<path opacity="0.29" d="M187.693 89.5256C187.413 91.411 186.909 94.1363 186.013 97.347C184.259 103.694 182.672 109.406 178.528 113.942C173.395 119.542 166.432 121.072 162.438 121.539C165.405 122.23 167.739 122.099 169.213 121.894C180.413 120.326 186.461 108.286 188.104 103.022C188.384 102.088 188.981 100.166 189.056 97.5336C189.187 94.0243 188.328 91.2056 187.693 89.5256Z" fill="#6C6D6D"/>
<path opacity="0.26" d="M140.784 112C141.848 112.523 143.304 113.101 145.096 113.437C146.515 113.699 147.784 113.755 148.792 113.717C146.235 115.08 144.91 114.912 144.163 114.464C143.696 114.184 143.174 113.624 141.736 112.635C141.344 112.355 141.008 112.131 140.784 112Z" fill="#6C6D6D"/>
<path d="M103.04 142.689C103.04 151.649 103.04 160.627 103.04 169.587C103.04 170.67 104.72 170.67 104.72 169.587C104.72 160.627 104.72 151.649 104.72 142.689C104.72 141.625 103.04 141.606 103.04 142.689Z" fill="#161616"/>
<path d="M133.578 142.334C133.578 143.772 133.578 145.209 133.578 146.646C133.578 147.729 135.258 147.729 135.258 146.646C135.258 145.209 135.258 143.772 135.258 142.334C135.258 141.252 133.578 141.252 133.578 142.334Z" fill="#161616"/>
<path d="M79.8555 141.587C88.9088 133.056 97.9621 124.507 107.034 115.976C121.687 116.237 136.322 116.499 150.975 116.76C148.586 125.048 146.197 133.317 143.807 141.605C122.49 141.587 101.173 141.587 79.8555 141.587Z" fill="white" stroke="#191919" stroke-width="2" stroke-miterlimit="10"/>
<path d="M80.397 142.557C96.7676 142.557 113.12 142.557 129.49 142.557C134.082 142.557 138.656 142.557 143.248 142.557C144.33 142.557 144.33 140.877 143.248 140.877C126.877 140.877 110.525 140.877 94.1543 140.877C89.5623 140.877 84.989 140.877 80.397 140.877C79.3143 140.877 79.3143 142.557 80.397 142.557Z" fill="#161616"/>
<path d="M85.1943 142.278C85.1943 160.851 85.1943 179.424 85.1943 197.979C85.1943 203.187 85.1943 208.376 85.1943 213.584C85.1943 214.667 86.8743 214.667 86.8743 213.584C86.8743 195.011 86.8743 176.438 86.8743 157.883C86.8743 152.675 86.8743 147.486 86.8743 142.278C86.8743 141.195 85.1943 141.195 85.1943 142.278Z" fill="#161616"/>
<path d="M136.397 142.278C136.397 160.851 136.397 179.424 136.397 197.979C136.397 203.187 136.397 208.376 136.397 213.584C136.397 214.667 138.077 214.667 138.077 213.584C138.077 195.011 138.077 176.438 138.077 157.883C138.077 152.675 138.077 147.486 138.077 142.278C138.077 141.195 136.397 141.195 136.397 142.278Z" fill="#161616"/>
<path d="M86.0347 176.942C99.2133 176.942 112.392 176.942 125.571 176.942C129.304 176.942 133.037 176.942 136.771 176.942C137.853 176.942 137.853 175.262 136.771 175.262C123.592 175.262 110.413 175.262 97.2347 175.262C93.5013 175.262 89.768 175.262 86.0347 175.262C84.952 175.262 84.952 176.942 86.0347 176.942Z" fill="#161616"/>
<path d="M150.751 116.761C148.623 125.067 146.178 133.299 143.378 141.401C143.135 142.091 144.218 142.371 144.461 141.699C147.261 133.579 149.706 125.366 151.834 117.059C152.002 116.369 150.938 116.07 150.751 116.761Z" fill="#161616"/>
<path d="M61.3755 215.413C71.2875 215.413 81.1808 215.413 91.0928 215.413C92.1755 215.413 92.1755 213.733 91.0928 213.733C81.1808 213.733 71.2875 213.733 61.3755 213.733C60.2928 213.733 60.2928 215.413 61.3755 215.413Z" fill="#161616"/>
<path d="M95.2554 215.04C97.5327 215.04 99.8287 215.04 102.106 215.04C103.189 215.04 103.189 213.36 102.106 213.36C99.8287 213.36 97.5327 213.36 95.2554 213.36C94.1727 213.36 94.1727 215.04 95.2554 215.04Z" fill="#161616"/>
<path d="M124.973 215.283C133.896 215.283 142.819 215.283 151.76 215.283C152.843 215.283 152.843 213.603 151.76 213.603C142.837 213.603 133.914 213.603 124.973 213.603C123.89 213.603 123.89 215.283 124.973 215.283Z" fill="#161616"/>
<path d="M157.864 214.686C159.45 214.686 161.037 214.686 162.642 214.686C163.725 214.686 163.725 213.006 162.642 213.006C161.056 213.006 159.469 213.006 157.864 213.006C156.781 213.006 156.781 214.686 157.864 214.686Z" fill="#161616"/>
<path d="M52.3784 209.496C56.2424 209.496 60.1064 209.496 63.9517 209.496C65.0344 209.496 65.0344 207.816 63.9517 207.816C60.0877 207.816 56.2237 207.816 52.3784 207.816C51.2957 207.816 51.2957 209.496 52.3784 209.496Z" fill="#161616"/>
<path d="M134.027 138.057C122.509 137.758 110.973 137.478 99.4561 137.179C106.288 130.646 113.101 124.094 119.933 117.561C127.811 117.971 135.707 118.382 143.584 118.793C140.392 125.233 137.219 131.635 134.027 138.057Z" fill="white" stroke="#191919" stroke-width="2" stroke-miterlimit="10"/>
<path d="M119.541 117.431C112.84 123.908 106.138 130.404 99.4371 136.882C99.1385 126.503 98.8211 116.106 98.5225 105.727C105.317 101.434 112.112 97.1403 118.906 92.8469C119.093 101.042 119.317 109.236 119.541 117.431Z" fill="white" stroke="#191919" stroke-width="2" stroke-miterlimit="10"/>
<path d="M99.1386 106.716C99.6799 115.956 100.035 125.215 100.221 134.473C100.221 134.66 100.501 134.66 100.501 134.473C100.315 125.215 99.96 115.956 99.4186 106.716C99.3999 106.548 99.1199 106.548 99.1386 106.716Z" fill="#191919"/>
<path d="M99.288 106.753C105.541 102.684 111.795 98.6147 118.048 94.5454C118.197 94.4521 118.067 94.2094 117.899 94.3027C111.645 98.372 105.392 102.441 99.1386 106.511C98.9893 106.623 99.12 106.865 99.288 106.753Z" fill="#191919"/>
<path d="M117.973 94.5264C117.954 101.974 118.178 109.441 118.663 116.87C118.682 117.057 118.962 117.057 118.943 116.87C118.477 109.422 118.234 101.974 118.253 94.5264C118.253 94.3584 117.973 94.3584 117.973 94.5264Z" fill="#191919"/>
<path d="M100.408 134.865C106.53 128.947 112.672 123.03 118.794 117.131C118.925 117.001 118.72 116.814 118.589 116.926C112.466 122.843 106.325 128.761 100.202 134.659C100.09 134.79 100.277 134.995 100.408 134.865Z" fill="#191919"/>
<path d="M128.763 131.692C129.901 129.882 131.04 128.052 132.141 126.204C132.235 126.055 131.992 125.906 131.899 126.055C130.797 127.903 129.659 129.732 128.52 131.543C128.408 131.692 128.651 131.842 128.763 131.692Z" fill="#191919"/>
<path d="M132.067 126.149C133.541 126.205 135.016 126.205 136.491 126.13C136.677 126.13 136.677 125.85 136.491 125.85C135.016 125.906 133.541 125.906 132.067 125.869C131.88 125.869 131.88 126.149 132.067 126.149Z" fill="#191919"/>
<path d="M136.304 126.056C135.464 127.885 134.605 129.714 133.747 131.544C133.672 131.712 133.915 131.842 133.989 131.693C134.848 129.864 135.706 128.034 136.546 126.205C136.621 126.018 136.378 125.888 136.304 126.056Z" fill="#191919"/>
<path d="M128.669 131.842C130.311 132.084 132.047 131.972 133.709 131.898C133.895 131.898 133.895 131.618 133.709 131.618C132.085 131.692 130.367 131.804 128.743 131.58C128.557 131.543 128.482 131.823 128.669 131.842Z" fill="#191919"/>
<path d="M134.792 126.073C134.046 127.94 133.187 129.75 132.216 131.505C132.123 131.654 132.366 131.804 132.459 131.654C133.43 129.862 134.307 128.033 135.072 126.148C135.128 125.98 134.867 125.905 134.792 126.073Z" fill="#191919"/>
<path d="M107.744 134.53C111.85 129.453 116.106 124.487 120.493 119.634C120.605 119.503 120.418 119.298 120.288 119.429C115.901 124.263 111.645 129.229 107.538 134.325C107.426 134.474 107.632 134.661 107.744 134.53Z" fill="#191919"/>
<path d="M112.709 134.848C116.386 129.714 120.269 124.749 124.338 119.933C124.45 119.802 124.264 119.597 124.133 119.728C120.045 124.562 116.162 129.546 112.466 134.698C112.354 134.848 112.597 134.997 112.709 134.848Z" fill="#191919"/>
<path d="M118.048 135.612C121.24 130.274 124.731 125.122 128.501 120.175C128.613 120.026 128.371 119.895 128.259 120.026C124.488 124.972 120.997 130.124 117.805 135.463C117.712 135.612 117.955 135.762 118.048 135.612Z" fill="#191919"/>
<path d="M122.527 136.079C125.663 130.237 129.378 124.73 133.634 119.653C133.746 119.522 133.559 119.317 133.429 119.447C129.154 124.543 125.421 130.069 122.266 135.93C122.191 136.098 122.434 136.247 122.527 136.079Z" fill="#191919"/>
<path d="M110.133 131.505C114.911 131.001 119.69 131.598 124.45 132.233C124.637 132.252 124.618 131.972 124.45 131.953C119.709 131.318 114.93 130.702 110.133 131.225C109.965 131.243 109.965 131.523 110.133 131.505Z" fill="#191919"/>
<path d="M112.541 128.781C117.058 128.613 121.576 128.949 126.018 129.808C126.186 129.845 126.261 129.565 126.093 129.546C121.632 128.688 117.077 128.352 112.541 128.52C112.373 128.501 112.373 128.781 112.541 128.781Z" fill="#191919"/>
<path d="M114.706 126.148C119.056 125.868 123.405 126.26 127.642 127.305C127.81 127.342 127.885 127.081 127.717 127.043C123.461 125.98 119.093 125.588 114.706 125.868C114.52 125.886 114.52 126.166 114.706 126.148Z" fill="#191919"/>
<path d="M116.946 123.516C121.128 123.534 125.272 123.964 129.36 124.804C129.528 124.841 129.602 124.561 129.434 124.542C125.328 123.702 121.146 123.273 116.946 123.254C116.778 123.236 116.778 123.516 116.946 123.516Z" fill="#191919"/>
<path d="M119.167 121.071C123.143 121.146 127.101 121.613 130.965 122.49C131.133 122.527 131.207 122.266 131.039 122.229C127.138 121.351 123.162 120.866 119.167 120.81C118.981 120.791 118.981 121.071 119.167 121.071Z" fill="#191919"/>
<path d="M131.973 123.908C130.143 126.596 128.333 129.284 126.503 131.972C126.41 132.121 126.653 132.27 126.746 132.121C128.575 129.433 130.386 126.745 132.215 124.057C132.327 123.889 132.085 123.758 131.973 123.908Z" fill="#191919"/>
<path d="M101.061 119.839C103.395 118.849 105.915 119.409 108.379 119.372C110.451 119.353 112.429 118.775 114.203 117.729C114.352 117.636 114.221 117.393 114.053 117.487C111.869 118.775 109.555 119.185 107.053 119.073C104.963 118.98 102.891 118.775 100.912 119.615C100.763 119.671 100.893 119.913 101.061 119.839Z" fill="#191919"/>
<path d="M107.351 118.681C111.346 116.423 113.194 111.663 117.357 109.665C117.525 109.591 117.375 109.348 117.207 109.423C113.026 111.439 111.197 116.18 107.202 118.439C107.053 118.532 107.183 118.775 107.351 118.681Z" fill="#191919"/>
<path d="M112.429 105.372C111.738 104.831 111.85 103.954 112.242 103.263C112.429 102.927 112.709 102.572 113.026 102.367C113.605 101.994 114.146 102.292 114.594 102.684C114.725 102.796 114.93 102.61 114.8 102.479C113.866 101.695 112.989 101.77 112.224 102.778C111.608 103.599 111.29 104.831 112.224 105.578C112.373 105.69 112.578 105.484 112.429 105.372Z" fill="#191919"/>
<path d="M169.922 91.7289C164.808 97.4036 163.426 103.638 162.68 107.166C161.317 113.7 162.754 116.313 162.848 128.726C162.885 134.009 162.661 138.284 162.493 140.972C163.65 141.868 170.818 147.206 180.394 145.452C187.488 144.164 191.762 139.721 193.106 138.209C193.424 136.436 193.872 133.822 194.394 130.649C197.157 113.532 198.52 104.852 196.802 98.6356C195.776 94.8649 193.237 88.8916 186.031 82.7129C183.007 83.3476 175.746 85.2889 169.922 91.7289Z" fill="#EC615B"/>
<path opacity="0.19" d="M175.13 88.2942C176.903 93.5955 177.855 98.1315 178.415 101.454C179.89 110.246 182.111 123.425 175.858 136.193C173.861 140.262 171.527 143.249 169.885 145.097C172.05 145.601 176.343 146.291 181.458 144.966C187.543 143.398 191.351 139.87 192.919 138.265C194.133 131.321 195.103 125.366 195.85 120.718C197.138 112.542 197.437 110.059 197.306 106.569C197.157 102.089 196.951 97.3848 194.263 92.3075C191.687 87.4542 188.066 84.5422 185.845 83.0488C184.034 83.3662 181.477 84.0382 178.77 85.6062C177.277 86.5022 176.063 87.4542 175.13 88.2942Z" fill="#6C6D6D"/>
<path opacity="0.18" d="M196.336 97.1992C196 97.2179 196.709 102.389 195.608 109.519C193.573 122.717 187.04 131.863 184.52 135.111C182.41 137.818 179.106 141.551 174.271 145.229C176.007 145.49 178.322 145.602 180.973 145.098C187.264 143.922 191.258 140.058 192.789 138.397C193.181 136.119 193.816 132.554 194.618 128.149C196.504 117.845 196.877 116.613 197.176 113.402C197.997 104.647 196.728 97.1992 196.336 97.1992Z" fill="#6C6D6D"/>
<path d="M137.032 111.066C136.677 110.823 135.968 110.375 136.043 110.002C136.192 109.405 138.339 109.311 139.888 109.573C140.933 109.741 142.837 110.282 144.835 112.167C142.595 112.485 139.365 112.578 137.032 111.066Z" fill="white" stroke="#191919" stroke-width="2" stroke-miterlimit="10"/>
<path d="M189.728 93.1835C185.976 92.0822 181.59 97.1409 181.198 97.6262C179.704 99.3995 179.35 100.669 177.95 104.104C174.552 112.504 172.779 116.741 169.419 118.944C166.414 120.922 163.259 120.997 162.419 120.997C158.891 120.978 155.979 119.224 150.304 115.714C145.526 112.746 145.04 111.85 142.278 111.104C140.878 110.73 136.771 109.61 133.579 111.794C131.544 113.176 130.294 115.752 130.854 116.405C131.563 117.245 135.371 115.266 135.39 115.341C135.408 115.378 134.288 115.696 133.28 116.592C132.776 117.021 131.88 117.954 132.086 118.29C132.459 118.925 135.856 116.013 138.88 117.096C140.934 117.824 141.046 119.784 143.454 120.549C144.872 120.997 146.216 120.754 147.075 120.512C148.232 122.248 150.192 124.73 153.216 126.989C155.027 128.333 161.411 132.962 170.278 132.272C179.686 131.544 185.398 125.328 187.171 123.405C188.198 122.304 195.646 113.96 194.507 103.096C194.339 101.322 193.611 94.3409 189.728 93.1835Z" fill="white" stroke="#191919" stroke-width="2" stroke-miterlimit="10"/>
<path opacity="0.25" d="M189.318 93.1843C187.899 93.651 189.672 98.7096 188.235 105.336C186.872 111.702 183.288 115.995 181.664 117.955C179.48 120.587 176.624 124.022 171.752 125.776C165.219 128.128 157.883 126.467 152.974 123.387C151.518 122.454 150.286 120.046 147.019 118.16C145.6 117.339 144.462 116.928 143.099 116.424C139.814 115.23 136.864 114.147 133.859 115.099C132.421 115.547 131.134 116.406 131.208 116.555C131.283 116.723 132.944 116.182 134.438 115.678C132.44 117.563 132.067 118.142 132.16 118.291C132.272 118.44 132.869 118.048 134.27 117.563C135.8 117.022 136.864 116.667 138.096 116.966C138.712 117.115 139.16 117.395 139.44 117.563C140.467 118.198 140.635 118.814 141.643 119.542C142.259 119.99 142.819 120.214 143.118 120.326C143.734 120.568 145.04 120.96 146.888 120.624C148.158 122.454 154.038 130.555 164.36 132.048C169.68 132.814 173.88 131.507 175.542 130.966C184.651 128.016 189.262 120.96 190.456 119C194.152 112.952 196.672 103.507 192.864 96.7123C191.968 95.0136 190.288 92.867 189.318 93.1843Z" fill="#6C6D6D"/>
<path d="M131.19 116.461C132.179 115.434 133.337 114.687 134.681 114.239C134.942 114.146 134.83 113.754 134.569 113.829C133.169 114.314 131.918 115.098 130.891 116.162C130.704 116.367 131.003 116.666 131.19 116.461Z" fill="#191919"/>
<path d="M131.862 113.959C132.851 112.858 134.233 112.429 135.614 112.037C135.875 111.962 135.763 111.551 135.502 111.626C134.065 112.055 132.609 112.522 131.582 113.661C131.377 113.866 131.675 114.146 131.862 113.959Z" fill="#191919"/>
<path opacity="0.29" d="M193.929 101.21C193.294 103.152 192.267 105.952 190.755 109.2C187.75 115.602 185.043 121.37 179.761 125.458C173.246 130.498 165.443 130.928 161.057 130.722C164.137 131.973 166.694 132.234 168.318 132.272C180.675 132.533 189.337 120.829 192.025 115.565C192.491 114.632 193.462 112.69 194.022 109.928C194.75 106.213 194.321 103.096 193.929 101.21Z" fill="#6C6D6D"/>
<path opacity="0.26" d="M139.328 116.909C140.373 117.637 141.848 118.496 143.733 119.168C145.227 119.691 146.589 119.952 147.672 120.083C144.667 121.072 143.267 120.68 142.539 120.083C142.091 119.709 141.624 119.019 140.224 117.731C139.869 117.376 139.552 117.096 139.328 116.909Z" fill="#6C6D6D"/>
<path d="M160.795 55.5332C160.59 56.7278 160.384 57.9225 160.216 59.1732C159.488 64.2505 159.19 69.0478 159.171 73.5091C160.198 73.3971 161.206 73.2852 162.232 73.1918C162.12 74.1812 161.803 77.8025 164.118 81.3865C166.302 84.7651 169.438 85.9971 170.408 86.3331C170.296 88.1625 170.203 89.9731 170.091 91.8025C172.107 90.0105 174.851 87.9011 178.342 86.0158C181.011 84.5785 183.531 83.5891 185.678 82.9171C183.27 79.9305 182.355 77.1118 181.963 75.4878C181.291 72.6878 181.422 70.2798 181.552 68.1518C181.683 65.9678 182 64.1572 182.28 62.8878C183.158 58.8932 180.862 52.5652 176.288 50.2878C171.771 48.0292 165.032 49.9332 160.795 55.5332Z" fill="white" stroke="#161616" stroke-width="2" stroke-miterlimit="10"/>
<path d="M161.803 73.3218C162.326 73.2471 162.867 73.1911 163.39 73.1351C163.576 73.1165 163.576 72.8365 163.39 72.8551C162.83 72.9111 162.288 72.9858 161.728 73.0605C161.56 73.0605 161.635 73.3405 161.803 73.3218Z" fill="#161616"/>
<path d="M178.64 58.4271C176.382 59.0058 175.971 60.9658 173.115 65.0538C170.222 69.1978 168.392 71.7924 165.126 73.3044C163.016 74.2751 161.971 74.0138 161.038 75.2644C159.432 77.4298 160.515 80.9951 161.467 82.8244C162.568 84.9338 164.248 86.2031 165.63 87.2484C166.955 88.2378 168.168 88.8911 169.027 89.2831C168.112 87.8831 168.056 87.4538 168.168 87.3231C168.467 87.0244 169.736 88.6298 171.23 88.4244C171.659 88.3684 172.424 88.1258 174.123 85.4564C175.28 83.6458 176.064 82.3951 176.587 80.6031C177.726 76.7578 176.12 75.7124 176.587 70.6538C176.662 69.8884 177.184 63.8964 179.312 63.5044C180.078 63.3551 180.862 63.9898 181.235 64.4751C182.019 65.5018 181.926 67.1444 180.955 68.5631C181.272 68.3391 184.315 66.2858 184.278 62.9444C184.278 62.4218 184.259 60.4991 182.803 59.2484C181.142 57.8298 178.827 58.3898 178.64 58.4271Z" fill="#161616" stroke="#161616" stroke-width="2" stroke-miterlimit="10"/>
<path d="M163.596 66.9196C164.029 66.9196 164.38 66.2928 164.38 65.5196C164.38 64.7464 164.029 64.1196 163.596 64.1196C163.163 64.1196 162.812 64.7464 162.812 65.5196C162.812 66.2928 163.163 66.9196 163.596 66.9196Z" fill="#161616"/>
<path d="M157.622 67.5734C158.055 67.5734 158.406 66.9466 158.406 66.1734C158.406 65.4002 158.055 64.7734 157.622 64.7734C157.189 64.7734 156.838 65.4002 156.838 66.1734C156.838 66.9466 157.189 67.5734 157.622 67.5734Z" fill="#161616"/>
<path d="M156.446 63.8764C156.95 63.2977 157.734 63.2417 158.294 63.8018C158.555 64.0631 158.947 63.6524 158.686 63.4097C157.92 62.663 156.744 62.6817 156.035 63.4844C155.83 63.7644 156.222 64.1565 156.446 63.8764Z" fill="#161616"/>
<path d="M162.569 62.9067C163.222 62.3653 164.081 62.44 164.641 63.056C164.884 63.3173 165.276 62.9253 165.033 62.664C164.249 61.824 163.036 61.7867 162.158 62.5147C161.897 62.7387 162.289 63.1307 162.569 62.9067Z" fill="#161616"/>
<path d="M160.16 57.7541C160.365 56.4101 160.888 54.2074 162.325 51.9301C162.829 51.1274 163.912 49.4288 165.629 48.2714C168.915 46.0874 173.973 46.2554 177.651 48.9434C181.253 51.5754 183.045 56.2795 182.261 60.9461C174.888 59.9008 167.533 58.8368 160.16 57.7541Z" fill="#5222D0"/>
<path d="M148.102 57.9223C159.432 59.3783 170.782 60.8343 182.112 62.2716C183.176 62.4023 183.176 60.7223 182.112 60.5916C170.782 59.1356 159.432 57.6796 148.102 56.2423C147.038 56.093 147.038 57.773 148.102 57.9223Z" fill="#161616"/>
<path d="M169.755 46.9088C172.667 47.5435 174.87 49.8955 175.243 52.7141C175.579 55.1781 174.496 57.6794 172.443 59.2101C175.672 59.6394 178.92 60.0874 182.149 60.5168C182.317 59.6581 182.467 58.3514 182.261 56.8208C181.776 53.2368 179.704 50.9408 179.032 50.2501C178.304 49.5035 175.728 47.0021 171.902 46.7781C171.024 46.7408 170.278 46.8155 169.755 46.9088Z" fill="#321693"/>
</svg>
