<svg viewBox="0 0 299 224" fill="none" xmlns="http://www.w3.org/2000/svg">
<path d="M174.142 24.2292C169.569 26.9359 168.262 31.6026 167.721 33.5253C167.59 33.9919 166.059 39.7226 168.71 45.6959C169.494 47.4693 170.334 49.2986 172.238 50.1759C173.339 50.6986 174.329 50.6613 178.211 50.3253C180.022 50.1759 181.982 49.9893 184.073 49.7653C185.547 47.8799 188.086 44.1093 188.833 38.8079C188.963 37.8186 190.494 26.0212 184.073 22.8852C179.873 20.8132 174.814 23.8186 174.142 24.2292Z" fill="#EC615B"/>
<path d="M89.6933 52.0623C92.0233 52.0623 93.912 49.973 93.912 47.3957C93.912 44.8183 92.0233 42.729 89.6933 42.729C87.3634 42.729 85.4746 44.8183 85.4746 47.3957C85.4746 49.973 87.3634 52.0623 89.6933 52.0623Z" fill="#EC615B"/>
<path d="M185.361 126.84C187.092 126.84 188.496 125.486 188.496 123.816C188.496 122.146 187.092 120.792 185.361 120.792C183.629 120.792 182.225 122.146 182.225 123.816C182.225 125.486 183.629 126.84 185.361 126.84Z" fill="#EC615B"/>
<path d="M89.7308 108.584C91.0195 108.584 92.0641 107.539 92.0641 106.25C92.0641 104.962 91.0195 103.917 89.7308 103.917C88.4421 103.917 87.3975 104.962 87.3975 106.25C87.3975 107.539 88.4421 108.584 89.7308 108.584Z" fill="#EC615B"/>
<path d="M85.3817 50.5121C87.4332 50.5121 89.0963 48.7655 89.0963 46.6108C89.0963 44.4562 87.4332 42.7095 85.3817 42.7095C83.3301 42.7095 81.667 44.4562 81.667 46.6108C81.667 48.7655 83.3301 50.5121 85.3817 50.5121Z" fill="#5222D0"/>
<path d="M184.502 122.061C185.77 122.061 186.798 120.992 186.798 119.672C186.798 118.352 185.77 117.283 184.502 117.283C183.234 117.283 182.206 118.352 182.206 119.672C182.206 120.992 183.234 122.061 184.502 122.061Z" fill="#5222D0"/>
<path d="M215.19 56.1682C216.582 56.1682 217.71 54.9647 217.71 53.4802C217.71 51.9957 216.582 50.7922 215.19 50.7922C213.798 50.7922 212.67 51.9957 212.67 53.4802C212.67 54.9647 213.798 56.1682 215.19 56.1682Z" fill="#5222D0"/>
<path d="M160.459 72.7806C160.048 72.1272 159.376 72.7433 159.096 73.1913C158.518 74.1246 158.144 75.2819 158.574 76.3459C158.891 77.1486 159.675 77.8206 160.59 77.6899C161.43 77.5779 162.064 76.8873 162.045 76.0473C162.045 75.8233 161.728 75.6553 161.56 75.8419C160.571 77.0926 159.358 78.8659 160.347 80.4713C161.038 81.5726 162.736 81.7219 163.408 80.5273C163.24 80.5086 163.072 80.4899 162.904 80.4526C162.998 80.9753 163.091 81.4979 163.165 82.0206C163.221 82.3753 163.763 82.2259 163.707 81.8713C163.614 81.3486 163.52 80.8259 163.445 80.3033C163.408 80.0606 163.035 80.0419 162.942 80.2286C162.643 80.7513 161.971 80.9379 161.43 80.6766C160.832 80.3779 160.571 79.7059 160.571 79.0526C160.571 77.9699 161.336 77.0179 161.971 76.2153C161.803 76.1406 161.653 76.0846 161.485 76.0099C161.504 76.7193 160.814 77.2419 160.123 77.0926C159.6 76.9806 159.264 76.5326 159.078 76.0473C158.891 75.5433 158.91 75.0393 159.059 74.5353C159.078 74.4979 159.843 72.8366 159.955 73.0233C160.16 73.3593 160.645 73.0793 160.459 72.7806Z" fill="#EC615B"/>
<path d="M84.2431 74.461C84.6538 73.341 86.0165 73.8263 86.4458 74.6104C86.5951 74.8717 86.6698 75.1703 86.7071 75.469C86.7818 76.029 86.7258 76.253 86.2405 76.589C85.7178 77.1117 85.5871 76.9064 85.8671 75.973C85.9978 75.917 86.1471 75.861 86.2778 75.805C86.6325 75.7117 87.0431 75.7303 87.3978 75.8424C88.2938 76.141 88.7418 77.093 88.6111 77.9704C88.5738 78.1944 88.7978 78.4184 89.0218 78.2877C90.2351 77.597 91.8404 78.3624 92.1204 79.725C92.1951 80.0797 92.7364 79.9304 92.6618 79.5757C92.3071 77.8584 90.2724 76.9624 88.7418 77.821C88.8724 77.933 89.0218 78.0264 89.1524 78.1384C89.3951 76.4957 88.1444 74.965 86.4085 75.2264C85.8111 75.3197 84.9151 75.693 84.8405 76.4024C84.7845 76.981 85.3258 77.4104 85.8671 77.4664C87.4724 77.6157 87.4351 75.2823 86.9125 74.349C86.2031 73.0797 84.2431 72.7623 83.6831 74.3304C83.5711 74.6477 84.1125 74.797 84.2431 74.461Z" fill="#EC615B"/>
<path d="M182.523 144.723C183.96 145.675 185.173 146.888 186.144 148.307C186.349 148.605 186.835 148.325 186.629 148.027C185.603 146.533 184.333 145.264 182.821 144.256C182.504 144.032 182.224 144.517 182.523 144.723Z" fill="#5222D0"/>
<path d="M186.164 145.749C186.462 146.103 186.742 146.477 187.041 146.831C187.265 147.111 187.657 146.719 187.433 146.439C187.134 146.085 186.854 145.711 186.556 145.357C186.332 145.077 185.94 145.487 186.164 145.749Z" fill="#5222D0"/>
<path d="M184.446 140.523C185.734 141.718 186.798 143.081 187.619 144.63C187.787 144.947 188.272 144.667 188.104 144.35C187.264 142.763 186.163 141.345 184.838 140.131C184.576 139.87 184.184 140.281 184.446 140.523Z" fill="#5222D0"/>
<path d="M55.3836 161.542C55.7943 165.592 56.5036 169.587 57.493 173.544C57.5863 173.899 58.1276 173.75 58.0343 173.395C57.0636 169.494 56.3543 165.536 55.9436 161.542C55.9063 161.187 55.3463 161.187 55.3836 161.542Z" fill="#E8E8E8"/>
<path d="M57.6054 173.731C61.2828 174.683 65.1094 174.683 68.7868 173.731C69.1414 173.638 68.9921 173.096 68.6374 173.19C65.0534 174.123 61.3388 174.123 57.7547 173.19C57.4187 173.096 57.2694 173.638 57.6054 173.731Z" fill="#E8E8E8"/>
<path d="M69.2157 173.171C69.4584 169.195 69.7757 165.219 70.149 161.243C70.1864 160.888 69.6264 160.888 69.589 161.243C69.2157 165.219 68.8984 169.195 68.6557 173.171C68.6371 173.525 69.1971 173.525 69.2157 173.171Z" fill="#E8E8E8"/>
<path d="M55.7018 161.84C60.3498 162.792 65.1285 162.754 69.7765 161.709C70.1312 161.634 69.9818 161.093 69.6272 161.168C65.0912 162.176 60.4058 162.232 55.8512 161.298C55.4965 161.224 55.3472 161.765 55.7018 161.84Z" fill="#E8E8E8"/>
<path d="M55.6458 163.184C55.7951 163.95 56.7658 163.912 57.3631 163.968C58.8751 164.099 60.4058 164.136 61.9178 164.099C63.3738 164.062 64.8298 163.95 66.2858 163.782C67.4431 163.632 68.5631 163.483 69.5898 162.904C69.9071 162.736 69.6271 162.251 69.3098 162.419C67.4618 163.446 64.9045 163.408 62.8325 163.502C61.8058 163.539 60.7605 163.558 59.7338 163.539C59.1925 163.52 56.2991 163.651 56.1871 163.035C56.1125 162.68 55.5898 162.83 55.6458 163.184Z" fill="#E8E8E8"/>
<path d="M56.7096 169.661C57.6056 171.248 58.7443 172.648 60.107 173.861C60.3683 174.104 60.779 173.712 60.499 173.469C59.155 172.293 58.0536 170.93 57.195 169.381C57.027 169.064 56.5416 169.344 56.7096 169.661Z" fill="#E8E8E8"/>
<path d="M55.9814 165.351C57.8854 168.561 60.2001 171.511 62.8508 174.162C63.1121 174.423 63.5041 174.012 63.2428 173.77C60.6294 171.156 58.3521 168.244 56.4668 165.071C56.2801 164.772 55.7948 165.052 55.9814 165.351Z" fill="#E8E8E8"/>
<path d="M59.0993 164.007C61.078 167.535 63.374 170.876 65.9686 173.993C66.1926 174.273 66.5846 173.881 66.3606 173.601C63.8033 170.521 61.526 167.217 59.5846 163.727C59.4166 163.409 58.9313 163.689 59.0993 164.007Z" fill="#E8E8E8"/>
<path d="M62.6639 164.137C64.5865 167.012 66.5279 169.868 68.4879 172.724C68.6932 173.022 69.1785 172.742 68.9732 172.444C67.0132 169.588 65.0719 166.732 63.1492 163.857C62.9439 163.558 62.4585 163.838 62.6639 164.137Z" fill="#E8E8E8"/>
<path d="M65.6504 163.968C66.621 165.536 67.6664 167.066 68.749 168.56C68.9544 168.84 69.4397 168.56 69.2344 168.28C68.1517 166.786 67.1064 165.256 66.1357 163.688C65.949 163.389 65.4637 163.669 65.6504 163.968Z" fill="#E8E8E8"/>
<path d="M49.5041 145.115C49.7281 146.403 49.9521 147.71 50.1948 148.998C50.2695 149.353 50.3255 149.726 50.6241 149.95C50.8295 150.118 51.5015 150.099 51.6321 150.286C51.6508 150.174 51.6695 150.062 51.6695 149.95C51.3895 150.23 51.1095 150.51 50.8108 150.771C50.7361 150.846 50.7175 150.958 50.7361 151.051C50.9041 151.555 51.0161 152.302 51.3521 152.731C51.5201 152.955 51.8188 152.918 51.9495 153.049C52.0615 153.161 52.0241 153.086 51.9681 153.422C51.9308 153.702 51.9308 154.001 51.9681 154.299C52.0241 154.747 52.1548 155.177 52.3228 155.587C53.2935 157.939 55.1788 159.843 56.9895 161.598C57.2508 161.841 57.6428 161.449 57.3815 161.206C56.2241 160.086 55.0668 158.929 54.1148 157.622C53.1815 156.334 52.0801 154.598 52.6588 152.955C52.6961 152.862 52.6588 152.731 52.5841 152.675C52.2295 152.395 51.8748 152.507 51.6321 152.059C51.1655 151.219 51.4268 150.939 52.0241 150.361C52.1175 150.286 52.1361 150.118 52.0615 150.025C51.9121 149.801 51.8001 149.726 51.5575 149.651C51.4081 149.595 51.1841 149.651 51.0348 149.577C50.7175 149.409 50.7175 148.998 50.6615 148.699C50.4375 147.467 50.2135 146.217 50.0081 144.985C49.9708 144.611 49.4295 144.761 49.5041 145.115Z" fill="#E8E8E8"/>
<path d="M49.915 145.04C57.195 147.467 62.179 154.261 62.3283 161.952C62.3283 162.307 62.8883 162.307 62.8883 161.952C62.739 154.019 57.587 147.019 50.0643 144.499C49.7283 144.387 49.579 144.928 49.915 145.04Z" fill="#E8E8E8"/>
<path d="M61.0965 154.299C62.9072 149.277 65.5765 144.424 69.8512 141.12C70.1312 140.896 69.8512 140.411 69.5712 140.635C65.1659 144.051 62.4219 148.979 60.5552 154.149C60.4432 154.485 60.9845 154.635 61.0965 154.299Z" fill="#E8E8E8"/>
<path d="M69.3657 141.008C69.4964 142.726 69.6457 144.443 69.7763 146.179C69.8137 146.534 70.3737 146.534 70.3363 146.179C70.2057 144.462 70.0563 142.744 69.9257 141.008C69.907 140.654 69.347 140.654 69.3657 141.008Z" fill="#E8E8E8"/>
<path d="M70.0186 145.992C69.7759 146.048 69.5333 146.104 69.3092 146.179C68.9546 146.272 69.1039 146.814 69.4586 146.72C69.7013 146.664 69.9439 146.608 70.1679 146.534C70.5226 146.44 70.3733 145.918 70.0186 145.992Z" fill="#E8E8E8"/>
<path d="M69.029 146.682C69.1037 147.037 69.4024 147.261 69.7384 147.298C69.8877 147.317 70.0184 147.168 70.0184 147.018C70.0184 146.85 69.8877 146.757 69.7384 146.738C69.7944 146.738 69.7384 146.738 69.7197 146.738C69.7011 146.738 69.6637 146.72 69.701 146.738C69.6824 146.72 69.6637 146.72 69.6451 146.701C69.6077 146.682 69.6824 146.738 69.6264 146.682C69.6077 146.664 69.6077 146.664 69.589 146.645C69.6264 146.682 69.589 146.645 69.589 146.626C69.5704 146.608 69.5704 146.57 69.5704 146.608C69.5704 146.589 69.5517 146.552 69.5517 146.533C69.5144 146.384 69.3464 146.29 69.2157 146.346C69.0664 146.384 68.9917 146.533 69.029 146.682Z" fill="#E8E8E8"/>
<path d="M69.4593 147.094C69.478 148.158 69.4406 149.203 69.3286 150.249C69.2913 150.585 69.3473 151.369 69.1233 151.63C69.1046 151.649 68.7686 151.705 68.694 151.761C68.414 151.985 68.806 152.377 69.086 152.153C69.1793 152.078 69.4033 152.153 69.5527 151.985C69.7766 151.761 69.7393 151.238 69.7766 150.977C69.9446 149.689 70.0193 148.382 70.0006 147.075C70.0193 146.739 69.4593 146.739 69.4593 147.094Z" fill="#E8E8E8"/>
<path d="M68.4699 152.246C69.0672 152.955 68.8992 154.131 68.8432 154.989C68.7686 155.979 68.6006 156.893 68.1152 157.752C67.4246 159.021 66.4539 160.085 65.9499 161.467C65.8192 161.803 66.3606 161.952 66.4912 161.616C67.1632 159.805 68.7126 158.461 69.1792 156.557C69.5152 155.195 69.8326 153.011 68.8619 151.854C68.6379 151.592 68.2459 151.984 68.4699 152.246Z" fill="#E8E8E8"/>
<path d="M64.0637 161.728C64.5864 156.426 65.9864 151.256 68.2264 146.44C68.3757 146.122 67.8904 145.824 67.7411 146.16C65.4637 151.088 64.0264 156.333 63.5037 161.746C63.4664 162.101 64.0264 162.082 64.0637 161.728Z" fill="#E8E8E8"/>
<path d="M53.0513 148.157C56.3179 152.264 58.7073 156.987 60.1073 162.027C60.2006 162.381 60.742 162.232 60.6486 161.877C59.2113 156.725 56.7659 151.947 53.4433 147.765C53.2193 147.485 52.8273 147.877 53.0513 148.157Z" fill="#E8E8E8"/>
<path d="M53.405 155.045C54.973 154.952 56.429 155.325 57.7543 156.147C58.053 156.333 58.3517 155.848 58.0344 155.661C56.6343 154.803 55.0477 154.392 53.405 154.485C53.0317 154.504 53.0317 155.064 53.405 155.045Z" fill="#E8E8E8"/>
<path d="M56.821 152.545C56.709 151.518 56.8397 150.529 57.2317 149.558C57.3623 149.222 56.821 149.073 56.6903 149.409C56.2796 150.417 56.149 151.462 56.261 152.545C56.2983 152.899 56.8583 152.899 56.821 152.545Z" fill="#E8E8E8"/>
<path d="M62.8698 149.445C63.4858 150.957 64.3818 152.562 64.6058 154.168C64.6618 154.522 65.2032 154.373 65.1472 154.018C64.9045 152.394 64.0085 150.789 63.4111 149.296C63.2805 148.96 62.7391 149.109 62.8698 149.445Z" fill="#E8E8E8"/>
<path d="M66.3043 151.219C66.8456 150.603 67.3683 149.875 68.059 149.409C68.6376 149.017 69.2723 148.755 69.7203 148.214C69.9443 147.934 69.5523 147.542 69.3283 147.822C68.843 148.401 68.1336 148.643 67.555 149.091C66.9203 149.577 66.435 150.23 65.9123 150.827C65.6696 151.107 66.0616 151.499 66.3043 151.219Z" fill="#E8E8E8"/>
<path d="M66.4906 161.541C67.3866 161.298 68.3012 161.205 69.2346 161.261C69.5892 161.28 69.5892 160.72 69.2346 160.701C68.2452 160.645 67.2932 160.738 66.3412 161C66.0052 161.093 66.1359 161.634 66.4906 161.541Z" fill="#E8E8E8"/>
<path d="M66.4164 161.765C67.4617 161.859 68.4697 161.728 69.4777 161.411C69.8137 161.299 69.6644 160.757 69.3284 160.869C68.3764 161.168 67.4057 161.28 66.4164 161.205C66.0617 161.187 66.0617 161.747 66.4164 161.765Z" fill="#E8E8E8"/>
<path d="M55.9437 161.672C56.1864 161.672 56.4104 161.672 56.6531 161.672C57.0077 161.672 57.0077 161.112 56.6531 161.112C56.4104 161.112 56.1864 161.112 55.9437 161.112C55.5891 161.112 55.5891 161.672 55.9437 161.672Z" fill="#E8E8E8"/>
<path d="M69.6264 166.189C75.5437 166.189 81.4797 166.189 87.3971 166.189C87.7517 166.189 87.7517 165.629 87.3971 165.629C81.4797 165.629 75.5437 165.629 69.6264 165.629C69.2717 165.629 69.2717 166.189 69.6264 166.189Z" fill="#E8E8E8"/>
<path d="M169.792 162.493C173.32 162.493 176.83 162.493 180.358 162.493C180.712 162.493 180.712 161.933 180.358 161.933C176.83 161.933 173.32 161.933 169.792 161.933C169.438 161.933 169.438 162.493 169.792 162.493Z" fill="#E8E8E8"/>
<path d="M201.825 162.829C217.038 162.829 232.251 162.829 247.465 162.829C251.795 162.829 256.126 162.829 260.457 162.829C260.811 162.829 260.811 162.269 260.457 162.269C245.243 162.269 230.03 162.269 214.817 162.269C210.486 162.269 206.155 162.269 201.825 162.269C201.47 162.269 201.47 162.829 201.825 162.829Z" fill="#E8E8E8"/>
<path d="M179.294 101.546C177.875 104.477 176.344 107.352 174.72 110.17C174.646 110.32 174.702 110.562 174.888 110.581C182.896 111.794 190.064 115.77 196.971 119.784C197.288 119.97 197.568 119.485 197.251 119.298C190.288 115.266 183.083 111.272 175.019 110.04C175.075 110.17 175.131 110.32 175.187 110.45C176.83 107.632 178.342 104.757 179.76 101.826C179.928 101.509 179.462 101.21 179.294 101.546Z" fill="#E8E8E8"/>
<path d="M180.525 111.721C181.085 110.115 181.645 108.491 182.205 106.886C182.448 106.214 182.616 105.467 182.933 104.814C183.008 104.422 183.251 104.123 183.624 103.899C183.848 103.955 184.072 104.011 184.296 104.067C184.632 104.161 184.968 104.235 185.285 104.329C186.051 104.515 187.283 104.515 187.152 105.542C187.059 106.27 186.629 107.054 186.387 107.763C185.827 109.35 185.285 110.937 184.725 112.523C184.613 112.859 185.155 113.009 185.267 112.673C185.995 110.582 186.723 108.473 187.451 106.382C187.619 105.897 188.085 105.075 187.712 104.553C187.301 103.993 186.069 103.955 185.435 103.787C184.819 103.638 183.736 103.078 183.101 103.377C182.56 103.619 182.448 104.553 182.28 105.019C181.515 107.203 180.749 109.406 179.984 111.59C179.872 111.907 180.413 112.057 180.525 111.721Z" fill="#E8E8E8"/>
<path d="M187.731 113.718C188.926 111.198 190.139 108.659 191.334 106.139C191.931 104.87 192.529 103.619 193.145 102.35C193.425 101.771 193.649 101.08 194.003 100.539C194.302 100.072 194.377 99.9602 194.899 100.166C195.179 100.278 195.515 100.558 195.758 100.726C196.075 100.95 196.579 101.192 196.803 101.491C197.083 101.846 196.971 102.219 196.803 102.667C196.579 103.264 196.243 103.843 195.963 104.422C195.347 105.691 194.731 106.96 194.078 108.23C192.846 110.638 191.558 113.027 190.233 115.398C190.046 115.715 190.531 115.995 190.718 115.678C192.342 112.803 193.891 109.891 195.347 106.942C196.075 105.486 196.878 103.992 197.494 102.48C197.923 101.379 196.99 100.931 196.169 100.352C195.515 99.9042 194.489 98.8776 193.779 99.7176C193.331 100.24 193.089 101.118 192.79 101.752C192.417 102.518 192.062 103.283 191.689 104.067C190.195 107.203 188.702 110.339 187.227 113.475C187.097 113.755 187.582 114.054 187.731 113.718Z" fill="#E8E8E8"/>
<path d="M193.928 117.6C195.534 115.08 197.344 112.691 199.342 110.488C199.23 110.507 199.118 110.525 199.006 110.525C199.715 111.011 200.406 111.477 201.115 111.963C201.078 111.832 201.04 111.701 201.022 111.571C199.435 114.053 197.848 116.517 196.262 119C196.075 119.299 196.542 119.579 196.747 119.28C198.334 116.797 199.92 114.333 201.507 111.851C201.6 111.72 201.526 111.552 201.414 111.459C200.704 110.973 200.014 110.507 199.304 110.021C199.211 109.947 199.043 109.984 198.968 110.059C196.934 112.317 195.086 114.725 193.462 117.283C193.256 117.637 193.742 117.917 193.928 117.6Z" fill="#E8E8E8"/>
<path d="M216.198 99.8483C214.331 99.139 213.155 97.2723 213.491 95.275C213.827 93.2403 215.825 91.4297 217.878 92.643C219.297 93.483 220.025 95.387 219.483 96.9363C218.923 98.5976 217.094 99.587 215.395 99.3256C215.041 99.2696 214.891 99.811 215.246 99.867C217.243 100.166 219.353 99.0643 220.025 97.0856C220.697 95.107 219.614 92.7177 217.673 91.915C215.395 90.9817 213.323 92.9417 212.931 95.1256C212.521 97.4403 213.883 99.5683 216.03 100.39C216.385 100.52 216.534 99.979 216.198 99.8483Z" fill="#E8E8E8"/>
<path d="M220.025 99.4931C216.31 99.3811 217.71 93.4264 220.995 93.6504C224.281 93.8931 222.937 100.594 219.334 99.3624C218.998 99.2504 218.849 99.7918 219.185 99.9038C223.347 101.322 225.214 93.7438 221.238 93.1091C219.297 92.7918 217.542 94.6211 217.243 96.4318C216.945 98.2238 218.158 99.9785 220.025 100.034C220.379 100.072 220.379 99.5118 220.025 99.4931Z" fill="#E8E8E8"/>
<path d="M217.242 82.5999C216.925 82.2639 216.776 81.7226 217.018 81.3119C217.261 80.9199 217.858 80.7332 218.232 81.0319C218.568 81.2932 218.642 81.8532 218.325 82.1332C217.952 82.4692 217.354 82.3012 217 82.0212C216.72 81.7972 216.328 82.1892 216.608 82.4132C217.186 82.8612 218.082 83.0852 218.698 82.5439C219.258 82.0399 219.202 81.1066 218.642 80.6212C218.064 80.1172 217.149 80.2666 216.664 80.8266C216.122 81.4612 216.272 82.4132 216.832 82.9919C217.093 83.2532 217.485 82.8612 217.242 82.5999Z" fill="#E8E8E8"/>
<path d="M163.072 96.6557C162.549 93.4824 164.397 89.6557 167.981 89.693C169.811 89.7117 171.584 90.4584 173.432 90.197C174.739 90.0104 175.859 89.2637 176.643 88.237C177.427 87.2104 177.875 85.9224 177.949 84.6344C178.043 82.7304 177.315 80.789 177.837 78.9037C178.099 77.9517 178.659 77.0743 179.611 76.7197C180.525 76.4023 181.515 76.589 182.467 76.5517C183.848 76.4957 184.931 75.8983 185.621 74.685C186.592 72.9863 186.368 70.9517 187.04 69.1597C187.843 66.9943 190.101 65.1463 192.491 66.2103C192.808 66.3597 193.107 65.8743 192.771 65.725C189.523 64.269 186.816 67.1997 186.181 70.149C185.771 72.0717 185.845 75.0583 183.549 75.8237C181.944 76.365 180.133 75.525 178.659 76.6263C177.445 77.5223 177.091 79.165 177.109 80.6023C177.165 82.7117 177.819 84.765 176.885 86.781C176.027 88.685 174.328 89.8237 172.219 89.693C170.352 89.581 168.504 88.8157 166.619 89.301C163.427 90.1037 162.064 93.8744 162.568 96.8237C162.605 97.141 163.147 96.9917 163.072 96.6557Z" fill="#E8E8E8"/>
<path d="M186.667 83.3476C185.977 81.7796 186.929 80.2862 188.441 79.7822C189.542 79.4089 190.755 79.3902 191.707 78.6436C192.454 78.0649 192.697 77.3369 192.603 76.4036C192.51 75.5262 192.51 74.8356 193.201 74.2382C193.779 73.7342 194.545 73.5476 195.291 73.5102C197.345 73.4356 200.163 74.4809 201.657 72.4836C202.347 71.5502 202.142 70.3929 202.459 69.3476C202.889 67.8916 204.289 66.9956 205.782 67.0702C206.137 67.0889 206.137 66.5289 205.782 66.5102C204.643 66.4542 203.542 66.8836 202.758 67.7049C201.787 68.7316 201.918 69.8889 201.619 71.1769C200.817 74.7049 195.907 72.2222 193.593 73.3236C192.734 73.7342 192.043 74.4622 191.969 75.4329C191.875 76.5716 192.398 77.5049 191.241 78.2889C190.625 78.6996 189.915 78.8302 189.206 78.9982C188.03 79.2782 186.873 79.6329 186.275 80.7716C185.79 81.6676 185.79 82.6942 186.201 83.6089C186.331 83.9636 186.798 83.6649 186.667 83.3476Z" fill="#E8E8E8"/>
<path d="M219.931 58.4835C219.856 58.3155 219.782 58.1288 219.726 57.9421C219.968 57.6621 220.192 57.3821 220.435 57.1021C220.51 57.0835 220.846 57.3075 220.958 57.3075C221.238 57.3448 221.48 57.2701 221.704 57.1021C222.395 56.5608 222.152 55.7021 222.358 54.9741C222.694 53.7235 224.168 54.5821 224.84 53.6488C225.512 52.7341 225.27 50.7928 227.062 51.3155C227.416 51.4088 227.566 50.8675 227.211 50.7741C226.184 50.4755 225.251 50.9608 224.878 51.9501C224.766 52.2301 224.728 52.5475 224.616 52.8275C224.374 53.4808 224.112 53.5741 223.403 53.6115C222.88 53.6488 222.47 53.6115 222.115 54.0595C221.816 54.4515 221.816 54.9555 221.76 55.4221C221.704 56.1128 221.76 56.6915 220.734 56.6168C220.528 56.5981 220.36 56.4115 220.136 56.4115C218.904 56.3928 219.11 57.9048 219.408 58.6328C219.52 58.9688 220.08 58.8195 219.931 58.4835Z" fill="#E8E8E8"/>
<path d="M223.44 60.0331C223.142 59.6411 222.638 58.5024 223.515 58.2038C223.832 58.0918 224.243 58.2224 224.579 58.2224C224.878 58.2224 225.139 58.2224 225.382 58.0171C226.128 57.4198 225.587 56.3558 225.979 55.6091C226.614 54.3958 227.883 55.3478 228.779 54.7131C229.414 54.2651 229.582 53.4064 229.694 52.6971C229.75 52.3424 229.208 52.1931 229.152 52.5478C229.022 53.3878 228.872 54.3211 227.827 54.4144C227.286 54.4704 226.875 54.2838 226.371 54.5264C225.55 54.9184 225.288 55.6464 225.27 56.4864C225.251 57.1958 225.419 57.5504 224.224 57.6064C224.075 57.6064 223.926 57.5691 223.776 57.5691C223.347 57.6064 222.974 57.8305 222.731 58.1851C222.208 58.9318 222.507 59.7905 223.03 60.4438C223.272 60.7238 223.664 60.3131 223.44 60.0331Z" fill="#E8E8E8"/>
<path d="M64.7359 70.1499C66.2852 68.2832 68.4879 66.7525 71.0265 67.0139C73.7892 67.2939 75.1519 69.4965 75.4132 72.0725C75.8612 76.3472 74.8159 81.4618 77.7092 85.1018C78.8479 86.5392 80.5465 87.3045 82.3758 86.8565C84.5785 86.3338 86.2958 84.5978 88.2558 83.5712C90.5705 82.3578 93.7625 81.7045 95.8532 83.7392C97.3838 85.2325 97.7198 87.5098 98.2238 89.4885C98.6905 91.2805 99.4932 93.2592 101.098 94.3232C102.069 94.9578 103.133 95.0138 104.253 94.9392C105.504 94.8458 108.061 94.7712 107.8 96.7312C107.762 97.0858 108.322 97.0858 108.36 96.7312C108.453 95.9658 108.098 95.3498 107.482 94.9018C106.512 94.1925 105.392 94.3045 104.253 94.3792C102.965 94.4725 101.864 94.3605 100.874 93.4458C99.9785 92.6245 99.4372 91.4672 99.0452 90.3285C98.3918 88.3685 98.2052 86.2218 97.0852 84.4298C95.9838 82.6565 94.0798 81.7978 92.0265 81.8725C89.4318 81.9658 87.2478 83.4592 85.1758 84.8405C84.1865 85.4938 83.1225 86.1845 81.9092 86.3898C80.4532 86.6325 79.1652 85.9978 78.2319 84.9152C76.4772 82.8618 76.1972 79.9312 76.1039 77.3552C76.0105 74.9472 76.3279 72.3339 75.5252 70.0005C74.7972 67.8725 72.9492 66.5472 70.7279 66.4352C68.1519 66.3045 65.8932 67.8539 64.3065 69.7579C64.1012 70.0379 64.4932 70.4299 64.7359 70.1499Z" fill="#E8E8E8"/>
<path d="M55.3096 98.9526C58.2216 103.806 60.8162 108.827 63.1122 113.998C63.2615 114.334 63.7469 114.035 63.5975 113.718C61.3015 108.547 58.6882 103.526 55.7949 98.6726C55.6082 98.3552 55.1229 98.6352 55.3096 98.9526Z" fill="#E8E8E8"/>
<path d="M55.6637 98.728C60.1997 95.9094 64.8664 93.2774 69.6637 90.8881C69.9811 90.7201 69.7011 90.2348 69.3837 90.4028C64.6051 92.7921 59.9384 95.424 55.3837 98.2427C55.0664 98.448 55.3464 98.9333 55.6637 98.728Z" fill="#E8E8E8"/>
<path d="M69.3279 90.646C71.6985 95.63 74.1999 100.539 76.8506 105.374C77.0186 105.691 77.5039 105.411 77.3359 105.094C74.6852 100.259 72.1652 95.35 69.8132 90.366C69.6452 90.03 69.1785 90.31 69.3279 90.646Z" fill="#E8E8E8"/>
<path d="M63.7466 114.109C68.2079 111.421 72.6132 108.658 76.9812 105.821C77.2799 105.634 76.9999 105.149 76.7012 105.336C72.3332 108.173 67.9279 110.936 63.4666 113.624C63.1679 113.81 63.4479 114.296 63.7466 114.109Z" fill="#E8E8E8"/>
<path d="M63.392 97.0853C63.2799 100.669 63.4853 104.235 64.008 107.781C64.064 108.136 64.6053 107.987 64.5493 107.632C64.0266 104.141 63.84 100.613 63.952 97.0853C63.9706 96.7307 63.4106 96.7307 63.392 97.0853Z" fill="#E8E8E8"/>
<path d="M63.4108 96.8988C66.0054 98.9335 68.6001 100.931 71.2321 102.909C71.5121 103.133 71.7921 102.648 71.5121 102.424C68.9174 100.483 66.3414 98.5041 63.8028 96.5068C63.5228 96.2828 63.1308 96.6748 63.4108 96.8988Z" fill="#E8E8E8"/>
<path d="M64.5874 107.893C66.7341 105.971 69.5341 104.944 71.5688 102.872C71.8301 102.611 71.4194 102.219 71.1768 102.48C69.1421 104.533 66.3608 105.579 64.1954 107.501C63.9154 107.725 64.3261 108.117 64.5874 107.893Z" fill="#E8E8E8"/>
<path d="M56.0563 101.883C56.6536 101.584 57.251 101.304 57.8483 101.006C58.1657 100.856 57.8857 100.371 57.5683 100.52C56.971 100.819 56.3736 101.099 55.7763 101.398C55.459 101.566 55.739 102.032 56.0563 101.883Z" fill="#E8E8E8"/>
<path d="M57.9786 105.057C58.4826 104.721 59.024 104.441 59.584 104.198C59.92 104.067 59.7706 103.526 59.4346 103.657C58.8186 103.918 58.24 104.217 57.68 104.571C57.4 104.777 57.68 105.262 57.9786 105.057Z" fill="#E8E8E8"/>
<path d="M60.0885 108.715C60.6112 108.454 61.1339 108.193 61.6565 107.95C61.9739 107.782 61.6939 107.315 61.3765 107.465C60.8539 107.726 60.3312 107.987 59.8085 108.23C59.4912 108.379 59.7712 108.865 60.0885 108.715Z" fill="#E8E8E8"/>
<path d="M61.1709 112.373C61.7496 111.869 62.3469 111.44 63.0189 111.067C63.3363 110.88 63.0563 110.413 62.7389 110.581C62.0483 110.973 61.3949 111.44 60.7789 111.981C60.4989 112.224 60.8909 112.616 61.1709 112.373Z" fill="#E8E8E8"/>
<path d="M70.3917 94.3222C70.821 94.0235 71.269 93.8182 71.773 93.6875C72.1277 93.5942 71.9784 93.0715 71.6237 93.1462C71.0824 93.2769 70.5597 93.5009 70.0931 93.8369C69.8131 94.0422 70.0931 94.5275 70.3917 94.3222Z" fill="#E8E8E8"/>
<path d="M72.0534 97.5154C72.6507 97.1421 73.248 96.7687 73.8267 96.3767C74.1254 96.19 73.8454 95.7047 73.5467 95.8914C72.9494 96.2647 72.352 96.638 71.7734 97.03C71.456 97.2354 71.736 97.7207 72.0534 97.5154Z" fill="#E8E8E8"/>
<path d="M73.9572 101.342C74.5918 101.062 75.2451 100.782 75.8798 100.502C76.2158 100.353 75.9171 99.8676 75.5998 100.017C74.9651 100.297 74.3118 100.577 73.6772 100.857C73.3412 101.006 73.6398 101.492 73.9572 101.342Z" fill="#E8E8E8"/>
<path d="M75.32 103.842C75.824 103.357 76.384 102.946 77 102.591C77.3173 102.423 77.0373 101.938 76.72 102.106C76.0666 102.479 75.4693 102.909 74.928 103.431C74.6666 103.693 75.0586 104.085 75.32 103.842Z" fill="#E8E8E8"/>
<path d="M65.3338 111.645C65.8005 112.336 66.1925 113.064 66.4911 113.829C66.6218 114.165 67.1631 114.016 67.0325 113.68C66.7151 112.859 66.3231 112.075 65.8191 111.347C65.6138 111.067 65.1285 111.347 65.3338 111.645Z" fill="#E8E8E8"/>
<path d="M68.1891 110.096C68.5438 110.731 68.8798 111.347 69.2345 111.981C69.4025 112.299 69.8878 112.019 69.7198 111.701C69.3651 111.067 69.0291 110.451 68.6745 109.816C68.5065 109.499 68.0211 109.779 68.1891 110.096Z" fill="#E8E8E8"/>
<path d="M71.4938 107.726C71.8671 108.398 72.2405 109.07 72.6138 109.742C72.7818 110.059 73.2671 109.779 73.0991 109.462C72.7258 108.79 72.3525 108.118 71.9791 107.446C71.8112 107.129 71.3258 107.409 71.4938 107.726Z" fill="#E8E8E8"/>
<path d="M74.4618 105.953C74.7605 106.662 75.0591 107.371 75.3764 108.062C75.5258 108.398 75.9924 108.099 75.8618 107.782C75.5631 107.073 75.2645 106.363 74.9471 105.673C74.7978 105.355 74.3125 105.635 74.4618 105.953Z" fill="#E8E8E8"/>
<path d="M57.5303 95.8542C57.8849 96.4329 58.2209 97.0115 58.5756 97.5715C58.7623 97.8889 59.2476 97.5902 59.0609 97.2915C58.7063 96.7129 58.3703 96.1342 58.0156 95.5742C57.8289 95.2756 57.3436 95.5556 57.5303 95.8542Z" fill="#E8E8E8"/>
<path d="M60.741 93.9861C61.077 94.7328 61.4129 95.4795 61.7489 96.2261C61.8983 96.5621 62.3836 96.2634 62.2343 95.9461C61.8983 95.1995 61.5623 94.4528 61.2263 93.7061C61.0583 93.3701 60.5916 93.6501 60.741 93.9861Z" fill="#E8E8E8"/>
<path d="M63.6346 92.1949C64.1386 92.8669 64.5306 93.5949 64.7919 94.3789C64.9039 94.7149 65.4453 94.5655 65.3333 94.2295C65.0533 93.3895 64.6612 92.6055 64.1199 91.9149C63.9146 91.6349 63.4292 91.8962 63.6346 92.1949Z" fill="#E8E8E8"/>
<path d="M66.7518 90.7575C67.1438 91.3549 67.5171 91.9335 67.9091 92.5309C68.0958 92.8295 68.5811 92.5495 68.3944 92.2509C68.0024 91.6535 67.6291 91.0749 67.2371 90.4775C67.0318 90.1789 66.5464 90.4589 66.7518 90.7575Z" fill="#E8E8E8"/>
<path d="M95.7784 53.7406C93.9677 53.1807 93.8744 51.258 94.733 49.8207C95.573 48.4207 97.1971 48.0473 98.4664 49.2047C99.5117 50.1753 99.6051 51.8367 98.6344 52.9007C97.6637 53.9833 96.077 53.9647 94.957 53.1433C94.677 52.9193 94.397 53.4047 94.677 53.6286C96.0957 54.674 98.1677 54.506 99.2317 53.0313C100.333 51.538 99.9411 49.4473 98.3917 48.4393C94.6584 46.0314 91.4477 52.9753 95.629 54.282C95.9837 54.394 96.133 53.8526 95.7784 53.7406Z" fill="#E8E8E8"/>
<path d="M98.7846 54.2259C97.3846 54.6552 97.0486 52.9752 97.6646 52.0792C98.1686 51.3512 99.158 50.9219 100.054 51.1646C100.913 51.3886 101.529 52.2659 101.305 53.1432C101.025 54.2446 99.8673 54.6366 98.8406 54.4686C98.486 54.4126 98.3366 54.9539 98.6913 55.0099C100.073 55.2526 101.566 54.6552 101.865 53.1619C102.126 51.8739 101.118 50.6979 99.8673 50.5486C98.486 50.3806 96.974 51.3886 96.7873 52.8072C96.6193 54.0392 97.7393 55.1406 98.9713 54.7486C99.2886 54.6552 99.1393 54.1139 98.7846 54.2259Z" fill="#E8E8E8"/>
<path d="M86.8744 66.3793C86.4264 67.294 87.0611 68.2087 87.9944 68.4513C88.7038 68.638 89.4504 68.47 90.1784 68.5073C90.9624 68.5447 91.7464 68.7313 92.4558 69.0487C94.0238 69.758 95.0318 71.046 95.0878 72.782C95.1438 74.238 94.7144 75.75 95.3491 77.1313C96.6931 80.0433 100.389 77.822 102.293 79.7073C103.88 81.294 103.226 84.1873 105.354 85.4006C105.672 85.5873 105.952 85.102 105.634 84.9153C103.73 83.8326 104.178 81.014 102.834 79.446C102.125 78.6247 101.098 78.4007 100.053 78.326C98.7838 78.2513 97.1411 78.5127 96.2078 77.43C95.1251 76.1607 95.7038 74.2567 95.6478 72.7633C95.6104 71.5873 95.2184 70.5233 94.3971 69.6833C93.6691 68.9553 92.7171 68.4513 91.7278 68.19C91.2238 68.0593 90.7011 67.966 90.1784 67.9473C89.5064 67.91 86.5944 68.246 87.3784 66.6593C87.5278 66.342 87.0424 66.062 86.8744 66.3793Z" fill="#E8E8E8"/>
<path d="M43.2321 167.142C46.6108 167.142 49.9708 167.142 53.3494 167.142C53.7041 167.142 53.7041 166.582 53.3494 166.582C49.9708 166.582 46.6108 166.582 43.2321 166.582C42.8588 166.582 42.8588 167.142 43.2321 167.142Z" fill="#E8E8E8"/>
<path d="M48.6823 179.799C55.1783 179.799 61.6557 179.799 68.1517 179.799C68.5063 179.799 68.5063 179.239 68.1517 179.239C61.6557 179.239 55.1783 179.239 48.6823 179.239C48.309 179.239 48.309 179.799 48.6823 179.799Z" fill="#E8E8E8"/>
<path d="M67.3679 176.289C73.3972 176.289 79.4452 176.289 85.4746 176.289C85.8292 176.289 85.8292 175.729 85.4746 175.729C79.4452 175.729 73.3972 175.729 67.3679 175.729C66.9946 175.729 66.9946 176.289 67.3679 176.289Z" fill="#E8E8E8"/>
<path d="M167.777 175.318C170.819 174.571 173.881 174.497 176.979 174.982C178.286 175.187 179.611 175.393 180.937 175.281C182.225 175.169 183.475 174.777 184.726 174.441C186.145 174.049 187.563 173.75 189.057 173.862C190.587 173.974 192.062 174.403 193.555 174.739C194.843 175.038 196.15 175.243 197.475 175.225C198.875 175.187 200.257 174.945 201.619 174.739C205.353 174.142 208.862 174.515 212.558 175.131C212.913 175.187 213.062 174.646 212.707 174.59C209.721 174.105 206.715 173.601 203.673 173.899C200.499 174.217 197.55 175.001 194.339 174.347C191.651 173.806 189.094 172.966 186.331 173.489C184.857 173.769 183.457 174.291 181.982 174.571C180.339 174.889 178.753 174.702 177.11 174.441C173.918 173.955 170.763 173.993 167.609 174.777C167.291 174.87 167.441 175.411 167.777 175.318Z" fill="#E8E8E8"/>
<path d="M196.448 169.644C202.309 169.326 208.171 169.009 214.032 168.71C216.925 168.561 219.725 168.617 222.6 169.009C223.888 169.177 225.12 169.214 226.408 169.065C227.845 168.897 229.339 168.673 230.683 169.364C231 169.532 231.28 169.046 230.963 168.878C228.685 167.721 226.053 168.804 223.608 168.58C222.152 168.449 220.733 168.169 219.277 168.094C217.765 168.019 216.253 168.057 214.741 168.132C208.637 168.412 202.533 168.785 196.429 169.102C196.093 169.102 196.093 169.662 196.448 169.644Z" fill="#E8E8E8"/>
<path d="M81.6666 185.677C84.4293 185.939 87.2106 186.2 89.9733 185.883C91.2613 185.733 92.4933 185.453 93.744 185.08C95.368 184.595 96.824 184.464 98.504 184.763C99.792 184.987 101.061 185.304 102.349 185.416C103.712 185.528 105.075 185.453 106.437 185.323C109.293 185.043 112.149 184.557 114.987 185.192C115.341 185.267 115.491 184.725 115.136 184.651C112.411 184.053 109.685 184.445 106.941 184.725C105.579 184.856 104.216 184.987 102.853 184.912C101.304 184.837 99.8106 184.427 98.2986 184.184C97.0293 183.979 95.816 183.979 94.5653 184.277C93.2213 184.613 91.952 185.061 90.5706 185.267C87.6213 185.696 84.6159 185.397 81.6666 185.136C81.2933 185.08 81.3119 185.64 81.6666 185.677Z" fill="#E8E8E8"/>
<path d="M111.198 35.0563C110.47 34.5523 109.481 33.7497 109.779 32.7417C110.097 31.6963 110.881 32.2003 111.609 31.9577C112.579 31.6403 112.523 30.4643 112.243 29.699C111.963 28.9523 111.366 27.1417 112.915 27.7577C113.27 27.907 113.531 28.1497 113.942 28.019C114.315 27.907 114.502 27.571 114.595 27.2163C114.67 26.899 114.614 26.563 114.595 26.227C114.558 26.003 114.539 25.7603 114.539 25.5363C114.465 24.995 114.801 24.771 115.51 24.8643C115.529 25.219 116.089 25.219 116.07 24.8643C116.033 24.3417 115.641 23.9683 115.081 23.987C114.427 24.0057 114.073 24.6403 113.998 25.2377C113.942 25.6483 114.278 26.6003 114.091 26.9363C113.867 27.0857 113.643 27.2537 113.401 27.403C113.307 27.347 113.214 27.291 113.121 27.235C112.953 27.179 112.822 27.067 112.654 27.0297C112.075 26.899 111.609 27.2537 111.403 27.7763C111.049 28.6723 111.683 29.419 111.87 30.259C112.113 31.4163 111.235 31.2857 110.47 31.4163C110.134 31.4723 109.854 31.6403 109.63 31.883C108.454 33.2457 109.817 34.7577 110.937 35.5417C111.217 35.747 111.497 35.2617 111.198 35.0563Z" fill="#E8E8E8"/>
<path d="M114.875 34.5341C114.259 33.8248 113.792 32.8541 114.987 32.4808C115.286 32.3875 115.622 32.4248 115.902 32.2381C116.518 31.8088 116.256 31.2301 116.144 30.6328C116.088 30.2968 115.958 29.8488 116.163 29.5128C116.312 29.2701 116.854 29.1768 117.134 29.1208C117.526 29.0275 117.936 28.9715 118.272 28.7475C118.776 28.3928 118.963 27.7581 118.627 27.2168C118.44 26.9181 117.955 27.1981 118.142 27.4968C118.702 28.3928 116.088 28.6355 115.64 29.2888C115.118 30.0541 116.219 31.3981 115.304 31.8835C114.95 32.0701 114.502 31.9395 114.166 32.1821C113.923 32.3501 113.755 32.6115 113.68 32.8915C113.475 33.6941 114.016 34.3848 114.502 34.9448C114.726 35.2061 115.118 34.8141 114.875 34.5341Z" fill="#E8E8E8"/>
<path d="M92.8291 30.1096C92.3438 29.7736 92.2878 29.1762 92.4371 28.6535C92.5304 28.2989 92.9784 27.3282 93.4078 27.2909C94.1171 27.2162 94.4718 28.1122 94.6584 28.6349C94.8264 29.1389 94.8824 29.6429 94.9011 30.1656C94.9011 30.5202 95.4611 30.5202 95.4611 30.1656C95.4424 29.1202 94.7517 25.9095 93.0344 26.8429C92.3811 27.1975 91.8958 28.2242 91.8211 28.9335C91.7465 29.6056 92.0078 30.2029 92.5491 30.5949C92.8291 30.8002 93.1091 30.3149 92.8291 30.1096Z" fill="#E8E8E8"/>
<path d="M92.6051 30.4079C91.9331 30.5759 91.2612 30.7439 90.5705 30.9119C90.1785 31.0053 89.5065 31.0426 89.1892 31.3413C88.6479 31.8453 88.7972 33.3946 88.7972 34.0479C88.7972 34.2346 88.9839 34.3653 89.1519 34.3093C89.2452 34.2906 89.3385 34.2533 89.4505 34.2346C89.9358 33.9733 90.1785 34.1413 90.1972 34.7013C90.5705 35.0746 90.5705 35.2986 90.1972 35.3359C89.9732 35.4293 89.7492 35.4666 89.5065 35.4666C89.3572 35.4853 89.2265 35.5786 89.2265 35.7466C89.2639 36.9413 89.3572 38.1173 89.4878 39.3119C89.5252 39.6666 90.0852 39.6666 90.0478 39.3119C89.9172 38.1173 89.8238 36.9413 89.7865 35.7466C89.6932 35.8399 89.5998 35.9333 89.5065 36.0266C90.2905 35.9333 91.5411 35.6159 91.3731 34.5519C91.1865 33.4133 89.8052 33.5439 89.0212 33.7679C89.1332 33.8613 89.2639 33.9546 89.3759 34.0293C89.3759 33.5999 89.3759 33.1893 89.4132 32.7599C89.4692 32.0879 89.4319 31.8453 90.0478 31.6026C90.8878 31.2666 91.8771 31.1546 92.7545 30.9306C93.1091 30.8746 92.9598 30.3333 92.6051 30.4079Z" fill="#E8E8E8"/>
<path d="M95.2933 30.5774C96.0774 30.54 96.88 30.54 97.6641 30.6334C98.4107 30.7267 98.3734 30.8387 98.4854 31.492C98.5601 31.9027 98.5787 32.332 98.6161 32.7427C98.7654 34.348 98.8774 35.9534 98.9708 37.5587C98.9894 37.9134 99.5494 37.9134 99.5308 37.5587C99.4188 35.3747 99.3441 33.1347 98.9894 30.9694C98.8961 30.428 98.8027 30.26 98.2427 30.1667C97.272 29.98 96.264 29.98 95.2933 30.036C94.9387 30.036 94.9387 30.596 95.2933 30.5774Z" fill="#E8E8E8"/>
<path d="M89.899 39.7036C91.0003 39.517 92.1017 39.3303 93.1843 39.1436C94.435 38.9383 95.6297 39.0316 96.8803 38.9383C97.459 38.8823 100.203 38.6023 99.195 37.4636C98.9523 37.2023 98.5603 37.5943 98.803 37.8556C98.9523 38.0236 96.4137 38.397 96.3577 38.397C95.5737 38.4156 94.7897 38.3783 94.0057 38.4716C92.587 38.6396 91.1683 38.9383 89.7497 39.181C89.395 39.2183 89.5443 39.7596 89.899 39.7036Z" fill="#E8E8E8"/>
<path d="M189.056 147.206C189 149.166 188.944 151.126 188.888 153.105C191.37 153.273 193.834 153.422 196.317 153.59C196.317 151.574 196.317 149.558 196.317 147.542C193.89 147.43 191.482 147.318 189.056 147.206Z" fill="white" stroke="#161616" stroke-width="2" stroke-miterlimit="10"/>
<path d="M192.285 168.99C192.621 171.156 192.771 172.948 192.845 174.236C193.088 178.51 192.901 179.5 192.528 180.284C191.613 182.206 189.952 183.009 190.101 183.27C190.213 183.438 191.035 183.252 194.693 181.329C194.469 177.073 194.264 172.836 194.04 168.58C193.461 168.729 192.883 168.86 192.285 168.99Z" fill="white" stroke="#161616" stroke-width="2" stroke-miterlimit="10"/>
<path d="M187.451 155.27C190.625 155.289 193.798 155.326 196.971 155.345C196.617 159.601 196.281 163.838 195.926 168.094C193.163 167.87 190.382 167.665 187.619 167.441C187.544 163.39 187.489 159.34 187.451 155.27Z" fill="white" stroke="#161616" stroke-width="2" stroke-miterlimit="10"/>
<path d="M188.739 168.84C189.747 171.286 190.083 173.395 190.195 174.814C190.363 176.904 190.475 178.51 189.467 179.574C189.093 179.984 188.477 180.376 187.283 181.179C186.219 181.888 185.715 182.15 185.752 182.224C185.808 182.336 186.835 182.112 191.315 180.526C191.613 179.014 191.856 177.072 191.8 174.795C191.725 172.368 191.333 170.296 190.904 168.747C190.195 168.784 189.467 168.803 188.739 168.84Z" fill="white" stroke="#161616" stroke-width="2" stroke-miterlimit="10"/>
<path d="M190.362 183.438C190.922 182.971 191.445 182.467 191.949 181.926C192.528 181.291 193.386 180.321 194.282 181.161C194.301 181.011 194.32 180.862 194.338 180.713C193.013 181.366 191.706 182.019 190.381 182.654C190.12 182.785 190.25 183.177 190.53 183.177C191.781 183.195 192.565 181.011 193.853 181.422C194.189 181.534 194.338 180.993 194.002 180.881C193.442 180.713 193.013 180.862 192.546 181.198C192.005 181.59 191.24 182.617 190.549 182.617C190.605 182.785 190.642 182.971 190.698 183.139C192.024 182.486 193.33 181.833 194.656 181.198C194.824 181.123 194.842 180.881 194.712 180.75C194.208 180.283 193.312 180.115 192.677 180.414C192.21 180.619 191.912 181.161 191.576 181.515C191.072 182.057 190.549 182.542 189.989 183.027C189.69 183.27 190.082 183.681 190.362 183.438Z" fill="#161616"/>
<path d="M192.659 180.526C193.219 180.544 193.76 180.656 194.283 180.88C194.6 181.03 194.899 180.544 194.563 180.395C193.947 180.115 193.331 179.966 192.659 179.947C192.304 179.966 192.304 180.526 192.659 180.526Z" fill="#161616"/>
<path d="M189.598 179.872C190.027 179.984 190.4 180.208 190.699 180.544C190.942 180.806 191.334 180.414 191.091 180.152C190.718 179.76 190.251 179.48 189.728 179.35C189.411 179.238 189.262 179.779 189.598 179.872Z" fill="#161616"/>
<path d="M186.573 182.131C187.152 181.702 187.749 181.31 188.365 180.937C188.645 180.769 188.944 180.545 189.243 180.451C189.709 180.283 189.989 180.395 190.419 180.582C190.419 180.414 190.419 180.265 190.419 180.097C189.821 180.358 189.149 180.339 188.533 180.601C187.936 180.843 187.376 181.441 186.76 181.553C186.835 181.721 186.909 181.889 186.984 182.057C188.085 181.515 189.317 181.422 190.419 180.881C190.736 180.713 190.456 180.246 190.139 180.395C189.037 180.937 187.805 181.03 186.704 181.571C186.405 181.721 186.629 182.131 186.928 182.075C187.6 181.963 188.141 181.347 188.776 181.105C189.411 180.862 190.101 180.843 190.717 180.582C190.904 180.507 190.904 180.171 190.717 180.097C190.008 179.779 189.691 179.593 188.981 179.966C188.048 180.451 187.171 181.03 186.331 181.646C185.995 181.851 186.275 182.337 186.573 182.131Z" fill="#161616"/>
<path d="M189.766 171.697C190.232 171.529 190.699 171.548 191.128 171.772C191.446 171.94 191.726 171.455 191.408 171.287C190.848 170.988 190.214 170.932 189.616 171.156C189.28 171.287 189.429 171.828 189.766 171.697Z" fill="#161616"/>
<path d="M190.232 173.563C190.624 173.526 190.997 173.619 191.296 173.88C191.576 174.104 191.968 173.713 191.688 173.489C191.277 173.153 190.773 172.966 190.232 173.003C189.877 173.022 189.877 173.582 190.232 173.563Z" fill="#161616"/>
<path d="M190.437 175.897C190.792 175.859 191.128 175.99 191.333 176.289C191.52 176.587 192.005 176.307 191.818 176.009C191.538 175.542 190.997 175.262 190.456 175.337C190.306 175.355 190.176 175.449 190.176 175.617C190.157 175.747 190.288 175.915 190.437 175.897Z" fill="#161616"/>
<path d="M192.845 171.566C193.181 171.379 193.611 171.398 193.928 171.659C194.208 171.883 194.6 171.491 194.32 171.267C193.816 170.857 193.144 170.763 192.565 171.081C192.248 171.267 192.528 171.753 192.845 171.566Z" fill="#161616"/>
<path d="M193.163 175.095C193.461 174.964 193.797 175.02 194.04 175.244C194.301 175.487 194.712 175.095 194.432 174.852C194.003 174.46 193.405 174.366 192.864 174.628C192.547 174.758 192.845 175.244 193.163 175.095Z" fill="#161616"/>
<path d="M193.238 178.081C193.536 177.894 193.91 177.894 194.19 178.118C194.47 178.342 194.862 177.95 194.582 177.726C194.115 177.334 193.462 177.278 192.958 177.614C192.659 177.801 192.939 178.286 193.238 178.081Z" fill="#161616"/>
<path d="M197.419 155.326C197.046 159.619 196.672 163.912 196.299 168.206" stroke="#161616" stroke-width="6" stroke-miterlimit="10"/>
<path d="M187.562 167.61C190.68 167.834 193.797 168.039 196.915 168.263" stroke="#161616" stroke-width="6" stroke-miterlimit="10"/>
<path d="M196.934 147.374C196.859 149.502 196.766 151.611 196.691 153.739" stroke="#161616" stroke-width="6" stroke-miterlimit="10"/>
<path d="M197.326 157.846C199.062 157.529 200.91 158.891 201.041 160.683C201.227 162.923 198.67 163.315 196.99 163.073C196.635 163.017 196.486 163.558 196.84 163.614C198.894 163.913 201.787 163.334 201.601 160.683C201.451 158.499 199.267 156.913 197.176 157.305C196.822 157.361 196.971 157.902 197.326 157.846Z" fill="#161616"/>
<path d="M196.915 164.061C197.643 164.211 198.221 164.733 198.427 165.443C198.52 165.797 199.061 165.648 198.968 165.293C198.725 164.397 197.997 163.688 197.083 163.52C196.709 163.464 196.56 163.987 196.915 164.061Z" fill="#161616"/>
<path d="M196.635 163.874C197.083 164.528 197.288 165.256 197.213 166.059C197.195 166.413 197.755 166.413 197.773 166.059C197.829 165.181 197.605 164.322 197.101 163.594C196.915 163.296 196.429 163.576 196.635 163.874Z" fill="#161616"/>
<path d="M187.432 157.585C186.2 156.801 183.941 159.06 183.661 160.161C183.101 162.401 185.976 162.14 187.171 162.886C187.469 163.073 187.749 162.588 187.451 162.401C186.592 161.86 185.323 162.065 184.576 161.393C183.661 160.572 184.501 159.582 185.136 159.004C185.472 158.705 186.611 157.716 187.152 158.052C187.451 158.276 187.749 157.79 187.432 157.585Z" fill="#161616"/>
<path d="M187.134 162.624C186.648 162.811 186.2 163.091 185.827 163.483C185.547 163.782 185.192 164.248 185.472 164.659C185.678 164.958 186.163 164.678 185.958 164.379C185.827 164.192 186.312 163.782 186.443 163.67C186.686 163.446 186.966 163.278 187.283 163.166C187.619 163.035 187.488 162.494 187.134 162.624Z" fill="#161616"/>
<path d="M186.909 163.018C186.555 163.578 186.443 164.213 186.573 164.847C186.648 165.202 187.189 165.053 187.115 164.698C187.003 164.194 187.115 163.727 187.395 163.298C187.6 162.999 187.115 162.719 186.909 163.018Z" fill="#161616"/>
<path d="M188.682 157.23C188.589 158.593 188.608 159.974 188.701 161.336C188.738 161.691 189.299 161.691 189.261 161.336C189.149 159.974 189.149 158.593 189.242 157.23C189.28 156.875 188.72 156.875 188.682 157.23Z" fill="#161616"/>
<path d="M189.093 157.379C191.072 157.491 193.032 157.565 195.01 157.603C194.917 157.509 194.824 157.416 194.73 157.323C194.674 158.723 194.618 160.141 194.544 161.541C194.525 161.896 195.085 161.896 195.104 161.541C195.16 160.141 195.216 158.723 195.29 157.323C195.29 157.173 195.16 157.043 195.01 157.043C193.032 157.005 191.072 156.931 189.093 156.819C188.738 156.8 188.738 157.36 189.093 157.379Z" fill="#161616"/>
<path d="M188.869 161.58C189.691 161.804 190.605 161.748 191.427 161.804C192.435 161.86 193.461 161.934 194.469 161.99C194.824 162.009 194.824 161.449 194.469 161.43C193.573 161.374 192.677 161.318 191.781 161.262C190.885 161.206 189.877 161.262 189 161.038C188.683 160.945 188.533 161.486 188.869 161.58Z" fill="#161616"/>
<path d="M189.504 164.472C189.84 165.2 190.568 164.565 191.128 164.827C191.389 164.939 191.333 165.107 191.688 165.125C192.098 165.144 193.106 164.323 193.312 165.088C193.368 165.293 193.629 165.349 193.778 165.219C193.965 165.163 194.17 165.107 194.357 165.069C194.581 165.349 194.992 164.939 194.749 164.677C194.32 164.173 193.778 164.453 193.368 164.827C193.517 164.864 193.685 164.901 193.834 164.957C193.666 164.304 192.976 163.875 192.322 164.173C192.005 164.323 191.968 164.603 191.482 164.416C191.389 164.379 191.352 164.229 191.258 164.192C191.053 164.117 189.97 164.229 189.97 164.211C189.84 163.856 189.354 164.136 189.504 164.472Z" fill="#161616"/>
<path d="M190.493 149.782C190.531 149.577 190.773 149.521 190.941 149.595C191.184 149.689 191.315 149.969 191.427 150.174C191.576 150.491 192.061 150.211 191.912 149.894C191.707 149.483 191.389 149.054 190.885 148.998C190.475 148.961 190.045 149.203 189.971 149.614C189.877 149.987 190.419 150.137 190.493 149.782Z" fill="#161616"/>
<path d="M193.928 150.044C193.966 149.857 194.134 149.745 194.32 149.82C194.544 149.894 194.638 150.174 194.675 150.38C194.731 150.734 195.272 150.585 195.216 150.23C195.142 149.782 194.843 149.316 194.358 149.241C193.928 149.185 193.462 149.446 193.387 149.894C193.331 150.249 193.872 150.398 193.928 150.044Z" fill="#161616"/>
<path d="M190.773 150.958C191.408 152.078 192.92 152.246 193.741 151.238C193.965 150.958 193.573 150.566 193.349 150.846C192.752 151.574 191.725 151.518 191.258 150.678C191.09 150.36 190.605 150.64 190.773 150.958Z" fill="#161616"/>
<path d="M171.192 49.5233C168.84 48.5713 167.421 46.2939 166.562 44.0166C165.648 41.6459 165.256 39.0699 165.386 36.5313C165.61 31.846 167.608 27.1046 171.304 24.118C174.794 21.2806 179.965 20.478 183.848 23.054C187.898 25.742 188.626 31.286 188.664 35.7473C188.701 40.7126 187.544 45.9206 183.866 49.4859C183.605 49.7286 183.997 50.1393 184.258 49.8779C187.749 46.4806 189.074 41.6273 189.205 36.8859C189.336 32.238 188.776 26.358 184.949 23.166C181.365 20.1793 176.045 20.3286 172.218 22.7553C167.981 25.4433 165.48 30.3153 164.938 35.2246C164.602 38.2673 164.976 41.4219 166.096 44.2966C167.048 46.7233 168.56 49.0379 171.061 50.0459C171.378 50.1953 171.509 49.6539 171.192 49.5233Z" fill="#161616"/>
<path d="M170.93 49.8766C170.296 50.7726 170.426 52.0979 171.36 52.7699C172.069 53.2739 173.114 53.3485 173.954 53.4605C174.962 53.6099 175.989 53.6659 177.016 53.6659C178.845 53.6472 180.936 53.5165 182.634 52.8072C183.866 52.2846 184.8 51.0526 184.146 49.7272C183.997 49.4099 183.512 49.6899 183.661 50.0072C185.061 52.8632 178.434 53.1059 176.997 53.1059C175.672 53.1059 174.346 52.9939 173.058 52.7512C172.442 52.6392 171.752 52.5272 171.36 51.9859C170.968 51.4259 171.042 50.6979 171.416 50.1752C171.621 49.8579 171.136 49.5779 170.93 49.8766Z" fill="#161616"/>
<path d="M171.527 52.9016C171.527 53.835 171.546 54.787 171.658 55.7203C171.714 56.1497 171.807 56.523 172.162 56.7843C172.666 57.1577 173.506 57.139 174.103 57.195C175.111 57.2697 176.138 57.2697 177.146 57.2323C178.098 57.195 179.05 57.1203 180.002 57.027C180.562 56.971 181.197 56.9897 181.626 56.5603C182.578 55.627 182.597 53.8537 182.354 52.6777C182.279 52.323 181.738 52.4723 181.813 52.827C181.943 53.4616 181.981 54.0963 181.85 54.7496C181.663 55.6643 181.402 56.2617 180.375 56.4483C179.181 56.6723 177.837 56.6723 176.623 56.691C175.429 56.7097 174.085 56.7657 172.909 56.4857C171.826 56.2243 172.106 53.7976 172.106 52.9016C172.087 52.547 171.527 52.547 171.527 52.9016Z" fill="#161616"/>
<path d="M171.714 32.7974C173.954 34.1974 175.653 36.2507 176.605 38.7147C176.735 39.0507 177.277 38.9014 177.146 38.5654C176.138 35.9521 174.365 33.7867 172.013 32.3121C171.695 32.1067 171.415 32.5921 171.714 32.7974Z" fill="#161616"/>
<path d="M177.053 38.7149C178.154 36.4002 179.759 34.4216 181.813 32.8909C182.093 32.6856 181.813 32.1816 181.533 32.4056C179.405 33.9922 177.725 36.0456 176.567 38.4349C176.418 38.7522 176.903 39.0322 177.053 38.7149Z" fill="#161616"/>
<path d="M176.605 38.062C176.885 41.9073 177.016 45.7527 176.96 49.598C176.96 49.9527 177.52 49.9527 177.52 49.598C177.576 45.7527 177.445 41.8887 177.165 38.062C177.128 37.6886 176.568 37.6886 176.605 38.062Z" fill="#161616"/>
<path d="M154.747 47.4701C157.229 46.6301 159.693 45.7901 162.176 44.9501C162.512 44.8381 162.363 44.2967 162.027 44.4087C159.544 45.2487 157.08 46.0887 154.597 46.9287C154.243 47.0407 154.392 47.5821 154.747 47.4701Z" fill="#161616"/>
<path d="M157.583 43.7365C158.442 43.4939 159.301 43.2325 160.159 42.9899C160.495 42.8965 160.365 42.3552 160.01 42.4485C159.151 42.6912 158.293 42.9525 157.434 43.1952C157.098 43.3072 157.229 43.8485 157.583 43.7365Z" fill="#161616"/>
<path d="M151.368 37.5193C154.653 37.482 157.92 37.5753 161.186 37.7806C161.541 37.7993 161.541 37.2393 161.186 37.2206C157.92 37.0153 154.634 36.9406 151.368 36.9593C151.013 36.9593 151.013 37.5193 151.368 37.5193Z" fill="#161616"/>
<path d="M158.311 34.9813C159.095 35.1866 159.898 35.28 160.701 35.2986C161.055 35.2986 161.055 34.7386 160.701 34.7386C159.935 34.72 159.189 34.6266 158.461 34.44C158.106 34.3466 157.957 34.888 158.311 34.9813Z" fill="#161616"/>
<path d="M157.098 17.6024C160.028 20.1224 162.698 22.8851 165.106 25.9091C165.33 26.1891 165.722 25.7971 165.498 25.5171C163.09 22.4931 160.42 19.7117 157.49 17.2104C157.228 16.9677 156.818 17.3597 157.098 17.6024Z" fill="#161616"/>
<path d="M165.293 22.9045C165.797 23.4271 166.282 23.9498 166.786 24.4911C167.029 24.7524 167.421 24.3604 167.178 24.0991C166.674 23.5765 166.189 23.0538 165.685 22.5125C165.442 22.2511 165.05 22.6431 165.293 22.9045Z" fill="#161616"/>
<path d="M153.925 23.9502C154.839 24.4915 155.773 24.9955 156.725 25.4622C157.042 25.6302 157.322 25.1448 157.005 24.9768C156.053 24.4915 155.119 23.9875 154.205 23.4648C153.887 23.2782 153.607 23.7635 153.925 23.9502Z" fill="#161616"/>
<path d="M186.405 19.6932C189.168 16.9305 191.93 14.1679 194.693 11.4052C194.954 11.1439 194.544 10.7519 194.301 11.0132C191.538 13.7759 188.776 16.5385 186.013 19.3012C185.752 19.5625 186.144 19.9545 186.405 19.6932Z" fill="#161616"/>
<path d="M189.186 20.981C189.895 20.4583 190.605 19.9543 191.314 19.4317C191.594 19.2263 191.333 18.741 191.034 18.9463C190.325 19.469 189.615 19.973 188.906 20.4957C188.607 20.701 188.887 21.1863 189.186 20.981Z" fill="#161616"/>
<path d="M177.781 16.0348C178.341 13.3281 178.77 10.6028 179.032 7.85877C179.069 7.50411 178.509 7.50411 178.472 7.85877C178.21 10.5468 177.799 13.2348 177.239 15.8854C177.165 16.2401 177.706 16.3894 177.781 16.0348Z" fill="#161616"/>
<path d="M193.479 33.2071C198.556 32.7405 203.615 32.2738 208.693 31.8071C209.047 31.7698 209.047 31.2098 208.693 31.2471C203.615 31.7138 198.556 32.1805 193.479 32.6471C193.124 32.6658 193.106 33.2258 193.479 33.2071Z" fill="#161616"/>
<path d="M172.143 50.5488C175.298 51.2395 178.509 51.2209 181.645 50.5115C181.999 50.4369 181.85 49.8955 181.495 49.9702C178.453 50.6609 175.335 50.6795 172.293 50.0075C171.938 49.9328 171.789 50.4742 172.143 50.5488Z" fill="#161616"/>
<path d="M172.61 55.2901C175.018 55.6074 177.426 55.6821 179.853 55.5141C180.207 55.4954 180.207 54.9354 179.853 54.9541C177.426 55.1221 175.018 55.0474 172.61 54.7301C172.255 54.6927 172.255 55.2527 172.61 55.2901Z" fill="#161616"/>
<path d="M189.952 48.6641C193.741 51.3334 197.605 53.9094 201.525 56.3921C201.824 56.5788 202.104 56.0934 201.805 55.9068C197.885 53.4241 194.021 50.8481 190.232 48.1788C189.933 47.9734 189.653 48.4588 189.952 48.6641Z" fill="#161616"/>
<path d="M142.259 179.966C138.712 184.315 135.184 188.646 131.638 192.995C135.8 207.63 138.152 211.475 139.552 211.27C140.56 211.12 141.046 208.936 141.587 206.491C142.931 200.387 142.128 195.142 141.307 191.875C143.547 189.374 145.768 186.854 148.008 184.352C146.086 182.896 144.182 181.44 142.259 179.966Z" fill="#161616" stroke="#161616" stroke-width="2" stroke-miterlimit="10"/>
<path d="M129.173 157.565C131.395 159.283 133.523 158.667 137.928 159.413C141.68 160.048 145.899 161.448 150.379 164.248C145.6 169.848 140.821 175.765 136.08 182C134.941 183.512 133.803 185.024 132.701 186.536C134.531 186.965 136.733 187.637 139.123 188.72C141.456 189.765 143.36 190.941 144.872 192.005C151.984 185.808 158.331 179.816 163.987 174.16C166.6 171.547 170.296 167.552 170.875 161.896C170.912 161.579 170.912 161.299 170.912 161.019C170.781 151.629 158.965 144.835 151.779 142.333C143.92 139.608 130.405 138.133 126.635 144.648C124.413 148.493 125.72 154.896 129.173 157.565Z" fill="#EC615B"/>
<path opacity="0.26" d="M142.968 148.176C142.837 149.949 142.52 152.059 141.866 154.392C141.4 156.053 140.84 157.528 140.28 158.779C139.664 159.021 139.066 159.264 138.45 159.507C142.464 161.093 146.496 162.68 150.509 164.267C147.522 167.683 144.517 171.267 141.493 175C138.376 178.845 135.408 182.616 132.589 186.331C134.586 186.984 136.565 187.637 138.562 188.272C145.712 180.395 152.861 172.499 160.01 164.621C160.757 162.475 160.72 160.795 160.496 159.619C159.469 153.869 152.432 149.184 142.968 148.176Z" fill="#6D6C6C"/>
<path opacity="0.23" d="M150.472 164.23C151.125 165.219 151.76 166.227 152.413 167.216C146.85 173.918 141.288 180.6 135.725 187.302C134.736 187.04 133.728 186.76 132.738 186.499C136.304 181.608 140.149 176.587 144.312 171.528C146.384 169.008 148.437 166.582 150.472 164.23Z" fill="#6D6C6C"/>
<path d="M131.899 172.873C137.405 173.881 142.931 174.87 148.437 175.878C154.803 189.766 155.512 194.246 154.317 195.011C153.459 195.553 151.667 194.209 149.669 192.697C144.667 188.907 141.885 184.39 140.373 181.347C137.051 180.899 133.728 180.433 130.405 179.985C130.891 177.614 131.395 175.243 131.899 172.873Z" fill="#161616" stroke="#161616" stroke-width="2" stroke-miterlimit="10"/>
<path d="M120.549 141.942C110.506 144.891 104.384 151.014 100.445 155.046C95.1252 160.515 88.5919 167.216 90.4772 172.163C91.4479 174.683 94.3972 176.232 108.136 178.622C118.514 180.432 127.512 181.403 134.53 181.944C135.408 178.734 136.285 175.542 137.144 172.331C130.088 170.054 123.05 167.795 115.994 165.518C120.325 164.603 124.88 163.52 129.621 162.195C133.224 161.187 136.658 160.142 139.925 159.04C142.949 152.936 143.602 146.347 140.448 142.614C136.042 137.387 126.168 140.28 120.549 141.942Z" fill="#EC615B"/>
<path opacity="0.29" d="M142.893 148.4C142.8 150.248 142.483 152.619 141.624 155.232C141.101 156.819 140.504 158.2 139.907 159.339C139.403 159.376 138.899 159.432 138.395 159.469C134.139 160.869 129.603 162.195 124.805 163.427C121.707 164.229 118.683 164.92 115.752 165.555C122.827 167.776 129.901 169.979 136.976 172.2C136.827 172.965 136.64 173.768 136.416 174.608C136.155 175.579 135.856 176.475 135.576 177.296C125.813 174.888 116.051 172.48 106.288 170.072C105.84 169.531 104.365 167.571 104.589 164.976C104.832 162.157 107.52 160.16 110.955 158.331C120.885 153.067 137.536 149.501 142.893 148.4Z" fill="#6D6C6C"/>
<path opacity="0.24" d="M110.73 165.947C112.504 165.817 114.296 165.686 116.069 165.537C123.032 167.851 129.994 170.185 136.957 172.499C136.658 173.601 136.36 174.721 136.061 175.822C127.624 172.518 119.168 169.233 110.73 165.947Z" fill="#6D6C6C"/>
<path d="M117.918 99.6421C120.681 98.0181 125.478 95.7034 131.862 95.0314C141.643 94.0048 149.147 97.5141 152.115 99.1008C151.574 106.437 150.734 112.298 150.062 116.33C149.259 121.146 148.606 123.815 148.307 128.239C147.934 133.783 148.401 138.338 148.83 141.325C145.582 142.333 140.673 143.434 134.625 143.303C128.801 143.173 124.097 141.903 120.942 140.802C121.782 134.119 121.502 128.818 121.091 125.215C120.625 121.202 119.99 119.242 119.225 114.389C118.235 108.117 117.974 102.983 117.918 99.6421Z" fill="white" stroke="#161616" stroke-width="2" stroke-miterlimit="10"/>
<path opacity="0.14" d="M138.116 97.2529C138.508 98.6716 138.956 100.632 139.254 102.984C139.46 104.57 140.3 111.757 137.686 121.24C136.081 127.082 134.382 133.261 128.82 138.338C127.028 139.981 125.292 141.082 124.022 141.773C126.841 142.501 130.518 143.192 134.868 143.229C140.561 143.285 145.265 142.258 148.532 141.25C148.345 139.85 148.102 137.741 148.009 135.202C147.934 132.981 147.934 129.434 149.465 119.448C150.678 111.589 151.537 108.21 151.966 101.098C152.022 100.277 152.041 99.5862 152.078 99.1196C150.716 98.3169 148.942 97.4396 146.758 96.7302C144.742 96.0769 142.932 95.7409 141.438 95.5916C140.356 96.1329 139.236 96.6929 138.116 97.2529Z" fill="#6D6C6C"/>
<path opacity="0.17" d="M151.536 102.162C150.491 108.079 149.11 112.858 148.027 116.18C144.854 125.887 142.632 132.42 136.64 137.199C132.926 140.167 129.062 141.418 126.579 142.015C129.099 142.724 132.664 143.415 136.976 143.322C141.942 143.21 145.955 142.09 148.587 141.138C148.232 138.86 147.822 135.444 147.934 131.282C148.064 125.887 148.942 122.639 149.912 116.722C150.454 113.25 151.144 108.284 151.536 102.162Z" fill="#6D6C6C"/>
<path d="M117.805 99.5496C115.379 101.23 112.261 103.88 109.536 107.819C103.395 116.742 103.563 126.206 103.805 129.696C104.925 132.702 106.848 136.64 110.208 140.504C112.168 142.763 115.043 146.011 119.952 148.102C121.595 148.811 123.032 149.203 124.077 149.427C124.973 148.624 125.851 147.822 126.747 147.019C123.872 143.659 120.979 140.131 118.085 136.491C115.864 133.71 113.736 130.947 111.683 128.222C111.757 125.926 112.243 121.763 114.744 117.414C116.163 114.95 117.824 113.158 119.149 111.944C118.701 107.819 118.253 103.694 117.805 99.5496Z" fill="white" stroke="#161616" stroke-width="2" stroke-miterlimit="10"/>
<path opacity="0.13" d="M118.16 103.713C112.784 109.78 110.227 115.529 108.957 119.15C106.736 125.422 107.203 128.708 107.539 130.276C107.819 131.508 108.435 133.617 110.693 136.828C112.653 139.609 116.779 144.593 124.637 148.7C125.328 148.028 126.019 147.374 126.709 146.702C124.488 144.201 122.248 141.569 119.989 138.825C117.021 135.222 114.259 131.676 111.701 128.204C111.776 126.318 112.093 123.686 113.195 120.737C114.856 116.313 117.469 113.401 119.093 111.852C118.757 109.145 118.459 106.438 118.16 103.713Z" fill="#6D6C6C"/>
<path opacity="0.16" d="M111.683 128.446C112.019 130.63 112.709 133.411 114.165 136.417C117.376 142.95 122.397 146.553 124.955 148.121C125.459 147.673 125.944 147.243 126.448 146.795C121.52 140.673 116.611 134.55 111.683 128.446Z" fill="#6D6C6C"/>
<path d="M152.395 99.2136C155.121 100.875 158.63 103.47 161.673 107.334C168.579 116.088 168.374 125.384 168.113 128.819C166.843 131.768 164.697 135.632 160.926 139.44C158.723 141.643 155.494 144.835 149.987 146.907C148.139 147.598 146.515 147.99 145.339 148.214C144.35 147.43 143.342 146.646 142.353 145.862C145.563 142.558 148.83 139.104 152.078 135.52C154.561 132.776 156.95 130.07 159.265 127.4C159.171 125.16 158.649 121.072 155.83 116.779C154.225 114.352 152.377 112.598 150.883 111.403C151.406 107.334 151.91 103.283 152.395 99.2136Z" fill="white" stroke="#161616" stroke-width="2" stroke-miterlimit="10"/>
<path opacity="0.16" d="M152.264 103.75C154.635 106.232 157.864 110.208 160.384 115.752C161.579 118.384 163.52 122.659 163.558 126.691C163.688 138.955 146.328 147.392 145.32 147.878C144.331 147.243 143.36 146.627 142.371 145.992C147.99 139.832 153.59 133.672 159.208 127.512C159.096 125.496 158.63 121.744 156.39 117.75C154.542 114.464 152.246 112.336 150.734 111.16C151.256 108.696 151.76 106.232 152.264 103.75Z" fill="#6D6C6C"/>
<path opacity="0.12" d="M159.395 127.567C159.115 129.191 158.648 130.965 157.92 132.794C154.635 141.082 147.99 145.618 144.63 147.559C143.827 147.037 143.043 146.514 142.24 145.991C147.952 139.85 153.664 133.709 159.395 127.567Z" fill="#6D6C6C"/>
<path d="M156.688 128.948H110.787V158.012H156.688V128.948Z" fill="white" stroke="#161616" stroke-width="2" stroke-miterlimit="10"/>
<path d="M133.075 146.252C130.648 146.551 129.472 143.602 130.107 141.642C130.723 139.7 133.019 138.786 134.885 139.458C136.733 140.13 137.629 142.388 136.976 144.199C136.248 146.215 133.709 147.036 131.843 146.14C131.525 145.991 131.227 146.476 131.563 146.626C133.224 147.428 135.259 147.13 136.584 145.823C137.872 144.535 138.059 142.5 137.256 140.914C135.427 137.292 129.771 138.45 129.379 142.426C129.173 144.554 130.704 147.111 133.075 146.831C133.429 146.775 133.429 146.215 133.075 146.252Z" fill="#161616"/>
<path opacity="0.14" d="M128.017 128.875C134.233 131.04 138.47 136.584 138.601 142.539C138.769 150.005 132.497 157.024 123.947 157.733C134.83 157.827 145.713 157.92 156.614 158.013C156.576 148.269 156.558 138.525 156.52 128.8C147.019 128.8 137.518 128.837 128.017 128.875Z" fill="#6D6C6C"/>
<path opacity="0.26" d="M156.614 128.78C156.446 134.716 155.27 139.346 154.28 142.388C152.824 146.812 151.779 150.042 148.774 152.898C144.686 156.818 139.59 157.546 137.35 157.732C143.715 157.788 150.08 157.844 156.446 157.919C156.464 152.375 156.502 146.831 156.539 141.268C156.539 137.106 156.576 132.943 156.614 128.78Z" fill="#6D6C6C"/>
<path d="M132.383 84.5791C131.357 85.8298 132.346 87.3605 132.159 91.4485C132.066 93.4831 131.73 95.1258 131.469 96.2271C132.346 96.6378 133.895 97.2164 135.893 97.2724C138.357 97.3284 140.223 96.5631 141.138 96.1151C140.727 95.2938 140.186 94.0245 139.85 92.3818C139.01 88.2005 140.503 86.2405 139.271 84.6911C137.834 82.8991 133.765 82.8805 132.383 84.5791Z" fill="white" stroke="#161616" stroke-width="2" stroke-miterlimit="10"/>
<path d="M125.869 66.6207C124.693 69.6447 125.141 72.37 125.402 73.546C125.29 73.5647 123.106 74.0313 122.509 75.7113C121.911 77.41 123.143 79.818 125.719 80.602C126.653 82.8793 128.911 87.2847 133.672 89.6927C134.474 90.0847 135.24 90.402 136.005 90.626C136.696 90.3647 137.629 89.954 138.693 89.338C142.016 87.4153 143.864 85.026 144.293 84.4473C145.077 83.402 146.141 81.722 146.888 79.4073C147.298 79.482 148.026 79.5193 148.736 79.1647C150.341 78.3433 151.144 75.786 150.024 74.1247C149.09 72.7433 147.28 72.6873 147.056 72.6873C147.298 71.7167 148.045 68.226 146.16 64.7727C143.994 60.7967 139.346 58.706 134.978 59.3033C128.519 60.1433 125.981 66.322 125.869 66.6207Z" fill="white" stroke="#161616" stroke-width="2" stroke-miterlimit="10"/>
<path d="M132.141 89.5254C133.28 90.1974 134.53 91.2427 135.93 91.1307C137.088 91.0374 138.376 90.3654 139.253 89.656C139.533 89.432 139.141 89.04 138.861 89.264C138.04 89.9174 136.714 90.608 135.632 90.5894C134.493 90.5707 133.336 89.6187 132.402 89.04C132.122 88.8534 131.842 89.3387 132.141 89.5254Z" fill="#161616"/>
<path d="M132.067 89.7678C133.131 90.6825 134.344 91.7092 135.837 91.6345C137.293 91.5598 138.656 90.5892 139.608 89.5439C139.851 89.2825 139.459 88.8905 139.216 89.1519C138.395 90.0478 137.237 90.9252 135.968 91.0558C134.568 91.1865 133.448 90.2345 132.459 89.3759C132.197 89.1332 131.805 89.5252 132.067 89.7678Z" fill="#161616"/>
<path d="M132.775 89.8805C132.775 89.8618 132.775 89.8618 132.775 89.8805C132.663 89.7125 132.458 89.6751 132.327 89.8058C132.327 89.8058 132.327 89.8058 132.309 89.8245C132.197 89.9178 132.197 90.1231 132.309 90.2165C134.362 92.1765 138.133 92.8111 139.607 89.8058C139.757 89.4885 139.29 89.1898 139.122 89.5258C137.815 92.2138 134.511 91.5605 132.719 89.8245C132.719 89.9551 132.719 90.0858 132.719 90.2165C132.719 90.2165 132.719 90.2165 132.738 90.1978C132.589 90.1791 132.439 90.1605 132.29 90.1418V90.1605C132.477 90.4591 132.962 90.1791 132.775 89.8805Z" fill="#161616"/>
<path d="M135.015 72.6137C134.773 75.6377 134.903 78.643 135.389 81.6297C135.407 81.779 135.594 81.8723 135.725 81.8163C136.453 81.5737 136.975 81.1443 137.367 80.491C137.554 80.1737 137.069 79.8937 136.882 80.211C136.565 80.7523 136.173 81.0697 135.575 81.275C135.687 81.331 135.799 81.4057 135.911 81.4617C135.426 78.531 135.314 75.563 135.557 72.595C135.613 72.2403 135.053 72.2403 135.015 72.6137Z" fill="#161616"/>
<path d="M131.693 75.5809C131.73 75.7489 132.01 76.7943 131.693 76.9623C131.376 77.1303 130.48 76.4583 130.2 75.5809C129.976 74.8343 130.162 73.9009 130.517 73.8262C130.89 73.7329 131.469 74.7596 131.693 75.5809Z" fill="#161616" stroke="#161616" stroke-miterlimit="10"/>
<path d="M141.325 75.5809C141.362 75.7489 141.642 76.7943 141.325 76.9623C141.008 77.1303 140.112 76.4583 139.832 75.5809C139.608 74.8343 139.794 73.9009 140.149 73.8262C140.522 73.7329 141.101 74.7596 141.325 75.5809Z" fill="#161616" stroke="#161616" stroke-miterlimit="10"/>
<path d="M134.343 84.0929C136.621 85.0635 138.693 83.7009 140.373 82.2262C140.653 81.9835 140.242 81.5915 139.981 81.8342C138.525 83.1035 136.658 84.4662 134.642 83.6075C134.287 83.4768 134.007 83.9622 134.343 84.0929Z" fill="#161616"/>
<path d="M140.914 78.5497C141.269 78.5497 141.269 77.9897 140.914 77.9897C140.56 77.9897 140.56 78.5497 140.914 78.5497Z" fill="#161616"/>
<path d="M142.987 77.5047C143.005 77.486 143.024 77.4673 143.043 77.4487C143.155 77.3367 143.155 77.1687 143.043 77.0567C142.931 76.9447 142.763 76.9447 142.651 77.0567C142.632 77.0753 142.613 77.094 142.595 77.1127C142.483 77.2247 142.483 77.3927 142.595 77.5047C142.707 77.6167 142.875 77.6167 142.987 77.5047Z" fill="#161616"/>
<path d="M142.371 78.8669C142.389 78.8669 142.408 78.8669 142.427 78.8669C142.576 78.8669 142.707 78.7362 142.707 78.5869C142.707 78.4376 142.576 78.3069 142.427 78.3069C142.408 78.3069 142.389 78.3069 142.371 78.3069C142.221 78.3069 142.091 78.4376 142.091 78.5869C142.091 78.7362 142.203 78.8669 142.371 78.8669Z" fill="#161616"/>
<path d="M129.49 72.241C130.2 71.6437 131.245 71.625 131.954 72.2036C132.234 72.4276 132.626 72.0356 132.346 71.8116C131.376 71.0277 130.032 71.0277 129.08 71.849C128.818 72.073 129.229 72.4649 129.49 72.241Z" fill="#161616"/>
<path d="M138.6 72.0354C139.402 71.3261 140.541 71.1955 141.493 71.6995C141.81 71.8674 142.09 71.3821 141.773 71.2141C140.597 70.5795 139.197 70.7475 138.208 71.6434C137.928 71.8861 138.32 72.2781 138.6 72.0354Z" fill="#161616"/>
<path d="M129.64 78.4933C129.995 78.4933 129.995 77.9333 129.64 77.9333C129.285 77.9333 129.285 78.4933 129.64 78.4933Z" fill="#161616"/>
<path d="M131.619 78.2327C131.973 78.2327 131.973 77.6726 131.619 77.6726C131.264 77.6726 131.264 78.2327 131.619 78.2327Z" fill="#161616"/>
<path d="M130.629 78.6609C130.611 78.6796 130.592 78.6982 130.573 78.7169C130.461 78.8289 130.461 78.9969 130.573 79.1089C130.685 79.2209 130.853 79.2209 130.965 79.1089C130.984 79.0902 131.003 79.0716 131.021 79.0529C131.133 78.9409 131.133 78.7729 131.021 78.6609C130.909 78.5489 130.741 78.5489 130.629 78.6609Z" fill="#161616"/>
<path d="M128.912 60.5547C127.792 61.2453 125.346 62.7573 123.685 65.856C122.024 68.936 122.042 71.848 122.117 73.0987C119.392 78.008 118.16 82.3387 117.562 85.288C116.592 89.9734 117.114 91.6907 117.786 92.8294C119.429 95.6294 122.733 96.32 123.536 96.488C127.661 97.3654 130.946 95.256 131.693 94.7707C131.898 94.1547 132.104 93.3894 132.216 92.5307C132.421 91.056 132.309 89.7867 132.141 88.872C131.208 88.1067 130.125 87.08 129.08 85.736C127.493 83.6827 126.597 81.6667 126.093 80.2107C124.45 80.0427 123.218 78.9227 123.106 77.672C122.994 76.496 123.816 74.984 124.898 74.984C125.701 74.984 126.28 75.8053 126.392 75.9547C127.008 75.6 127.866 74.984 128.632 74.0133C129.733 72.6133 129.92 71.3627 130.424 70.056C130.909 68.7867 131.842 67.032 133.858 65.2027C135.8 65.8933 137.349 66.5653 138.413 67.0693C141.829 68.656 143.77 69.5893 145.282 71.624C146.122 72.744 146.552 73.8453 146.776 74.536C148.512 73.2107 149.221 73.5653 149.37 73.64C150.472 74.256 150.434 77.6347 148.717 78.568C148.064 78.9227 147.317 78.8293 146.85 78.7173C146.309 80.6027 145.114 83.6827 142.37 86.408C141.456 87.3227 140.522 88.032 139.682 88.5734C139.608 89.264 139.57 90.216 139.757 91.336C139.925 92.3627 140.224 93.2027 140.504 93.8C145.04 96.7867 150.677 96.2454 153.738 93.0347C156.464 90.16 156.464 85.8107 155.437 82.8427C154.504 80.136 152.693 78.512 151.797 77.8027C152.04 76.7573 153.384 70.56 149.482 64.8667C148.474 63.392 145.656 59.8267 140.578 58.5947C135.202 57.288 130.778 59.416 128.912 60.5547Z" fill="#5222D0"/>
<path opacity="0.17" d="M140.746 68.2266C142.856 70.8772 143.416 73.3226 143.602 74.5919C144.368 79.9306 141.269 84.2612 139.701 86.4826C138.413 88.2932 137.088 89.5812 136.136 90.4212C136.957 92.6239 137.76 94.8079 138.581 97.0106C139.421 96.7306 140.261 96.4506 141.101 96.1706C140.709 95.4799 140.298 94.6212 139.981 93.5759C139.402 91.7092 139.365 90.0666 139.421 88.9466C140.448 88.2186 141.642 87.2292 142.8 85.9226C145.114 83.3092 146.272 80.6212 146.869 78.8106C147.242 78.8852 148.045 78.9786 148.81 78.5492C150.416 77.6346 150.154 75.3572 150.136 75.2079C150.08 74.7226 149.968 73.9386 149.408 73.6212C148.754 73.2666 147.672 73.6026 146.813 74.6106C146.552 73.6959 145.805 71.5866 143.789 69.9066C142.669 68.9732 141.53 68.4879 140.746 68.2266Z" fill="#6D6C6C"/>
<path opacity="0.19" d="M135.277 72.7807C135.165 72.762 134.792 74.386 133.653 81.554C134.307 81.554 134.96 81.554 135.613 81.554C135.483 80.602 135.333 79.2207 135.259 77.5407C135.165 74.666 135.389 72.7993 135.277 72.7807Z" fill="#6D6C6C"/>
<path opacity="0.54" d="M151.685 77.9898C151.367 78.1764 152.562 79.7818 152.394 82.1711C152.338 82.9178 152.226 84.6164 150.882 85.7551C150.789 85.8298 148.791 87.4724 146.813 86.4271C145.637 85.8111 144.927 84.5044 144.965 83.0858C144.405 84.1311 143.49 85.5124 142.053 86.8564C141.157 87.6964 140.279 88.3124 139.514 88.7791C139.458 89.6004 139.458 90.7204 139.757 91.9898C139.925 92.6804 140.13 93.2778 140.335 93.7631C140.914 94.1364 141.773 94.6404 142.893 95.0324C143.602 95.2751 147.503 96.6378 151.311 94.7524C151.983 94.4164 153.477 93.6511 154.559 92.0084C154.69 91.8031 155.175 91.0751 155.53 89.8431C156.799 85.6244 154.933 81.8164 154.765 81.4991C153.738 79.4271 152.077 77.7658 151.685 77.9898Z" fill="#341999"/>
<path opacity="0.35" d="M126.074 80.2856C125.906 80.3042 126.279 81.8349 125.869 83.3469C125.57 84.4669 124.618 86.2962 122.994 86.6695C121.295 87.0429 119.186 85.7922 118.215 83.4589C117.767 84.4855 117.17 86.1282 117.077 88.2189C117.021 89.5815 116.946 91.0375 117.618 92.4748C119.13 95.6855 123.573 96.9361 126.877 96.6375C129.079 96.4321 130.741 95.5735 131.637 94.9948C131.861 94.3602 132.085 93.5948 132.234 92.7175C132.477 91.2055 132.421 89.8802 132.29 88.9095C130.815 87.8455 129.807 86.7442 129.173 85.9415C128.277 84.8029 127.063 83.2722 126.447 81.1442C126.354 80.9016 126.186 80.2669 126.074 80.2856Z" fill="#341999"/>
</svg>
