<svg width="554" height="416" viewBox="0 0 554 416" fill="none" xmlns="http://www.w3.org/2000/svg">
<path d="M105.156 306.834C107.165 307.008 109.173 307.216 111.181 307.389C111.839 307.458 111.839 306.418 111.181 306.349C109.173 306.176 107.165 305.968 105.156 305.794C104.499 305.725 104.499 306.765 105.156 306.834Z" fill="#161616"/>
<path d="M78.3218 308.498C83.3078 308.498 88.2938 308.498 93.2798 308.498C94.6301 308.498 94.6301 306.418 93.2798 306.418C88.2938 306.418 83.3078 306.418 78.3218 306.418C77.006 306.418 77.006 308.498 78.3218 308.498Z" fill="#161616"/>
<path d="M104.325 307.701C116.409 307.701 128.459 307.701 140.543 307.701C141.893 307.701 141.893 305.621 140.543 305.621C128.459 305.621 116.409 305.621 104.325 305.621C102.975 305.621 102.975 307.701 104.325 307.701Z" fill="#161616"/>
<path d="M137.842 308.048C143.936 307.389 148.887 311.826 152.281 316.402C155.501 320.701 158.167 325.554 162.391 328.986C166.788 332.557 172.363 333.632 177.868 334.082C184.69 334.637 191.545 334.81 198.401 334.81C206.296 334.81 214.155 334.464 222.015 333.84C223.331 333.736 223.366 331.656 222.015 331.76C208.131 332.869 194.142 333.042 180.223 332.176C174.129 331.794 167.758 331.066 163.014 326.837C158.859 323.162 156.332 318.101 152.869 313.872C149.199 309.365 143.901 305.309 137.773 306.002C136.561 306.106 136.526 308.186 137.842 308.048Z" fill="#161616"/>
<path d="M235 331.794C241.406 331.76 246.6 336.128 250.062 341.189C253.698 346.493 256.295 352.56 259.169 358.28C261.662 363.237 263.947 368.576 269.591 370.482C272.188 371.384 275.027 371.488 277.762 371.522C281.225 371.592 284.687 371.522 288.15 371.384C289.465 371.349 289.5 369.269 288.15 369.304C284.687 369.442 281.225 369.477 277.762 369.442C274.784 369.408 271.599 369.304 268.864 367.952C266.128 366.6 264.535 364.069 263.15 361.434C261.558 358.418 260.069 355.368 258.545 352.317C253.698 342.68 247.742 329.645 235.07 329.68C233.65 329.714 233.65 331.794 235 331.794Z" fill="#161616"/>
<path d="M299.161 370.76C311.349 370.76 323.571 370.76 335.759 370.76C337.11 370.76 337.11 368.68 335.759 368.68C323.571 368.68 311.349 368.68 299.161 368.68C297.845 368.68 297.845 370.76 299.161 370.76Z" fill="#161616"/>
<path d="M347.185 369.962C355.045 369.962 362.939 369.962 370.799 369.962C372.15 369.962 372.15 367.882 370.799 367.882C362.939 367.882 355.045 367.882 347.185 367.882C345.869 367.882 345.869 369.962 347.185 369.962Z" fill="#161616"/>
<path d="M363.113 378.282C386.762 378.282 410.445 378.282 434.094 378.282C435.444 378.282 435.444 376.202 434.094 376.202C410.445 376.202 386.762 376.202 363.113 376.202C361.797 376.202 361.797 378.282 363.113 378.282Z" fill="#161616"/>
<path d="M457.224 365.144C453.311 355.645 453.069 345.003 456.566 335.331C456.808 334.707 455.804 334.429 455.562 335.053C451.995 344.864 452.238 355.749 456.219 365.421C456.462 366.045 457.466 365.768 457.224 365.144Z" fill="#E8E8E8"/>
<path d="M455.423 334.776C455.527 336.718 456.392 338.486 457.846 339.768C458.366 340.219 459.093 339.456 458.574 339.04C457.292 337.931 456.531 336.475 456.461 334.776C456.427 334.118 455.388 334.118 455.423 334.776Z" fill="#E8E8E8"/>
<path d="M459.163 338.936C456.323 326.283 464.91 314.531 470.901 304.2C470.589 304.165 470.277 304.131 469.966 304.061C473.74 314.496 477.202 325.381 475.159 336.579C473.324 346.84 468.027 356.061 462.868 364.97C462.521 365.56 463.422 366.08 463.768 365.49C469.065 356.338 474.536 346.84 476.267 336.267C478.103 325.069 474.744 314.219 470.97 303.784C470.831 303.368 470.243 303.264 470.035 303.645C463.872 314.253 455.25 326.213 458.193 339.179C458.332 339.872 459.336 339.595 459.163 338.936Z" fill="#E8E8E8"/>
<path d="M476.198 321.187C477.41 318.275 478.725 315.432 480.214 312.659C480.907 311.341 481.634 310.059 482.43 308.776C482.742 308.256 482.915 307.597 483.607 307.563C484.058 307.528 485.166 308.36 485.581 308.568C486.17 308.88 486.689 307.979 486.101 307.667C485.27 307.251 483.85 306.072 482.88 306.488C481.738 306.973 481.011 309.157 480.422 310.163C478.448 313.629 476.752 317.2 475.194 320.875C474.951 321.533 475.955 321.776 476.198 321.187Z" fill="#E8E8E8"/>
<path d="M485.962 308.395C486.759 307.355 487.139 306.142 486.724 304.859C486.62 304.547 486.343 304.235 486.274 303.888C485.997 302.779 486.655 302.294 487.243 301.496C488.005 300.526 488.767 299.555 489.529 298.584C492.61 294.598 495.726 290.611 498.808 286.624C498.496 286.486 498.219 286.382 497.908 286.243C498.773 294.043 502.097 301.323 502.998 309.123C503.482 313.248 502.998 317.27 501.855 321.222C501.301 323.163 500.678 325.07 499.951 326.942C499.258 328.744 498.185 330.894 496.073 331.171C495.692 331.206 495.38 331.587 495.623 331.968C496.315 333.043 497.042 334.083 497.111 335.4C497.181 336.614 496.8 337.827 496.315 338.936C495.519 340.739 494.411 342.438 493.303 344.067C490.948 347.499 488.143 350.55 484.993 353.219C479.418 357.934 473.012 361.678 468.615 367.606C468.2 368.16 469.134 368.646 469.515 368.126C474.571 361.331 482.327 357.448 488.317 351.59C491.364 348.608 494.03 345.211 496.142 341.502C497.008 339.976 497.873 338.312 498.115 336.544C498.392 334.534 497.631 333.078 496.557 331.448C496.419 331.726 496.246 331.968 496.107 332.246C499.189 331.864 500.435 328.814 501.37 326.214C502.894 321.88 504.244 317.443 504.279 312.798C504.348 303.646 499.951 295.256 498.981 286.243C498.946 285.862 498.393 285.48 498.081 285.862C495.069 289.744 492.022 293.662 489.009 297.544C488.317 298.446 487.624 299.312 486.932 300.214C486.378 300.942 485.477 301.739 485.166 302.64C484.993 303.091 484.993 303.438 485.131 303.888C485.547 305.31 486.412 306.142 485.235 307.667C484.82 308.187 485.581 308.915 485.962 308.395Z" fill="#E8E8E8"/>
<path d="M496.004 300.664C491.641 323.128 477.687 341.883 468.511 362.405C468.234 362.995 469.135 363.549 469.412 362.925C478.622 342.299 492.61 323.475 497.008 300.907C497.146 300.283 496.142 300.005 496.004 300.664Z" fill="#E8E8E8"/>
<path d="M467.888 316.853C467.161 332.627 462.729 347.811 458.332 362.856C458.158 363.515 459.163 363.757 459.336 363.133C463.768 347.984 468.165 332.696 468.927 316.853C468.962 316.195 467.923 316.195 467.888 316.853Z" fill="#E8E8E8"/>
<path d="M460.755 321.915C463.283 327.219 464.599 332.939 464.599 338.832C464.599 339.491 465.638 339.491 465.638 338.832C465.603 332.765 464.253 326.872 461.656 321.394C461.379 320.805 460.478 321.325 460.755 321.915Z" fill="#E8E8E8"/>
<path d="M473.809 316.784C472.182 319.627 470.554 322.504 468.892 325.347C467.542 327.704 466.191 329.957 465.914 332.696C465.845 333.355 466.884 333.355 466.953 332.696C467.265 329.749 469.031 327.184 470.45 324.688C471.87 322.227 473.255 319.765 474.675 317.304C475.055 316.715 474.155 316.195 473.809 316.784Z" fill="#E8E8E8"/>
<path d="M489.216 298.48C489.84 306.662 490.428 314.947 488.905 323.059C488.766 323.718 489.77 323.995 489.909 323.336C491.467 315.12 490.913 306.766 490.255 298.48C490.186 297.822 489.147 297.822 489.216 298.48Z" fill="#E8E8E8"/>
<path d="M481.046 339.179C488.352 330.616 499.258 325.104 504.14 314.531C504.417 313.942 503.517 313.387 503.24 314.011C498.393 324.48 487.555 329.923 480.284 338.451C479.868 338.936 480.596 339.699 481.046 339.179Z" fill="#E8E8E8"/>
<path d="M182.405 306.696C200.271 305.483 218.138 304.27 236.004 303.091C244.937 302.502 253.871 301.878 262.804 301.288C271.599 300.699 280.532 299.659 289.361 300.006C306.085 300.664 321.043 308.742 335.897 315.64C350.717 322.504 366.159 328.016 382.018 331.968C399.953 336.475 418.374 339.006 436.864 339.595C437.521 339.63 437.521 338.59 436.864 338.555C403.277 337.48 369.899 329.854 339.256 316.022C324.99 309.574 310.933 301.566 295.178 299.451C286.591 298.307 277.935 299.208 269.348 299.763C260.415 300.352 251.481 300.976 242.548 301.566C222.5 302.918 202.452 304.27 182.405 305.622C181.747 305.691 181.747 306.731 182.405 306.696Z" fill="#E8E8E8"/>
<path d="M355.149 312.416C383.542 313.525 411.103 305.656 439.115 302.605C447.009 301.739 454.973 301.288 462.937 301.496C463.595 301.531 463.595 300.491 462.937 300.456C434.544 299.693 407.018 307.632 378.971 310.509C371.077 311.307 363.113 311.688 355.184 311.376C354.491 311.341 354.491 312.381 355.149 312.416Z" fill="#E8E8E8"/>
<path d="M346.008 330.477C362.074 335.539 378.729 338.624 395.522 339.664C396.18 339.699 396.18 338.659 395.522 338.624C378.798 337.584 362.247 334.533 346.285 329.472C345.627 329.264 345.35 330.269 346.008 330.477Z" fill="#E8E8E8"/>
<path d="M190.784 240.795C206.504 240.587 221.843 236.773 237.424 235.456C253.525 234.069 269.175 236.912 284.93 239.997C316.196 246.064 347.186 253.344 377.898 261.768C386.485 264.125 395.037 266.725 403.659 269.048C411.934 271.267 420.314 273.035 428.9 273.173C429.558 273.173 429.558 272.133 428.9 272.133C413.077 271.891 397.807 266.24 382.745 262.045C367.303 257.747 351.791 253.725 336.175 250.016C320.697 246.341 305.116 242.944 289.5 239.859C274.3 236.843 258.892 233.48 243.345 234.069C225.686 234.728 208.443 239.547 190.784 239.789C190.127 239.789 190.127 240.829 190.784 240.795Z" fill="#E8E8E8"/>
<path d="M359.858 247.347C387.731 258.371 418.305 257.469 447.563 254.037C455.908 253.067 464.253 251.888 472.563 250.675C473.22 250.571 472.943 249.565 472.286 249.669C443.166 253.899 413.111 258.197 383.819 252.997C375.716 251.576 367.787 249.392 360.135 246.341C359.512 246.099 359.235 247.104 359.858 247.347Z" fill="#E8E8E8"/>
<path d="M423.395 124.003C414.531 120.917 410.826 109.859 412.938 101.331C415.016 92.9414 422.702 86.6321 431.255 85.8001C439.634 85.0028 448.117 89.7174 452.099 97.1015C456.116 104.624 455.146 114.781 449.087 120.917C441.227 128.891 428.9 128.44 419.794 123.032C419.205 122.685 418.686 123.587 419.275 123.933C428 129.133 439.357 129.931 447.702 123.517C455.008 117.936 457.327 107.744 454.177 99.2161C451.06 90.7575 442.543 84.8294 433.54 84.6561C424.538 84.4828 415.777 90.3068 412.627 98.7654C409.095 108.264 412.904 121.437 423.118 124.973C423.776 125.251 424.018 124.245 423.395 124.003Z" fill="#E8E8E8"/>
<path d="M229.01 128.509C264.189 124.557 294.762 146.501 326.41 157.872C335.101 160.992 343.999 163.349 353.175 164.389C353.833 164.459 353.833 163.419 353.175 163.349C318.723 159.536 290.296 136.829 256.848 129.341C247.707 127.296 238.289 126.429 228.975 127.504C228.352 127.539 228.352 128.579 229.01 128.509Z" fill="#E8E8E8"/>
<path d="M339.845 150.974C360.758 155.342 382.33 156.174 403.52 153.4C404.178 153.331 404.178 152.256 403.52 152.36C382.434 155.134 360.966 154.336 340.122 149.968C339.464 149.83 339.187 150.835 339.845 150.974Z" fill="#E8E8E8"/>
<path d="M115.232 190.702C156.955 202.315 199.302 214.032 242.791 215.766C255.013 216.251 267.236 215.904 279.389 214.587C280.047 214.518 280.047 213.478 279.389 213.547C236.177 218.262 192.965 210.115 151.208 199.368C139.262 196.283 127.386 192.99 115.475 189.696C114.886 189.523 114.609 190.528 115.232 190.702Z" fill="#E8E8E8"/>
<path d="M91.168 143.971C92.5184 143.971 92.5184 141.891 91.168 141.891C89.8177 141.891 89.8177 143.971 91.168 143.971Z" fill="#161616"/>
<path d="M95.4615 166.088C93.6956 165.187 92.4837 163.28 92.9685 161.235C93.5225 159.051 95.7731 157.629 97.9545 158.288C100.344 159.016 101.348 161.789 100.17 163.939C99.0279 166.088 96.5695 166.781 94.3881 165.811C93.7649 165.533 93.2455 166.435 93.8687 166.712C96.5002 167.856 99.4087 167.197 100.967 164.667C102.456 162.171 101.625 158.808 98.9586 157.56C96.3964 156.347 93.384 157.56 92.276 160.16C91.1334 162.795 92.4837 165.707 94.9767 166.989C95.5307 167.301 96.0501 166.4 95.4615 166.088Z" fill="#161616"/>
<path d="M94.1451 160.923C94.9414 161.443 95.7724 161.963 96.5688 162.483C97.1228 162.864 97.6422 161.963 97.0882 161.581C96.2918 161.061 95.4608 160.541 94.6644 160.021C94.1104 159.675 93.591 160.576 94.1451 160.923Z" fill="#161616"/>
<path d="M98.7851 161.443C99.2006 161.027 99.5815 160.645 99.997 160.229C100.482 159.744 99.72 159.016 99.2699 159.501C98.8544 159.917 98.4735 160.299 98.058 160.715C97.5732 161.2 98.335 161.928 98.7851 161.443Z" fill="#161616"/>
<path d="M92.6218 164.32C92.2409 164.667 91.8601 165.013 91.4792 165.395C90.9944 165.845 91.7216 166.573 92.2063 166.123C92.5872 165.776 92.9681 165.429 93.349 165.048C93.8683 164.597 93.1066 163.835 92.6218 164.32Z" fill="#161616"/>
<path d="M94.319 166.019C94.042 166.504 93.7996 166.955 93.5226 167.44C93.211 168.029 94.1112 168.549 94.4229 167.96C94.6999 167.475 94.9422 167.024 95.2192 166.539C95.5655 165.949 94.6652 165.429 94.319 166.019Z" fill="#161616"/>
<path d="M89.3668 162.136C89.8862 162.413 90.4056 162.483 90.9596 162.379C91.2366 162.344 91.3751 161.997 91.3059 161.755C91.2366 161.443 90.9596 161.339 90.6826 161.408C90.4056 161.443 90.1286 161.408 89.8862 161.269C89.6438 161.131 89.3322 161.2 89.1591 161.443C89.0206 161.651 89.0898 162.032 89.3668 162.136Z" fill="#161616"/>
<path d="M92.6568 155.826C93.003 156.242 93.3147 156.624 93.6609 157.04C93.834 157.248 94.2149 157.213 94.388 157.04C94.5958 156.832 94.5612 156.52 94.388 156.312C94.0418 155.896 93.7302 155.514 93.3839 155.098C93.2108 154.89 92.8299 154.925 92.6568 155.098C92.449 155.306 92.4837 155.618 92.6568 155.826Z" fill="#161616"/>
<path d="M97.6777 157.56C97.9547 157.109 98.1971 156.624 98.4741 156.173C98.8203 155.584 97.9201 155.064 97.5738 155.653C97.2968 156.104 97.0544 156.589 96.7774 157.04C96.4658 157.595 97.3314 158.115 97.6777 157.56Z" fill="#161616"/>
<path d="M101.312 159.12C101.832 158.704 102.386 158.323 102.905 157.907C103.113 157.733 103.251 157.456 103.078 157.179C102.94 156.971 102.594 156.832 102.351 157.005C101.832 157.421 101.278 157.803 100.758 158.219C100.551 158.392 100.412 158.669 100.585 158.947C100.724 159.155 101.07 159.293 101.312 159.12Z" fill="#161616"/>
<path d="M101.763 163.141C102.282 163.419 102.836 163.696 103.356 163.973C103.944 164.285 104.464 163.384 103.875 163.072C103.356 162.795 102.802 162.517 102.282 162.24C101.694 161.928 101.174 162.829 101.763 163.141Z" fill="#161616"/>
<path d="M100.863 167.059C101.174 167.475 101.521 167.856 101.832 168.272C102.005 168.48 102.386 168.445 102.559 168.272C102.767 168.064 102.733 167.752 102.559 167.544C102.248 167.128 101.902 166.747 101.59 166.331C101.417 166.123 101.036 166.157 100.863 166.331C100.655 166.539 100.69 166.851 100.863 167.059Z" fill="#161616"/>
<path d="M111.388 224.501C107.926 222.283 112.323 216.771 115.44 219.717C116.582 220.792 116.444 222.595 115.474 223.739C114.228 225.264 112.046 225.125 110.488 224.155C109.934 223.808 109.415 224.675 109.969 225.056C111.977 226.339 114.782 226.304 116.34 224.328C117.69 222.629 117.586 220.029 115.786 218.677C111.458 215.384 106.368 222.491 110.869 225.403C111.458 225.784 111.977 224.883 111.388 224.501Z" fill="#161616"/>
<path d="M110.696 220.722C111.424 221.104 112.151 221.52 112.843 221.901C113.432 222.213 113.951 221.312 113.363 221C112.635 220.618 111.908 220.202 111.216 219.821C110.627 219.509 110.108 220.41 110.696 220.722Z" fill="#161616"/>
<path d="M115.233 221.346C115.475 220.757 115.96 220.306 116.514 220.029C117.102 219.717 116.583 218.816 115.994 219.128C115.163 219.544 114.575 220.237 114.229 221.069C114.125 221.312 114.332 221.624 114.575 221.693C114.886 221.797 115.094 221.624 115.233 221.346Z" fill="#161616"/>
<path d="M109.692 225.091C109.692 224.987 109.657 225.16 109.657 225.195C109.692 225.125 109.622 225.229 109.622 225.264C109.657 225.195 109.588 225.299 109.588 225.299C109.553 225.333 109.553 225.333 109.588 225.299C109.553 225.333 109.519 225.333 109.484 225.333C109.242 225.472 109.172 225.819 109.311 226.061C109.449 226.304 109.761 226.373 110.038 226.235C110.488 225.992 110.73 225.541 110.765 225.056C110.8 224.779 110.523 224.536 110.246 224.536C109.934 224.571 109.726 224.779 109.692 225.091Z" fill="#161616"/>
<path d="M112.358 225.333C112.358 225.749 112.358 226.131 112.358 226.547C112.358 227.205 113.397 227.205 113.397 226.547C113.397 226.131 113.397 225.749 113.397 225.333C113.397 224.675 112.358 224.64 112.358 225.333Z" fill="#161616"/>
<path d="M109.519 222.629C109.207 222.629 108.895 222.629 108.549 222.629C107.891 222.629 107.891 223.669 108.549 223.669C108.861 223.669 109.172 223.669 109.519 223.669C110.176 223.669 110.176 222.629 109.519 222.629Z" fill="#161616"/>
<path d="M111.665 218.469C111.596 218.053 111.492 217.672 111.423 217.256C111.353 216.979 111.042 216.805 110.799 216.909C110.522 216.979 110.384 217.256 110.453 217.533C110.522 217.949 110.626 218.331 110.696 218.747C110.765 219.024 111.076 219.197 111.319 219.093C111.561 219.024 111.7 218.747 111.665 218.469Z" fill="#161616"/>
<path d="M115.198 218.851C115.44 218.435 115.683 218.053 115.925 217.637C116.271 217.048 115.371 216.528 115.025 217.117C114.782 217.533 114.54 217.915 114.298 218.331C113.951 218.885 114.852 219.405 115.198 218.851Z" fill="#161616"/>
<path d="M116.686 221.52C116.997 221.52 117.309 221.52 117.655 221.52C118.313 221.52 118.313 220.48 117.655 220.48C117.344 220.48 117.032 220.48 116.686 220.48C116.028 220.48 116.028 221.52 116.686 221.52Z" fill="#161616"/>
<path d="M58.9319 209.04C53.7727 205.816 57.8931 196.837 63.7101 199.09C66.5494 200.165 67.2419 203.736 66.3416 206.37C65.0951 210.01 60.9401 209.837 57.9277 208.866C57.3045 208.658 57.0275 209.664 57.6507 209.872C61.044 210.981 65.5106 210.981 67.138 207.168C68.523 203.978 67.5881 199.472 64.1256 198.12C57.1314 195.416 52.18 206.058 58.4125 209.941C58.9665 210.322 59.4859 209.421 58.9319 209.04Z" fill="#161616"/>
<path d="M58.3089 200.928C59.5554 202.003 60.8019 203.077 62.083 204.152C62.6024 204.568 63.3295 203.84 62.8102 203.424C61.5637 202.349 60.3172 201.275 59.036 200.2C58.5513 199.784 57.7895 200.512 58.3089 200.928Z" fill="#161616"/>
<path d="M64.5416 203.598C65.2687 202.8 65.9959 202.003 66.6884 201.206C67.1385 200.72 66.4114 199.958 65.9612 200.478C65.2341 201.275 64.507 202.072 63.8145 202.87C63.3644 203.355 64.0915 204.118 64.5416 203.598Z" fill="#161616"/>
<path d="M55.1573 204.152C54.4302 204.36 53.7723 204.741 53.253 205.261C52.8028 205.746 53.53 206.474 53.9801 205.989C54.3956 205.573 54.8457 205.296 55.3997 205.123C56.0922 204.984 55.8152 203.979 55.1573 204.152Z" fill="#161616"/>
<path d="M56.8542 208.381C56.4387 208.763 56.0578 209.179 55.6423 209.56C55.1575 210.011 55.8847 210.773 56.3694 210.288C56.7849 209.907 57.1658 209.491 57.5813 209.109C58.066 208.659 57.3043 207.896 56.8542 208.381Z" fill="#161616"/>
<path d="M60.5245 210.115C60.6284 210.739 60.7322 211.397 60.8015 212.021C60.8361 212.299 61.1824 212.437 61.4247 212.368C61.7364 212.299 61.8402 212.022 61.771 211.744C61.6671 211.12 61.5632 210.461 61.494 209.837C61.4594 209.56 61.1131 209.421 60.8707 209.491C60.5937 209.56 60.4552 209.837 60.5245 210.115Z" fill="#161616"/>
<path d="M56.3005 201.101C55.8157 200.859 55.331 200.616 54.8808 200.373C54.2922 200.061 53.7728 200.963 54.3615 201.275C54.8462 201.517 55.331 201.76 55.7811 202.003C56.3697 202.315 56.8891 201.413 56.3005 201.101Z" fill="#161616"/>
<path d="M60.3862 198.779C60.1784 198.189 60.1092 197.6 60.1438 197.011C60.1784 196.352 59.1397 196.352 59.105 197.011C59.0358 197.704 59.1397 198.397 59.382 199.056C59.5898 199.68 60.5939 199.403 60.3862 198.779Z" fill="#161616"/>
<path d="M64.1598 198.467C64.4714 197.912 64.783 197.357 65.1293 196.768C65.4755 196.179 64.5753 195.659 64.229 196.248C63.9174 196.803 63.6058 197.357 63.2595 197.947C62.9133 198.501 63.8135 199.021 64.1598 198.467Z" fill="#161616"/>
<path d="M66.3416 201.829C67.0341 201.864 67.7266 201.691 68.2806 201.275C68.5229 201.101 68.6268 200.824 68.4537 200.547C68.3152 200.339 67.9689 200.2 67.7266 200.373C67.3111 200.685 66.8609 200.824 66.3069 200.789C65.6837 200.755 65.6837 201.795 66.3416 201.829Z" fill="#161616"/>
<path d="M67.4146 205.539C67.8301 205.851 68.211 206.163 68.6265 206.509C68.8342 206.683 69.1459 206.717 69.3536 206.509C69.5267 206.336 69.5614 205.955 69.3536 205.781C68.9381 205.469 68.5572 205.157 68.1417 204.811C67.934 204.637 67.6224 204.603 67.4146 204.811C67.2415 204.984 67.2069 205.365 67.4146 205.539Z" fill="#161616"/>
<path d="M65.6138 209.525C65.9254 210.253 66.5487 210.843 67.2412 211.155C67.4836 211.259 67.7952 211.224 67.9683 210.981C68.1068 210.773 68.0376 210.392 67.7952 210.253C67.2066 210.011 66.7911 209.595 66.5141 209.005C66.4102 208.763 66.0293 208.693 65.7869 208.832C65.5446 208.936 65.5099 209.248 65.6138 209.525Z" fill="#161616"/>
<path d="M71.6739 107.813C66.7225 105.04 72.124 96.6853 76.9023 100.187C78.7374 101.539 79.1529 104.069 78.0449 106.011C76.7638 108.264 73.8553 108.715 71.7085 107.467C71.1199 107.12 70.6005 108.021 71.1892 108.368C73.7514 109.859 77.2139 109.339 78.8413 106.739C80.3994 104.243 79.8108 100.776 77.3178 99.1466C71.3623 95.2639 65.0952 105.317 71.1545 108.68C71.7432 109.061 72.2625 108.16 71.6739 107.813Z" fill="#161616"/>
<path d="M71.4318 102.197C72.6437 102.787 73.8209 103.411 75.0328 104C75.6214 104.312 76.1408 103.411 75.5522 103.099C74.3403 102.509 73.163 101.885 71.9512 101.296C71.3625 101.019 70.8432 101.92 71.4318 102.197Z" fill="#161616"/>
<path d="M76.8326 103.272C77.4904 102.717 78.1483 102.163 78.8062 101.608C79.3256 101.157 78.5638 100.429 78.0791 100.88C77.4212 101.435 76.7633 101.989 76.1054 102.544C75.5861 102.96 76.3132 103.688 76.8326 103.272Z" fill="#161616"/>
<path d="M68.315 106.115C67.6571 106.6 66.9992 107.051 66.3413 107.536C65.7873 107.918 66.3067 108.819 66.8607 108.438C67.5186 107.952 68.1765 107.502 68.8343 107.016C69.3883 106.6 68.869 105.699 68.315 106.115Z" fill="#161616"/>
<path d="M71.5003 107.709C71.1195 108.368 70.7732 109.027 70.3923 109.685C70.0461 110.275 70.9463 110.795 71.2926 110.205C71.6735 109.547 72.0197 108.888 72.4006 108.229C72.7122 107.64 71.812 107.12 71.5003 107.709Z" fill="#161616"/>
<path d="M68.3151 102.995C67.588 102.96 66.8955 102.856 66.203 102.683C65.5451 102.509 65.2681 103.515 65.926 103.688C66.6877 103.896 67.4841 104.035 68.3151 104.035C68.973 104.035 68.973 102.995 68.3151 102.995Z" fill="#161616"/>
<path d="M70.8081 99.6668C70.5311 98.9735 70.0117 98.4535 69.2846 98.2108C68.6613 98.0028 68.3843 99.0081 69.0076 99.2161C69.3538 99.3201 69.6654 99.5975 69.8039 99.9441C69.9078 100.221 70.1502 100.395 70.4272 100.291C70.7042 100.256 70.912 99.9441 70.8081 99.6668Z" fill="#161616"/>
<path d="M74.6862 99.1119C74.8593 98.4532 75.0324 97.7946 75.2056 97.1359C75.3787 96.4772 74.3746 96.1999 74.2015 96.8586C74.0283 97.5172 73.8552 98.1759 73.6821 98.8346C73.509 99.4932 74.5131 99.7705 74.6862 99.1119Z" fill="#161616"/>
<path d="M74.3396 109.096C74.7205 109.651 75.1013 110.24 75.4476 110.795C75.8285 111.349 76.7287 110.829 76.3478 110.275C75.967 109.72 75.5861 109.131 75.2398 108.576C74.8936 107.987 73.9933 108.507 74.3396 109.096Z" fill="#161616"/>
<path d="M77.6294 107.259C78.1142 107.536 78.5643 107.813 79.0491 108.091C79.6377 108.437 80.1571 107.536 79.5684 107.189C79.0837 106.912 78.6336 106.635 78.1488 106.357C77.5948 106.011 77.0754 106.912 77.6294 107.259Z" fill="#161616"/>
<path d="M79.7069 104.035C80.1916 103.931 80.6418 103.827 81.1265 103.723C81.7844 103.584 81.5074 102.579 80.8495 102.717C80.3648 102.821 79.9146 102.925 79.4299 103.029C78.772 103.168 79.049 104.173 79.7069 104.035Z" fill="#161616"/>
<path d="M78.9446 100.117C78.9792 99.7358 79.1177 99.3891 79.3947 99.0771C79.8448 98.5918 79.1177 97.8292 78.6676 98.3492C78.2174 98.8345 77.9751 99.4585 77.9404 100.117C77.9058 100.394 78.1828 100.637 78.4598 100.637C78.7022 100.637 78.9099 100.394 78.9446 100.117Z" fill="#161616"/>
<path d="M40.3031 146.293C39.4374 144.802 39.7491 142.722 41.3764 141.925C42.8307 141.197 44.8043 141.682 45.4968 143.242C46.0508 144.56 45.6699 146.328 44.3542 147.021C42.9692 147.784 41.2033 147.194 40.4069 145.912C40.0607 145.322 39.1604 145.877 39.5067 146.432C40.5454 148.165 42.8999 148.928 44.7351 147.992C46.6048 147.021 47.2627 144.49 46.3624 142.653C45.3929 140.712 42.8999 140.053 40.9956 140.989C38.8142 142.029 38.2256 144.837 39.4028 146.848C39.7491 147.402 40.6493 146.882 40.3031 146.293Z" fill="#161616"/>
<path d="M39.6109 143.45C40.4765 143.97 41.3767 144.49 42.2424 145.045C42.831 145.392 43.3504 144.49 42.7617 144.144C41.8961 143.624 40.9959 143.104 40.1302 142.549C39.5762 142.202 39.0569 143.104 39.6109 143.45Z" fill="#161616"/>
<path d="M43.8694 143.901C44.3195 143.485 44.735 143.035 45.1852 142.619C45.6699 142.133 44.9428 141.405 44.458 141.891C44.0079 142.307 43.5924 142.757 43.1423 143.173C42.6575 143.624 43.3847 144.352 43.8694 143.901Z" fill="#161616"/>
<path d="M40.4424 147.68C40.3385 148.096 40.2 148.547 40.0962 148.963C39.923 149.621 40.9271 149.899 41.1003 149.24C41.2041 148.824 41.3426 148.373 41.4465 147.957C41.6196 147.299 40.6155 147.021 40.4424 147.68Z" fill="#161616"/>
<path d="M39.5759 146.12C39.1258 146.501 38.5718 146.675 38.0178 146.64C37.3599 146.605 37.3599 147.645 38.0178 147.68C38.8834 147.715 39.6798 147.437 40.3377 146.848C40.7878 146.397 40.0607 145.669 39.5759 146.12Z" fill="#161616"/>
<path d="M38.4685 143.693C38.1569 143.589 37.8106 143.485 37.499 143.381C37.222 143.277 36.945 143.485 36.8757 143.728C36.8065 144.005 36.9796 144.283 37.222 144.352C37.5336 144.456 37.8799 144.56 38.1915 144.664C38.4685 144.768 38.7455 144.56 38.8147 144.317C38.884 144.075 38.7109 143.797 38.4685 143.693Z" fill="#161616"/>
<path d="M42.1042 141.614C42.1042 141.059 42.1042 140.539 42.1042 139.984C42.1042 139.326 41.0654 139.326 41.0654 139.984C41.0654 140.539 41.0654 141.059 41.0654 141.614C41.0654 142.272 42.1042 142.272 42.1042 141.614Z" fill="#161616"/>
<path d="M44.666 141.752C44.7699 141.475 44.9776 141.232 45.2892 141.128C45.5662 141.059 45.7394 140.781 45.6355 140.504C45.5662 140.227 45.2546 140.053 45.0122 140.157C44.3544 140.365 43.8696 140.851 43.6619 141.509C43.5926 141.787 43.7657 142.064 44.0081 142.133C44.3197 142.168 44.5967 142.029 44.666 141.752Z" fill="#161616"/>
<path d="M45.9471 145.045C46.328 144.941 46.7435 145.115 46.9859 145.461C47.3667 146.016 48.267 145.496 47.8861 144.941C47.4014 144.213 46.5357 143.867 45.6701 144.075C45.0122 144.213 45.2892 145.219 45.9471 145.045Z" fill="#161616"/>
<path d="M44.9779 147.021C44.7009 147.819 45.1857 148.685 45.982 148.928C46.259 149.032 46.536 148.824 46.6053 148.581C46.6745 148.304 46.5014 148.027 46.259 147.957C45.982 147.853 45.9128 147.541 45.982 147.333C46.2244 146.64 45.2203 146.363 44.9779 147.021Z" fill="#161616"/>
<path d="M122.503 116.618C122.088 114.85 122.642 112.944 124.373 112.146C126.174 111.314 128.147 112.389 128.528 114.33C129.221 117.936 123.3 119.946 122.399 116.133C122.261 115.474 121.257 115.752 121.395 116.41C122.607 121.576 130.744 118.906 129.532 113.914C128.978 111.626 126.693 110.274 124.442 111.002C121.915 111.8 120.98 114.504 121.534 116.896C121.672 117.554 122.676 117.277 122.503 116.618Z" fill="#161616"/>
<path d="M122.157 113.533C122.954 114.018 123.715 114.538 124.512 115.024C125.066 115.37 125.585 114.469 125.031 114.122C124.235 113.637 123.473 113.117 122.677 112.632C122.088 112.285 121.569 113.186 122.157 113.533Z" fill="#161616"/>
<path d="M126.866 114.331C127.247 113.742 127.593 113.152 127.974 112.563C128.32 112.008 127.42 111.454 127.074 112.043C126.693 112.632 126.346 113.222 125.966 113.811C125.619 114.366 126.52 114.92 126.866 114.331Z" fill="#161616"/>
<path d="M122.677 118.317C122.469 118.595 122.261 118.837 122.053 119.115C121.88 119.323 121.846 119.635 122.053 119.843C122.226 120.016 122.607 120.051 122.78 119.843C122.988 119.565 123.196 119.323 123.404 119.045C123.577 118.837 123.611 118.525 123.404 118.317C123.231 118.109 122.85 118.075 122.677 118.317Z" fill="#161616"/>
<path d="M121.534 117.173C121.222 117.52 120.807 117.763 120.357 117.867C119.699 118.04 119.976 119.045 120.634 118.872C121.257 118.733 121.846 118.387 122.261 117.901C122.746 117.416 121.984 116.688 121.534 117.173Z" fill="#161616"/>
<path d="M121.465 114.816C121.118 114.851 120.807 114.781 120.495 114.677C120.218 114.573 119.941 114.781 119.872 115.024C119.803 115.301 119.976 115.579 120.218 115.648C120.599 115.787 121.049 115.856 121.465 115.821C121.742 115.787 121.984 115.579 121.984 115.301C121.984 115.059 121.742 114.781 121.465 114.816Z" fill="#161616"/>
<path d="M123.853 111.939C123.611 111.627 123.403 111.245 123.264 110.864C123.161 110.587 122.918 110.413 122.641 110.517C122.399 110.587 122.191 110.899 122.295 111.141C122.503 111.696 122.78 112.216 123.161 112.701C123.334 112.909 123.715 112.875 123.888 112.701C124.061 112.459 124.026 112.181 123.853 111.939Z" fill="#161616"/>
<path d="M127.004 111.141C127.073 110.725 127.108 110.309 127.177 109.858C127.212 109.581 127.108 109.304 126.831 109.234C126.589 109.165 126.242 109.304 126.208 109.581C126.139 109.997 126.104 110.413 126.035 110.864C126 111.141 126.104 111.418 126.381 111.488C126.589 111.557 126.935 111.418 127.004 111.141Z" fill="#161616"/>
<path d="M128.459 114.4C128.978 114.469 129.532 114.539 130.052 114.608C130.329 114.643 130.571 114.331 130.571 114.088C130.571 113.776 130.329 113.603 130.052 113.568C129.532 113.499 128.978 113.429 128.459 113.36C128.182 113.325 127.939 113.637 127.939 113.88C127.939 114.192 128.182 114.365 128.459 114.4Z" fill="#161616"/>
<path d="M127.974 117.59C128.32 118.006 128.701 118.456 129.048 118.872C129.221 119.08 129.602 119.046 129.775 118.872C129.982 118.664 129.948 118.352 129.775 118.144C129.428 117.728 129.048 117.278 128.701 116.862C128.528 116.654 128.147 116.688 127.974 116.862C127.766 117.035 127.801 117.347 127.974 117.59Z" fill="#161616"/>
<path d="M126.035 118.976C126.173 119.774 126.312 120.571 126.45 121.368C126.554 122.027 127.558 121.75 127.455 121.091C127.316 120.294 127.177 119.496 127.039 118.699C126.935 118.04 125.931 118.318 126.035 118.976Z" fill="#161616"/>
<path d="M139.712 184.6C138.535 183.629 137.739 182.208 137.843 180.648C137.981 178.811 139.747 177.251 141.617 177.528C143.729 177.84 144.664 180.405 144.491 182.312C144.248 184.877 141.444 186.056 139.435 184.357C138.916 183.941 138.189 184.669 138.708 185.085C140.578 186.645 143.383 186.611 144.837 184.496C146.36 182.312 145.495 178.499 143.313 177.043C141.374 175.76 138.674 176.592 137.462 178.499C136.008 180.752 137.012 183.699 138.951 185.293C139.47 185.779 140.197 185.051 139.712 184.6Z" fill="#161616"/>
<path d="M137.911 179.33C138.949 179.989 139.988 180.682 141.027 181.341C141.581 181.722 142.1 180.821 141.546 180.44C140.508 179.781 139.469 179.088 138.43 178.429C137.876 178.048 137.357 178.949 137.911 179.33Z" fill="#161616"/>
<path d="M143.002 180.717C143.486 179.954 144.006 179.192 144.49 178.429C144.871 177.874 143.971 177.354 143.59 177.909C143.105 178.672 142.586 179.434 142.101 180.197C141.755 180.752 142.655 181.272 143.002 180.717Z" fill="#161616"/>
<path d="M137.565 184.565C137.081 185.051 136.631 185.501 136.146 185.987C135.661 186.472 136.423 187.2 136.873 186.715C137.358 186.229 137.808 185.779 138.293 185.293C138.777 184.808 138.05 184.08 137.565 184.565Z" fill="#161616"/>
<path d="M139.538 185.986C139.4 186.68 139.261 187.408 139.088 188.101C138.95 188.76 139.954 189.037 140.092 188.378C140.231 187.685 140.369 186.957 140.543 186.264C140.681 185.605 139.677 185.328 139.538 185.986Z" fill="#161616"/>
<path d="M136.768 181.376C136.145 181.376 135.522 181.376 134.899 181.376C134.241 181.376 134.241 182.416 134.899 182.416C135.522 182.416 136.145 182.416 136.768 182.416C137.461 182.416 137.461 181.376 136.768 181.376Z" fill="#161616"/>
<path d="M138.673 176.314C138.326 176.106 138.188 175.725 138.223 175.344C138.257 175.066 137.98 174.824 137.703 174.824C137.392 174.824 137.218 175.066 137.184 175.344C137.115 176.106 137.495 176.8 138.119 177.216C138.707 177.597 139.227 176.696 138.673 176.314Z" fill="#161616"/>
<path d="M142.69 176.418C142.829 175.794 143.036 175.205 143.313 174.65C143.625 174.061 142.725 173.541 142.413 174.13C142.067 174.754 141.824 175.448 141.686 176.141C141.547 176.8 142.552 177.077 142.69 176.418Z" fill="#161616"/>
<path d="M144.664 179.157C145.218 179.053 145.737 179.123 146.257 179.331C146.88 179.573 147.157 178.568 146.534 178.325C145.841 178.048 145.114 178.013 144.387 178.152C143.729 178.256 144.006 179.261 144.664 179.157Z" fill="#161616"/>
<path d="M145.079 182.901C145.598 183.109 145.979 183.525 146.187 184.045C146.291 184.288 146.672 184.357 146.914 184.218C147.191 184.045 147.226 183.768 147.087 183.49C146.775 182.728 146.118 182.173 145.356 181.861C145.079 181.757 144.802 181.965 144.733 182.208C144.629 182.554 144.802 182.797 145.079 182.901Z" fill="#161616"/>
<path d="M144.455 185.432C144.351 186.437 144.628 187.443 145.182 188.309C145.528 188.864 146.429 188.344 146.083 187.789C145.632 187.061 145.425 186.299 145.528 185.432C145.563 184.739 144.524 184.773 144.455 185.432Z" fill="#161616"/>
<path d="M71.2927 240.69C70.6348 240.032 71.4312 238.749 72.2968 239.373C73.2317 240.032 72.2622 241.28 71.3619 240.76C70.7733 240.413 70.2539 241.314 70.8425 241.661C71.6735 242.146 72.7815 241.904 73.3702 241.141C74.028 240.309 73.751 239.165 72.92 238.576C72.1237 237.986 70.981 238.09 70.3924 238.922C69.8384 239.685 69.873 240.794 70.5309 241.488C71.0157 241.904 71.7428 241.141 71.2927 240.69Z" fill="#161616"/>
<path d="M70.5309 238.645C70.1847 238.541 69.8384 238.402 69.4922 238.298C69.2152 238.194 68.9382 238.402 68.8689 238.645C68.7997 238.922 68.9728 239.2 69.2152 239.269C69.5614 239.373 69.9077 239.512 70.2539 239.616C70.5309 239.72 70.8079 239.512 70.8772 239.269C70.981 238.992 70.8079 238.714 70.5309 238.645Z" fill="#161616"/>
<path d="M70.5308 239.616C71.6734 239.373 72.5391 238.264 72.4698 237.085C72.4352 236.427 71.3964 236.427 71.4311 237.085C71.4657 237.848 70.9809 238.472 70.2538 238.611C69.6305 238.749 69.8729 239.755 70.5308 239.616Z" fill="#161616"/>
<path d="M73.6473 240.032C74.0974 239.928 74.5476 239.79 74.9977 239.686C75.6556 239.512 75.3786 238.507 74.7207 238.68C74.2706 238.784 73.8204 238.923 73.3703 239.027C72.7124 239.2 72.9894 240.205 73.6473 240.032Z" fill="#161616"/>
<path d="M72.7119 241.8C72.9543 242.147 73.1621 242.493 73.4044 242.84C73.5429 243.083 73.8546 243.187 74.1316 243.013C74.374 242.875 74.4778 242.528 74.3047 242.285C74.0623 241.939 73.8546 241.592 73.6122 241.245C73.4737 241.003 73.1621 240.899 72.8851 241.072C72.6427 241.211 72.5388 241.557 72.7119 241.8Z" fill="#161616"/>
<path d="M71.501 240.032C70.7739 240.552 70.2545 241.245 69.9083 242.077C69.8044 242.355 70.0122 242.632 70.2545 242.701C70.5662 242.771 70.7739 242.597 70.8778 242.355C71.1202 241.8 71.501 241.28 71.9858 240.933C72.2281 240.76 72.332 240.483 72.1589 240.205C72.0896 239.997 71.7434 239.893 71.501 240.032Z" fill="#161616"/>
<path d="M119.733 94.3279C123.092 97.8639 126.728 101.053 130.64 103.931C131.194 104.312 131.714 103.411 131.16 103.029C127.316 100.187 123.75 97.0319 120.461 93.5653C120.01 93.1146 119.283 93.8426 119.733 94.3279Z" fill="#161616"/>
<path d="M86.4592 176.765C96.8121 176.211 107.165 177.979 116.721 182.035C117.345 182.277 117.864 181.411 117.241 181.133C107.511 177.008 97.0198 175.136 86.4592 175.725C85.8014 175.795 85.8014 176.835 86.4592 176.765Z" fill="#161616"/>
<path d="M135.626 229.875C139.642 227.517 143.624 225.16 147.641 222.768C148.229 222.421 147.71 221.52 147.121 221.867C143.105 224.224 139.123 226.581 135.107 228.973C134.518 229.32 135.037 230.221 135.626 229.875Z" fill="#161616"/>
<path d="M90.5442 242.39C96.3958 236.774 103.252 232.406 110.834 229.528C111.458 229.286 111.181 228.28 110.557 228.523C102.836 231.47 95.8072 235.907 89.8171 241.662C89.3323 242.112 90.0595 242.875 90.5442 242.39Z" fill="#161616"/>
<path d="M103.736 212.125C107.753 211.501 111.769 210.877 115.82 210.218C116.478 210.114 116.201 209.109 115.543 209.213C111.527 209.837 107.51 210.461 103.459 211.12C102.801 211.224 103.078 212.229 103.736 212.125Z" fill="#161616"/>
<path d="M35.491 194.965C40.5808 197.08 46.017 197.912 51.5223 197.461C52.1802 197.392 52.1802 196.352 51.5223 196.421C46.1208 196.872 40.7886 196.04 35.768 193.96C35.1447 193.717 34.8677 194.723 35.491 194.965Z" fill="#161616"/>
<path d="M35.4214 126.048C44.2161 127.539 52.4569 131.283 59.3126 137.003C59.832 137.419 60.5591 136.691 60.0397 136.275C53.0455 130.416 44.6662 126.533 35.6637 125.043C35.0405 124.939 34.7635 125.944 35.4214 126.048Z" fill="#161616"/>
<path d="M55.6763 142.757C59.1388 144.698 62.7744 146.189 66.6178 147.229C67.2757 147.402 67.5527 146.397 66.8948 146.224C63.1553 145.218 59.5889 143.762 56.1957 141.856C55.6417 141.509 55.1223 142.41 55.6763 142.757Z" fill="#161616"/>
<path d="M73.5089 87.3599C80.1569 90.6186 85.9046 95.368 90.3366 101.296C90.7175 101.816 91.6177 101.296 91.2369 100.776C86.701 94.7093 80.8494 89.7866 74.0629 86.4586C73.4396 86.1813 72.9203 87.0826 73.5089 87.3599Z" fill="#161616"/>
<path d="M102.04 118.006C105.018 119.462 107.995 120.952 110.938 122.408C111.527 122.72 112.046 121.819 111.458 121.507C108.48 120.051 105.502 118.56 102.559 117.104C101.971 116.792 101.417 117.694 102.04 118.006Z" fill="#161616"/>
<path d="M292.824 345.523C295.04 349.787 297.256 354.086 299.472 358.35C296.667 359.806 292.616 361.886 287.596 364.278C280.913 367.467 277.693 368.784 277.866 369.998C278.074 371.35 282.471 371.662 285.934 371.904C288.6 372.078 293.759 372.32 310.137 369.062C313.668 368.368 315.365 367.952 316.3 366.462C317.927 363.862 315.988 360.152 313.703 355.056C311.868 350.966 309.375 345.072 306.812 337.48C302.173 340.115 297.498 342.819 292.824 345.523Z" fill="#191919"/>
<path d="M217.479 207.619C222.673 226.547 228.282 241.87 232.888 253.206C236.696 262.531 239.986 269.638 241.371 272.55C248.088 286.729 253.94 296.713 256.363 300.977C262.596 311.827 271.529 328.329 282.713 352.457C285.379 352.803 291.958 353.289 299.091 349.822C307.989 345.523 311.798 337.966 312.837 335.713C304.977 321.187 299.748 308.846 296.459 300.318C287.491 277.161 286.349 264.195 277.138 234.07C272.637 219.371 268.205 206.926 264.569 197.323C248.919 200.79 233.199 204.187 217.479 207.619Z" fill="white" stroke="#191919" stroke-width="2" stroke-miterlimit="10"/>
<path opacity="0.09" d="M240.574 203.355C254.701 237.051 268.551 271.891 282.02 307.841C287.422 322.297 292.685 336.614 297.74 350.827C300.164 349.51 303.315 347.499 306.5 344.483C309.582 341.537 311.729 338.625 313.148 336.302C309.997 331.033 305.184 322.505 300.441 311.481C296.805 303.057 293.897 294.702 279.562 240.934C278.038 235.214 274.784 222.942 268.066 207.619C266.231 203.425 264.604 200.062 263.531 197.913C255.913 199.715 248.261 201.518 240.574 203.355Z" fill="#6C6D6D"/>
<path opacity="0.22" d="M257.229 199.403C263.15 214.622 268.933 230.603 274.473 247.243C286.176 282.603 295.144 316.299 302 347.777C303.627 346.771 305.531 345.419 307.436 343.547C310.206 340.843 312.041 338.07 313.184 335.99C306.951 324.723 302.658 315.121 299.888 308.43C289.431 283.262 283.371 257.99 279.909 243.638C279.355 241.35 279.043 239.963 278.385 237.571C274.854 224.71 271.564 219.718 267.201 206.059C266.647 204.291 265.747 201.449 264.778 197.878C262.25 198.398 259.757 198.883 257.229 199.403Z" fill="#6C6D6D"/>
<path d="M215.229 310.579C218.311 314.531 221.393 318.483 224.474 322.47C206.919 328.537 202.834 331.31 203.111 332.697C203.803 335.886 228.214 330.339 238.705 331.761C239.536 331.865 242.202 332.281 243.449 330.825C244.522 329.542 244.037 327.427 243.691 326.318C238.22 317.998 232.784 309.678 227.313 301.358C223.297 304.409 219.246 307.494 215.229 310.579Z" fill="#191919"/>
<path d="M268.482 208.417C270.767 214.483 277.796 235.145 267.513 249.427C266.509 250.849 263.496 254.731 250.477 261.942C237.493 269.118 225.617 273.521 216.372 276.259C219.176 281.043 222.673 286.347 227.036 291.825C230.464 296.123 233.857 299.867 237.077 303.091C230.395 308.881 223.677 314.67 216.995 320.459C210.797 317.651 200.513 312.001 191.407 301.254C185.521 294.321 178.561 286.07 178.63 275.323C178.7 265.339 184.863 258.683 196.289 246.377C204.045 238.022 216.683 224.71 238.324 215.904C250.373 210.982 261.142 209.145 268.482 208.417Z" fill="white" stroke="#191919" stroke-width="2" stroke-miterlimit="10"/>
<path opacity="0.17" d="M244.487 213.651C245.872 216.737 247.465 221.625 246.911 227.449C246.184 235.179 241.96 241.142 234.827 248.249C227.798 255.251 215.16 266.102 194.974 275.809C205.361 287.665 215.749 299.486 226.136 311.342C229.668 308.777 233.234 306.177 236.766 303.611C233.477 300.145 230.049 296.227 226.621 291.755C222.5 286.417 219.073 281.286 216.233 276.537C226.482 273.174 234.862 269.707 241.094 266.865C241.094 266.865 248.677 263.433 258.233 257.435C262.492 254.766 265.228 252.79 267.651 249.462C270.525 245.51 271.495 241.766 272.014 239.79C275.373 226.721 269.244 211.745 267.894 208.59C264.016 208.729 259.341 209.249 254.113 210.531C250.477 211.398 247.223 212.507 244.487 213.651Z" fill="#6C6D6D"/>
<path opacity="0.22" d="M271.287 239.27C265.124 244.435 258.129 249.774 250.27 254.974C235.935 264.507 222.223 271.441 210.174 276.502C217.514 286.417 224.82 296.331 232.161 306.246C233.684 305.206 235.208 304.166 236.766 303.091C233.165 299.105 229.425 294.598 225.651 289.537C222.154 284.822 219.107 280.281 216.476 275.982C219.384 275.219 223.401 274.041 228.075 272.342C238.255 268.633 245.076 264.75 252.451 260.486C262.838 254.489 265.089 252.097 266.682 249.843C269.486 245.995 270.698 242.009 271.287 239.27Z" fill="#6C6D6D"/>
<path d="M251.136 124.142C246.011 122.027 239.987 131.769 239.433 132.67C237.39 136.067 236.905 138.529 235.001 145.115C230.326 161.235 227.903 169.382 223.297 173.611C219.177 177.39 214.849 177.563 213.706 177.529C208.859 177.494 204.877 174.131 197.086 167.371C190.542 161.686 189.85 159.953 186.076 158.531C184.137 157.803 178.527 155.654 174.13 159.849C171.325 162.518 169.629 167.441 170.39 168.689C171.36 170.283 176.588 166.505 176.623 166.643C176.658 166.713 175.134 167.337 173.714 169.035C173.022 169.867 171.81 171.67 172.087 172.294C172.606 173.507 177.246 167.926 181.401 170.006C184.24 171.427 184.379 175.171 187.668 176.627C189.607 177.494 191.442 177.009 192.62 176.558C194.212 179.886 196.879 184.67 201.034 189.003C203.492 191.603 212.252 200.478 224.44 199.161C237.321 197.739 245.18 185.814 247.604 182.139C248.989 180.025 259.203 164.009 257.68 143.139C257.438 139.777 256.433 126.361 251.136 124.142Z" fill="white" stroke="#191919" stroke-width="2" stroke-miterlimit="10"/>
<path opacity="0.25" d="M250.547 124.142C248.608 125.008 251.032 134.75 249.058 147.472C247.189 159.71 242.272 167.96 240.056 171.704C237.078 176.766 233.165 183.352 226.483 186.715C217.515 191.256 207.474 188.067 200.756 182.104C198.748 180.336 197.052 175.691 192.585 172.086C190.646 170.526 189.053 169.694 187.218 168.758C182.717 166.47 178.666 164.39 174.545 166.192C172.572 167.059 170.806 168.688 170.91 169C171.014 169.312 173.299 168.272 175.342 167.302C172.606 170.907 172.087 172.016 172.225 172.294C172.364 172.571 173.195 171.843 175.134 170.872C177.211 169.832 178.7 169.139 180.362 169.728C181.228 170.04 181.817 170.56 182.197 170.872C183.582 172.12 183.825 173.264 185.21 174.686C186.075 175.552 186.837 175.968 187.218 176.176C188.049 176.627 189.85 177.39 192.377 176.766C194.108 180.267 202.176 195.832 216.338 198.675C223.609 200.131 229.391 197.635 231.677 196.595C244.176 190.91 250.478 177.39 252.14 173.646C257.23 162.032 260.658 143.902 255.429 130.832C254.183 127.678 251.898 123.552 250.547 124.142Z" fill="#6C6D6D"/>
<path opacity="0.29" d="M256.849 139.534C255.984 143.278 254.564 148.651 252.487 154.856C248.366 167.163 244.661 178.222 237.425 186.056C228.491 195.763 217.792 196.56 211.768 196.179C215.992 198.571 219.489 199.091 221.74 199.126C238.706 199.646 250.548 177.182 254.218 167.059C254.876 165.256 256.192 161.547 256.953 156.243C257.992 149.171 257.403 143.139 256.849 139.534Z" fill="#6C6D6D"/>
<path d="M224.059 131.075C218.519 136.968 217.168 143.555 215.022 154.059C211.767 169.867 213.36 182.902 214.848 194.55C216.095 204.291 217.93 212.195 219.315 217.499C221.219 218.99 232.369 227.414 247.846 225.16C261.696 223.115 269.625 213.928 271.426 211.71C272.014 208.416 272.845 203.563 273.815 197.67C279.32 163.488 282.436 146.328 278.281 138.216C275.858 133.467 270.491 126.43 257.056 121.368C253.178 120.952 235.208 119.219 224.059 131.075Z" fill="#EC615B"/>
<path opacity="0.19" d="M225.271 129.896C236.247 133.952 241.683 139.95 244.245 143.486C258.441 163.003 249.716 191.915 239.501 208C235.381 214.483 230.88 219.128 227.59 222.11C230.637 223.566 238.428 226.755 248.365 225.264C261.731 223.219 269.383 214.102 271.149 211.883C272.568 197.878 274.75 186.888 276.585 179.296C278.178 172.64 278.905 166.643 280.394 154.648C280.913 150.419 281.536 144.942 278.801 139.222C277.243 135.963 275.2 133.848 273.676 132.288C271.391 129.966 266.786 126.014 259.272 123.587C255.741 122.72 249.681 121.75 242.271 122.998C234.135 124.35 228.318 127.782 225.271 129.896Z" fill="#6C6D6D"/>
<path opacity="0.18" d="M277.45 135.547C276.827 135.582 278.143 145.184 276.1 158.427C272.326 182.936 260.207 199.923 255.533 205.955C251.62 210.982 245.491 217.915 236.523 224.744C239.744 225.23 244.037 225.438 248.954 224.502C260.622 222.318 268.032 215.142 270.871 212.056C271.599 207.827 272.776 201.206 274.265 193.024C277.762 173.888 278.454 171.6 279.008 165.638C280.532 149.379 278.177 135.547 277.45 135.547Z" fill="#6C6D6D"/>
<path d="M272.533 131.179C266.093 129.064 258.579 138.771 257.887 139.672C255.325 143.035 254.701 145.496 252.312 152.048C246.461 168.099 243.448 176.211 237.666 180.406C232.507 184.184 227.105 184.323 225.651 184.323C219.592 184.288 214.606 180.926 204.876 174.2C196.67 168.55 195.839 166.816 191.13 165.395C188.706 164.667 181.712 162.552 176.207 166.712C172.709 169.382 170.563 174.27 171.532 175.518C172.744 177.112 179.288 173.368 179.323 173.472C179.357 173.542 177.453 174.131 175.687 175.83C174.822 176.662 173.298 178.43 173.644 179.088C174.302 180.302 180.119 174.755 185.313 176.8C188.845 178.222 189.052 181.931 193.173 183.387C195.597 184.254 197.916 183.768 199.371 183.318C201.379 186.611 204.703 191.395 209.897 195.694C212.978 198.259 223.954 207.134 239.155 205.816C255.29 204.43 265.089 192.539 268.136 188.864C269.902 186.75 282.678 170.803 280.739 150.072C280.428 146.71 279.181 133.363 272.533 131.179Z" fill="white" stroke="#191919" stroke-width="2" stroke-miterlimit="10"/>
<path opacity="0.25" d="M271.84 131.145C269.417 132.011 272.464 141.683 270.005 154.371C267.651 166.539 261.522 174.755 258.717 178.465C254.978 183.491 250.096 190.043 241.717 193.406C230.498 197.913 217.929 194.723 209.515 188.83C207.022 187.062 204.91 182.451 199.301 178.846C196.877 177.286 194.904 176.489 192.584 175.553C186.94 173.265 181.885 171.219 176.725 173.022C174.232 173.889 172.051 175.518 172.155 175.795C172.259 176.107 175.133 175.067 177.695 174.097C174.267 177.702 173.609 178.811 173.782 179.089C173.99 179.366 174.994 178.638 177.418 177.667C180.015 176.627 181.885 175.934 183.962 176.523C185.035 176.835 185.797 177.355 186.247 177.667C188.013 178.881 188.29 180.059 190.021 181.446C191.095 182.313 192.064 182.729 192.549 182.937C193.588 183.387 195.873 184.15 199.024 183.526C201.205 187.027 211.281 202.489 229.009 205.331C238.116 206.787 245.318 204.291 248.191 203.251C263.842 197.601 271.736 184.15 273.779 180.406C280.116 168.827 284.444 150.801 277.9 137.801C276.376 134.681 273.502 130.555 271.84 131.145Z" fill="#6C6D6D"/>
<path opacity="0.29" d="M279.735 146.467C278.627 150.176 276.896 155.549 274.299 161.72C269.14 173.957 264.5 184.981 255.463 192.781C244.279 202.419 230.913 203.216 223.365 202.835C228.663 205.227 233.026 205.712 235.83 205.781C257.055 206.267 271.875 183.941 276.48 173.853C277.311 172.085 278.973 168.376 279.908 163.107C281.154 156.035 280.427 150.072 279.735 146.467Z" fill="#6C6D6D"/>
<path d="M174.579 125.494C167.827 145.67 167.62 162.552 168.347 172.848C170.182 199.923 180.915 219.891 187.321 231.504C191.788 239.616 196.22 246.064 199.578 250.571C200.721 250.675 201.898 250.744 203.041 250.848C203.387 246.411 203.941 240.344 204.911 233.238C205.603 228.072 208.512 207.55 216.718 181.099C220.907 167.544 226.932 151.043 235.623 132.878C231.849 131.803 228.04 130.763 224.266 129.688C221.461 140.955 214.64 147.299 210.797 146.398C207.127 145.531 204.08 137.627 205.395 127.47C203.041 127.088 200.652 126.707 198.297 126.326C194.004 136.483 187.944 142.064 184.759 140.99C181.885 140.019 180.638 133.398 181.504 125.563C179.219 125.528 176.899 125.494 174.579 125.494Z" fill="#161616" stroke="#161616" stroke-width="2" stroke-miterlimit="10"/>
<path d="M172.398 125.39C168.659 135.478 164.088 151.91 165.058 172.259C165.473 180.787 167.585 205.608 184.032 230.915C189.607 239.512 195.424 245.926 199.787 250.259C200.133 245.822 200.687 239.755 201.656 232.648C202.349 227.483 205.257 206.96 213.463 180.51C217.653 166.955 223.678 150.454 232.369 132.288C229.079 131.144 225.824 130 222.535 128.856C219.28 140.678 211.698 146.952 207.543 145.843C203.699 144.803 200.825 136.795 202.141 126.915C199.856 126.672 197.571 126.43 195.251 126.187C191.026 136.275 184.794 141.579 181.505 140.47C178.596 139.464 177.28 133.12 178.077 125.702C176.172 125.563 174.268 125.494 172.398 125.39Z" fill="white" stroke="#161616" stroke-width="2" stroke-miterlimit="10"/>
<path d="M181.643 170.803C182.232 167.406 184.898 164.598 188.291 163.939C193.416 162.968 194.974 168.896 194.593 172.918C194.524 173.576 195.562 173.576 195.632 172.918C196.082 168.688 194.385 162.448 189.122 162.795C184.933 163.072 181.366 166.435 180.639 170.56C180.501 171.184 181.505 171.462 181.643 170.803Z" fill="#4F4F4F"/>
<path d="M180.431 171.462C185.451 171.531 190.368 172.259 195.181 173.715C195.839 173.923 196.081 172.918 195.458 172.71C190.576 171.219 185.555 170.457 180.431 170.422C179.738 170.422 179.738 171.462 180.431 171.462Z" fill="#4F4F4F"/>
<path d="M179.462 171.08C178.25 174.928 177.73 178.846 177.834 182.867C177.869 183.526 178.908 183.526 178.873 182.867C178.734 178.95 179.288 175.102 180.431 171.358C180.674 170.734 179.669 170.456 179.462 171.08Z" fill="#4F4F4F"/>
<path d="M178.076 183.768C183.028 186.056 188.429 186.958 193.865 186.264C194.523 186.195 194.523 185.155 193.865 185.224C188.637 185.883 183.409 185.12 178.596 182.902C178.007 182.59 177.488 183.491 178.076 183.768Z" fill="#4F4F4F"/>
<path d="M194.869 173.646C194.869 177.633 194.557 181.585 193.865 185.537C193.761 186.195 194.765 186.473 194.869 185.814C195.562 181.793 195.908 177.737 195.908 173.646C195.908 172.987 194.869 172.987 194.869 173.646Z" fill="#4F4F4F"/>
<path d="M186.387 177.043C186.144 176.8 186.629 176.072 186.941 176.211C187.252 176.35 187.114 177.112 186.767 176.939C186.698 176.904 186.698 176.8 186.664 176.8C186.733 176.835 186.733 176.8 186.698 176.8C186.629 176.835 186.629 176.939 186.525 176.974C186.11 177.147 186.317 176.35 186.49 176.35C186.664 176.35 186.733 177.147 186.594 177.216C186.421 177.251 186.248 176.87 186.248 176.766C186.213 176.592 186.248 176.419 186.387 176.315C186.733 176.038 187.01 176.35 187.079 176.696C187.114 176.87 187.079 177.112 186.975 177.251C186.941 177.286 186.767 177.32 186.733 177.286C186.525 176.662 185.521 176.939 185.729 177.563C186.144 178.742 187.702 178.464 188.049 177.39C188.395 176.28 187.598 174.998 186.352 175.24C185.209 175.483 184.898 176.87 185.59 177.736C185.971 178.187 186.629 178.464 187.148 178.118C187.633 177.806 187.737 177.182 187.702 176.662C187.633 176.072 187.321 175.483 186.698 175.344C186.075 175.206 185.59 175.691 185.382 176.246C185.175 176.766 185.244 177.39 185.659 177.771C186.04 178.118 186.664 178.118 187.079 177.875C187.598 177.598 187.91 176.939 187.668 176.384C187.46 175.899 186.871 175.656 186.352 175.83C185.798 176.003 185.556 176.627 185.694 177.147C185.833 177.702 186.387 178.048 186.975 178.014C188.395 177.875 188.603 175.726 187.287 175.24C185.936 174.755 184.69 176.8 185.694 177.806C186.144 178.222 186.871 177.494 186.387 177.043Z" fill="#4F4F4F"/>
<path d="M186.109 177.251C185.902 178.43 185.659 179.608 185.452 180.787C185.313 181.446 186.317 181.723 186.456 181.064C186.663 179.886 186.906 178.707 187.114 177.528C187.217 176.87 186.213 176.592 186.109 177.251Z" fill="#4F4F4F"/>
<path d="M185.729 177.182C185.486 178.43 185.348 179.678 185.348 180.926C185.348 181.584 186.386 181.584 186.386 180.926C186.386 179.747 186.49 178.603 186.733 177.459C186.871 176.8 185.867 176.523 185.729 177.182Z" fill="#4F4F4F"/>
<path d="M186.664 177.182C186.318 178.395 185.937 179.574 185.591 180.787C185.418 181.446 186.387 181.688 186.595 181.064C186.941 179.851 187.322 178.672 187.668 177.459C187.842 176.8 186.837 176.523 186.664 177.182Z" fill="#4F4F4F"/>
<path d="M186.387 176.662C187.045 176.662 187.045 175.622 186.387 175.622C185.729 175.622 185.729 176.662 186.387 176.662Z" fill="#4F4F4F"/>
<path d="M200.237 128.267C199.683 132.982 200.375 137.627 202.21 141.995C202.349 142.307 202.799 142.03 202.66 141.718C200.86 137.454 200.202 132.843 200.756 128.232C200.791 127.92 200.271 127.92 200.237 128.267Z" fill="#4F4F4F"/>
<path d="M175.618 127.608C175.341 131.56 175.86 135.443 177.211 139.187C177.315 139.499 177.834 139.36 177.695 139.048C176.345 135.373 175.826 131.525 176.103 127.608C176.172 127.261 175.653 127.261 175.618 127.608Z" fill="#4F4F4F"/>
<path d="M224.544 131.491C225.86 132.253 227.21 132.912 228.63 133.467C228.941 133.605 229.08 133.085 228.768 132.981C227.418 132.427 226.102 131.803 224.821 131.075C224.509 130.867 224.232 131.317 224.544 131.491Z" fill="#4F4F4F"/>
<path d="M221.808 70.7896C221.185 72.731 220.561 74.6723 220.007 76.7176C217.618 85.003 216.026 92.9416 214.952 100.326C216.683 100.395 218.38 100.43 220.111 100.499C219.696 102.128 218.311 108.056 221.358 114.574C224.197 120.675 229.114 123.483 230.672 124.28C230.222 126.568 229.806 128.856 229.356 131.144C230.603 131.734 237.805 135.062 246.045 131.838C252.901 129.168 256.052 123.691 256.848 122.166C253.559 116.619 252.659 111.731 252.382 108.923C251.897 104.104 252.693 100.152 253.386 96.6163C254.113 93.011 255.048 90.099 255.81 88.019C258.164 81.571 255.81 70.5123 248.746 65.659C241.787 60.8403 230.153 62.4696 221.808 70.7896Z" fill="white" stroke="#161616" stroke-width="2" stroke-miterlimit="10"/>
<path d="M219.35 100.672C220.25 100.672 221.185 100.672 222.085 100.707C222.431 100.707 222.431 100.187 222.085 100.187C221.185 100.152 220.25 100.152 219.35 100.152C219.003 100.152 219.003 100.672 219.35 100.672Z" fill="#161616"/>
<path d="M250.823 79.7338C246.945 80.1498 245.803 83.3391 240.09 89.5098C234.307 95.7498 230.672 99.6671 224.889 101.4C221.15 102.51 219.488 101.851 217.653 103.723C214.467 106.947 215.437 113.152 216.614 116.411C217.964 120.19 220.457 122.686 222.535 124.731C224.508 126.707 226.378 128.059 227.728 128.926C226.517 126.395 226.517 125.632 226.759 125.459C227.348 125.043 229.079 127.99 231.606 128.024C232.334 128.024 233.684 127.782 237.112 123.726C239.432 120.952 241.025 119.08 242.34 116.238C245.11 110.102 242.686 107.987 244.625 99.6671C244.937 98.3844 247.188 88.5738 250.789 88.4004C252.105 88.3311 253.247 89.5791 253.767 90.4804C254.805 92.3871 254.321 95.0911 252.347 97.2404C252.936 96.9631 258.441 94.2244 259.168 88.6778C259.272 87.8111 259.687 84.5871 257.575 82.1604C255.082 79.3178 251.135 79.6991 250.823 79.7338Z" fill="#161616" stroke="#161616" stroke-width="2" stroke-miterlimit="10"/>
<path d="M223.804 90.4309C224.524 90.531 225.253 89.5669 225.432 88.2773C225.611 86.9878 225.172 85.8612 224.453 85.761C223.733 85.6608 223.004 86.625 222.825 87.9145C222.646 89.2041 223.084 90.3307 223.804 90.4309Z" fill="#161616"/>
<path d="M221.704 85.9738C223.401 85.2111 225.167 84.7258 226.967 84.4138C227.625 84.3097 227.348 83.3044 226.69 83.4084C224.786 83.7204 222.951 84.2751 221.15 85.0724C220.562 85.3498 221.081 86.2511 221.704 85.9738Z" fill="#161616"/>
<path d="M220.215 74.3603C220.873 72.1763 222.223 68.6403 225.166 65.1736C226.205 63.9603 228.386 61.3603 231.503 59.8696C237.458 56.9923 245.837 58.4483 251.343 63.7523C256.71 68.9523 258.614 77.203 256.225 84.8296C244.245 81.3283 232.23 77.8616 220.215 74.3603Z" fill="#5222D0"/>
<path d="M199.925 71.9339C218.449 76.9606 236.974 82.0219 255.498 87.0486C257.437 87.5686 258.268 84.5526 256.329 84.0326C237.805 79.0059 219.28 73.9446 200.756 68.9179C198.817 68.3979 197.986 71.4139 199.925 71.9339Z" fill="#161616"/>
<path d="M238.705 58.5179C243.379 60.2512 246.496 64.6539 246.496 69.4726C246.496 73.6672 244.107 77.5846 240.332 79.6646C245.63 81.1552 250.893 82.6112 256.191 84.1019C256.675 82.7153 257.229 80.5659 257.229 77.9659C257.264 71.8992 254.356 67.6006 253.386 66.2832C252.347 64.8619 248.642 60.1126 242.306 58.8646C240.852 58.5179 239.571 58.4832 238.705 58.5179Z" fill="#321693"/>
</svg>
